G75*
%MOIN*%
%OFA0B0*%
%FSLAX25Y25*%
%IPPOS*%
%LPD*%
%AMOC8*
5,1,8,0,0,1.08239X$1,22.5*
%
%ADD10C,0.00000*%
%ADD11C,0.13100*%
%ADD12R,0.07687X0.06899*%
%ADD13R,0.05324X0.03750*%
%ADD14R,0.03750X0.05324*%
%ADD15C,0.02812*%
%ADD16R,0.06112X0.08080*%
%ADD17R,0.07687X0.06112*%
%ADD18R,0.03356X0.06506*%
%ADD19R,0.10836X0.01781*%
%ADD20C,0.11230*%
%ADD21C,0.07293*%
%ADD22R,0.02300X0.07200*%
%ADD23R,0.07200X0.02300*%
%ADD24R,0.04143X0.02175*%
%ADD25C,0.01500*%
%ADD26R,0.02175X0.05915*%
%ADD27R,0.08080X0.08080*%
%ADD28R,0.07690X0.08080*%
%ADD29R,0.08868X0.06899*%
%ADD30R,0.03592X0.10049*%
%ADD31C,0.10639*%
%ADD32R,0.04931X0.04537*%
%ADD33R,0.06506X0.10049*%
%ADD34C,0.08000*%
%ADD35R,0.05324X0.02765*%
%ADD36R,0.04537X0.04931*%
%ADD37R,0.03946X0.28159*%
%ADD38R,0.10049X0.08474*%
%ADD39C,0.01361*%
%ADD40R,0.04931X0.02175*%
%ADD41C,0.05915*%
%ADD42R,0.06899X0.07687*%
%ADD43R,0.05400X0.09400*%
%ADD44R,0.14773X0.09261*%
%ADD45C,0.05324*%
%ADD46R,0.10049X0.06506*%
%ADD47C,0.04500*%
%ADD48C,0.06506*%
%ADD49OC8,0.04000*%
%ADD50OC8,0.04362*%
D10*
X0001500Y0017369D02*
X0001500Y0361369D01*
X0411500Y0361369D01*
X0411500Y0017369D01*
X0001500Y0017369D01*
X0016422Y0226699D02*
X0016424Y0226814D01*
X0016430Y0226930D01*
X0016440Y0227045D01*
X0016454Y0227160D01*
X0016472Y0227274D01*
X0016494Y0227387D01*
X0016519Y0227500D01*
X0016549Y0227611D01*
X0016582Y0227722D01*
X0016619Y0227831D01*
X0016660Y0227939D01*
X0016705Y0228046D01*
X0016753Y0228151D01*
X0016805Y0228254D01*
X0016861Y0228355D01*
X0016920Y0228455D01*
X0016982Y0228552D01*
X0017048Y0228647D01*
X0017116Y0228740D01*
X0017188Y0228830D01*
X0017263Y0228918D01*
X0017342Y0229003D01*
X0017423Y0229085D01*
X0017506Y0229165D01*
X0017593Y0229241D01*
X0017682Y0229315D01*
X0017773Y0229385D01*
X0017867Y0229453D01*
X0017963Y0229517D01*
X0018062Y0229577D01*
X0018162Y0229634D01*
X0018264Y0229688D01*
X0018368Y0229738D01*
X0018474Y0229785D01*
X0018581Y0229828D01*
X0018690Y0229867D01*
X0018800Y0229902D01*
X0018911Y0229933D01*
X0019023Y0229961D01*
X0019136Y0229985D01*
X0019250Y0230005D01*
X0019365Y0230021D01*
X0019480Y0230033D01*
X0019595Y0230041D01*
X0019710Y0230045D01*
X0019826Y0230045D01*
X0019941Y0230041D01*
X0020056Y0230033D01*
X0020171Y0230021D01*
X0020286Y0230005D01*
X0020400Y0229985D01*
X0020513Y0229961D01*
X0020625Y0229933D01*
X0020736Y0229902D01*
X0020846Y0229867D01*
X0020955Y0229828D01*
X0021062Y0229785D01*
X0021168Y0229738D01*
X0021272Y0229688D01*
X0021374Y0229634D01*
X0021474Y0229577D01*
X0021573Y0229517D01*
X0021669Y0229453D01*
X0021763Y0229385D01*
X0021854Y0229315D01*
X0021943Y0229241D01*
X0022030Y0229165D01*
X0022113Y0229085D01*
X0022194Y0229003D01*
X0022273Y0228918D01*
X0022348Y0228830D01*
X0022420Y0228740D01*
X0022488Y0228647D01*
X0022554Y0228552D01*
X0022616Y0228455D01*
X0022675Y0228355D01*
X0022731Y0228254D01*
X0022783Y0228151D01*
X0022831Y0228046D01*
X0022876Y0227939D01*
X0022917Y0227831D01*
X0022954Y0227722D01*
X0022987Y0227611D01*
X0023017Y0227500D01*
X0023042Y0227387D01*
X0023064Y0227274D01*
X0023082Y0227160D01*
X0023096Y0227045D01*
X0023106Y0226930D01*
X0023112Y0226814D01*
X0023114Y0226699D01*
X0023112Y0226584D01*
X0023106Y0226468D01*
X0023096Y0226353D01*
X0023082Y0226238D01*
X0023064Y0226124D01*
X0023042Y0226011D01*
X0023017Y0225898D01*
X0022987Y0225787D01*
X0022954Y0225676D01*
X0022917Y0225567D01*
X0022876Y0225459D01*
X0022831Y0225352D01*
X0022783Y0225247D01*
X0022731Y0225144D01*
X0022675Y0225043D01*
X0022616Y0224943D01*
X0022554Y0224846D01*
X0022488Y0224751D01*
X0022420Y0224658D01*
X0022348Y0224568D01*
X0022273Y0224480D01*
X0022194Y0224395D01*
X0022113Y0224313D01*
X0022030Y0224233D01*
X0021943Y0224157D01*
X0021854Y0224083D01*
X0021763Y0224013D01*
X0021669Y0223945D01*
X0021573Y0223881D01*
X0021474Y0223821D01*
X0021374Y0223764D01*
X0021272Y0223710D01*
X0021168Y0223660D01*
X0021062Y0223613D01*
X0020955Y0223570D01*
X0020846Y0223531D01*
X0020736Y0223496D01*
X0020625Y0223465D01*
X0020513Y0223437D01*
X0020400Y0223413D01*
X0020286Y0223393D01*
X0020171Y0223377D01*
X0020056Y0223365D01*
X0019941Y0223357D01*
X0019826Y0223353D01*
X0019710Y0223353D01*
X0019595Y0223357D01*
X0019480Y0223365D01*
X0019365Y0223377D01*
X0019250Y0223393D01*
X0019136Y0223413D01*
X0019023Y0223437D01*
X0018911Y0223465D01*
X0018800Y0223496D01*
X0018690Y0223531D01*
X0018581Y0223570D01*
X0018474Y0223613D01*
X0018368Y0223660D01*
X0018264Y0223710D01*
X0018162Y0223764D01*
X0018062Y0223821D01*
X0017963Y0223881D01*
X0017867Y0223945D01*
X0017773Y0224013D01*
X0017682Y0224083D01*
X0017593Y0224157D01*
X0017506Y0224233D01*
X0017423Y0224313D01*
X0017342Y0224395D01*
X0017263Y0224480D01*
X0017188Y0224568D01*
X0017116Y0224658D01*
X0017048Y0224751D01*
X0016982Y0224846D01*
X0016920Y0224943D01*
X0016861Y0225043D01*
X0016805Y0225144D01*
X0016753Y0225247D01*
X0016705Y0225352D01*
X0016660Y0225459D01*
X0016619Y0225567D01*
X0016582Y0225676D01*
X0016549Y0225787D01*
X0016519Y0225898D01*
X0016494Y0226011D01*
X0016472Y0226124D01*
X0016454Y0226238D01*
X0016440Y0226353D01*
X0016430Y0226468D01*
X0016424Y0226584D01*
X0016422Y0226699D01*
X0037917Y0226699D02*
X0037919Y0226844D01*
X0037925Y0226989D01*
X0037935Y0227134D01*
X0037949Y0227279D01*
X0037967Y0227423D01*
X0037988Y0227566D01*
X0038014Y0227709D01*
X0038043Y0227851D01*
X0038077Y0227993D01*
X0038114Y0228133D01*
X0038155Y0228272D01*
X0038200Y0228410D01*
X0038249Y0228547D01*
X0038301Y0228683D01*
X0038357Y0228817D01*
X0038417Y0228949D01*
X0038480Y0229080D01*
X0038547Y0229208D01*
X0038617Y0229336D01*
X0038691Y0229461D01*
X0038768Y0229584D01*
X0038848Y0229704D01*
X0038932Y0229823D01*
X0039019Y0229939D01*
X0039109Y0230053D01*
X0039202Y0230165D01*
X0039298Y0230273D01*
X0039398Y0230379D01*
X0039499Y0230483D01*
X0039604Y0230583D01*
X0039712Y0230681D01*
X0039822Y0230776D01*
X0039934Y0230867D01*
X0040049Y0230956D01*
X0040167Y0231041D01*
X0040287Y0231123D01*
X0040409Y0231202D01*
X0040533Y0231278D01*
X0040659Y0231350D01*
X0040787Y0231418D01*
X0040917Y0231483D01*
X0041048Y0231545D01*
X0041181Y0231602D01*
X0041316Y0231657D01*
X0041452Y0231707D01*
X0041590Y0231754D01*
X0041728Y0231797D01*
X0041868Y0231836D01*
X0042009Y0231871D01*
X0042151Y0231903D01*
X0042293Y0231930D01*
X0042436Y0231954D01*
X0042580Y0231974D01*
X0042725Y0231990D01*
X0042869Y0232002D01*
X0043014Y0232010D01*
X0043159Y0232014D01*
X0043305Y0232014D01*
X0043450Y0232010D01*
X0043595Y0232002D01*
X0043739Y0231990D01*
X0043884Y0231974D01*
X0044028Y0231954D01*
X0044171Y0231930D01*
X0044313Y0231903D01*
X0044455Y0231871D01*
X0044596Y0231836D01*
X0044736Y0231797D01*
X0044874Y0231754D01*
X0045012Y0231707D01*
X0045148Y0231657D01*
X0045283Y0231602D01*
X0045416Y0231545D01*
X0045547Y0231483D01*
X0045677Y0231418D01*
X0045805Y0231350D01*
X0045931Y0231278D01*
X0046055Y0231202D01*
X0046177Y0231123D01*
X0046297Y0231041D01*
X0046415Y0230956D01*
X0046530Y0230867D01*
X0046642Y0230776D01*
X0046752Y0230681D01*
X0046860Y0230583D01*
X0046965Y0230483D01*
X0047066Y0230379D01*
X0047166Y0230273D01*
X0047262Y0230165D01*
X0047355Y0230053D01*
X0047445Y0229939D01*
X0047532Y0229823D01*
X0047616Y0229704D01*
X0047696Y0229584D01*
X0047773Y0229461D01*
X0047847Y0229336D01*
X0047917Y0229208D01*
X0047984Y0229080D01*
X0048047Y0228949D01*
X0048107Y0228817D01*
X0048163Y0228683D01*
X0048215Y0228547D01*
X0048264Y0228410D01*
X0048309Y0228272D01*
X0048350Y0228133D01*
X0048387Y0227993D01*
X0048421Y0227851D01*
X0048450Y0227709D01*
X0048476Y0227566D01*
X0048497Y0227423D01*
X0048515Y0227279D01*
X0048529Y0227134D01*
X0048539Y0226989D01*
X0048545Y0226844D01*
X0048547Y0226699D01*
X0048545Y0226554D01*
X0048539Y0226409D01*
X0048529Y0226264D01*
X0048515Y0226119D01*
X0048497Y0225975D01*
X0048476Y0225832D01*
X0048450Y0225689D01*
X0048421Y0225547D01*
X0048387Y0225405D01*
X0048350Y0225265D01*
X0048309Y0225126D01*
X0048264Y0224988D01*
X0048215Y0224851D01*
X0048163Y0224715D01*
X0048107Y0224581D01*
X0048047Y0224449D01*
X0047984Y0224318D01*
X0047917Y0224190D01*
X0047847Y0224062D01*
X0047773Y0223937D01*
X0047696Y0223814D01*
X0047616Y0223694D01*
X0047532Y0223575D01*
X0047445Y0223459D01*
X0047355Y0223345D01*
X0047262Y0223233D01*
X0047166Y0223125D01*
X0047066Y0223019D01*
X0046965Y0222915D01*
X0046860Y0222815D01*
X0046752Y0222717D01*
X0046642Y0222622D01*
X0046530Y0222531D01*
X0046415Y0222442D01*
X0046297Y0222357D01*
X0046177Y0222275D01*
X0046055Y0222196D01*
X0045931Y0222120D01*
X0045805Y0222048D01*
X0045677Y0221980D01*
X0045547Y0221915D01*
X0045416Y0221853D01*
X0045283Y0221796D01*
X0045148Y0221741D01*
X0045012Y0221691D01*
X0044874Y0221644D01*
X0044736Y0221601D01*
X0044596Y0221562D01*
X0044455Y0221527D01*
X0044313Y0221495D01*
X0044171Y0221468D01*
X0044028Y0221444D01*
X0043884Y0221424D01*
X0043739Y0221408D01*
X0043595Y0221396D01*
X0043450Y0221388D01*
X0043305Y0221384D01*
X0043159Y0221384D01*
X0043014Y0221388D01*
X0042869Y0221396D01*
X0042725Y0221408D01*
X0042580Y0221424D01*
X0042436Y0221444D01*
X0042293Y0221468D01*
X0042151Y0221495D01*
X0042009Y0221527D01*
X0041868Y0221562D01*
X0041728Y0221601D01*
X0041590Y0221644D01*
X0041452Y0221691D01*
X0041316Y0221741D01*
X0041181Y0221796D01*
X0041048Y0221853D01*
X0040917Y0221915D01*
X0040787Y0221980D01*
X0040659Y0222048D01*
X0040533Y0222120D01*
X0040409Y0222196D01*
X0040287Y0222275D01*
X0040167Y0222357D01*
X0040049Y0222442D01*
X0039934Y0222531D01*
X0039822Y0222622D01*
X0039712Y0222717D01*
X0039604Y0222815D01*
X0039499Y0222915D01*
X0039398Y0223019D01*
X0039298Y0223125D01*
X0039202Y0223233D01*
X0039109Y0223345D01*
X0039019Y0223459D01*
X0038932Y0223575D01*
X0038848Y0223694D01*
X0038768Y0223814D01*
X0038691Y0223937D01*
X0038617Y0224062D01*
X0038547Y0224190D01*
X0038480Y0224318D01*
X0038417Y0224449D01*
X0038357Y0224581D01*
X0038301Y0224715D01*
X0038249Y0224851D01*
X0038200Y0224988D01*
X0038155Y0225126D01*
X0038114Y0225265D01*
X0038077Y0225405D01*
X0038043Y0225547D01*
X0038014Y0225689D01*
X0037988Y0225832D01*
X0037967Y0225975D01*
X0037949Y0226119D01*
X0037935Y0226264D01*
X0037925Y0226409D01*
X0037919Y0226554D01*
X0037917Y0226699D01*
X0037917Y0283786D02*
X0037919Y0283931D01*
X0037925Y0284076D01*
X0037935Y0284221D01*
X0037949Y0284366D01*
X0037967Y0284510D01*
X0037988Y0284653D01*
X0038014Y0284796D01*
X0038043Y0284938D01*
X0038077Y0285080D01*
X0038114Y0285220D01*
X0038155Y0285359D01*
X0038200Y0285497D01*
X0038249Y0285634D01*
X0038301Y0285770D01*
X0038357Y0285904D01*
X0038417Y0286036D01*
X0038480Y0286167D01*
X0038547Y0286295D01*
X0038617Y0286423D01*
X0038691Y0286548D01*
X0038768Y0286671D01*
X0038848Y0286791D01*
X0038932Y0286910D01*
X0039019Y0287026D01*
X0039109Y0287140D01*
X0039202Y0287252D01*
X0039298Y0287360D01*
X0039398Y0287466D01*
X0039499Y0287570D01*
X0039604Y0287670D01*
X0039712Y0287768D01*
X0039822Y0287863D01*
X0039934Y0287954D01*
X0040049Y0288043D01*
X0040167Y0288128D01*
X0040287Y0288210D01*
X0040409Y0288289D01*
X0040533Y0288365D01*
X0040659Y0288437D01*
X0040787Y0288505D01*
X0040917Y0288570D01*
X0041048Y0288632D01*
X0041181Y0288689D01*
X0041316Y0288744D01*
X0041452Y0288794D01*
X0041590Y0288841D01*
X0041728Y0288884D01*
X0041868Y0288923D01*
X0042009Y0288958D01*
X0042151Y0288990D01*
X0042293Y0289017D01*
X0042436Y0289041D01*
X0042580Y0289061D01*
X0042725Y0289077D01*
X0042869Y0289089D01*
X0043014Y0289097D01*
X0043159Y0289101D01*
X0043305Y0289101D01*
X0043450Y0289097D01*
X0043595Y0289089D01*
X0043739Y0289077D01*
X0043884Y0289061D01*
X0044028Y0289041D01*
X0044171Y0289017D01*
X0044313Y0288990D01*
X0044455Y0288958D01*
X0044596Y0288923D01*
X0044736Y0288884D01*
X0044874Y0288841D01*
X0045012Y0288794D01*
X0045148Y0288744D01*
X0045283Y0288689D01*
X0045416Y0288632D01*
X0045547Y0288570D01*
X0045677Y0288505D01*
X0045805Y0288437D01*
X0045931Y0288365D01*
X0046055Y0288289D01*
X0046177Y0288210D01*
X0046297Y0288128D01*
X0046415Y0288043D01*
X0046530Y0287954D01*
X0046642Y0287863D01*
X0046752Y0287768D01*
X0046860Y0287670D01*
X0046965Y0287570D01*
X0047066Y0287466D01*
X0047166Y0287360D01*
X0047262Y0287252D01*
X0047355Y0287140D01*
X0047445Y0287026D01*
X0047532Y0286910D01*
X0047616Y0286791D01*
X0047696Y0286671D01*
X0047773Y0286548D01*
X0047847Y0286423D01*
X0047917Y0286295D01*
X0047984Y0286167D01*
X0048047Y0286036D01*
X0048107Y0285904D01*
X0048163Y0285770D01*
X0048215Y0285634D01*
X0048264Y0285497D01*
X0048309Y0285359D01*
X0048350Y0285220D01*
X0048387Y0285080D01*
X0048421Y0284938D01*
X0048450Y0284796D01*
X0048476Y0284653D01*
X0048497Y0284510D01*
X0048515Y0284366D01*
X0048529Y0284221D01*
X0048539Y0284076D01*
X0048545Y0283931D01*
X0048547Y0283786D01*
X0048545Y0283641D01*
X0048539Y0283496D01*
X0048529Y0283351D01*
X0048515Y0283206D01*
X0048497Y0283062D01*
X0048476Y0282919D01*
X0048450Y0282776D01*
X0048421Y0282634D01*
X0048387Y0282492D01*
X0048350Y0282352D01*
X0048309Y0282213D01*
X0048264Y0282075D01*
X0048215Y0281938D01*
X0048163Y0281802D01*
X0048107Y0281668D01*
X0048047Y0281536D01*
X0047984Y0281405D01*
X0047917Y0281277D01*
X0047847Y0281149D01*
X0047773Y0281024D01*
X0047696Y0280901D01*
X0047616Y0280781D01*
X0047532Y0280662D01*
X0047445Y0280546D01*
X0047355Y0280432D01*
X0047262Y0280320D01*
X0047166Y0280212D01*
X0047066Y0280106D01*
X0046965Y0280002D01*
X0046860Y0279902D01*
X0046752Y0279804D01*
X0046642Y0279709D01*
X0046530Y0279618D01*
X0046415Y0279529D01*
X0046297Y0279444D01*
X0046177Y0279362D01*
X0046055Y0279283D01*
X0045931Y0279207D01*
X0045805Y0279135D01*
X0045677Y0279067D01*
X0045547Y0279002D01*
X0045416Y0278940D01*
X0045283Y0278883D01*
X0045148Y0278828D01*
X0045012Y0278778D01*
X0044874Y0278731D01*
X0044736Y0278688D01*
X0044596Y0278649D01*
X0044455Y0278614D01*
X0044313Y0278582D01*
X0044171Y0278555D01*
X0044028Y0278531D01*
X0043884Y0278511D01*
X0043739Y0278495D01*
X0043595Y0278483D01*
X0043450Y0278475D01*
X0043305Y0278471D01*
X0043159Y0278471D01*
X0043014Y0278475D01*
X0042869Y0278483D01*
X0042725Y0278495D01*
X0042580Y0278511D01*
X0042436Y0278531D01*
X0042293Y0278555D01*
X0042151Y0278582D01*
X0042009Y0278614D01*
X0041868Y0278649D01*
X0041728Y0278688D01*
X0041590Y0278731D01*
X0041452Y0278778D01*
X0041316Y0278828D01*
X0041181Y0278883D01*
X0041048Y0278940D01*
X0040917Y0279002D01*
X0040787Y0279067D01*
X0040659Y0279135D01*
X0040533Y0279207D01*
X0040409Y0279283D01*
X0040287Y0279362D01*
X0040167Y0279444D01*
X0040049Y0279529D01*
X0039934Y0279618D01*
X0039822Y0279709D01*
X0039712Y0279804D01*
X0039604Y0279902D01*
X0039499Y0280002D01*
X0039398Y0280106D01*
X0039298Y0280212D01*
X0039202Y0280320D01*
X0039109Y0280432D01*
X0039019Y0280546D01*
X0038932Y0280662D01*
X0038848Y0280781D01*
X0038768Y0280901D01*
X0038691Y0281024D01*
X0038617Y0281149D01*
X0038547Y0281277D01*
X0038480Y0281405D01*
X0038417Y0281536D01*
X0038357Y0281668D01*
X0038301Y0281802D01*
X0038249Y0281938D01*
X0038200Y0282075D01*
X0038155Y0282213D01*
X0038114Y0282352D01*
X0038077Y0282492D01*
X0038043Y0282634D01*
X0038014Y0282776D01*
X0037988Y0282919D01*
X0037967Y0283062D01*
X0037949Y0283206D01*
X0037935Y0283351D01*
X0037925Y0283496D01*
X0037919Y0283641D01*
X0037917Y0283786D01*
X0016422Y0283786D02*
X0016424Y0283901D01*
X0016430Y0284017D01*
X0016440Y0284132D01*
X0016454Y0284247D01*
X0016472Y0284361D01*
X0016494Y0284474D01*
X0016519Y0284587D01*
X0016549Y0284698D01*
X0016582Y0284809D01*
X0016619Y0284918D01*
X0016660Y0285026D01*
X0016705Y0285133D01*
X0016753Y0285238D01*
X0016805Y0285341D01*
X0016861Y0285442D01*
X0016920Y0285542D01*
X0016982Y0285639D01*
X0017048Y0285734D01*
X0017116Y0285827D01*
X0017188Y0285917D01*
X0017263Y0286005D01*
X0017342Y0286090D01*
X0017423Y0286172D01*
X0017506Y0286252D01*
X0017593Y0286328D01*
X0017682Y0286402D01*
X0017773Y0286472D01*
X0017867Y0286540D01*
X0017963Y0286604D01*
X0018062Y0286664D01*
X0018162Y0286721D01*
X0018264Y0286775D01*
X0018368Y0286825D01*
X0018474Y0286872D01*
X0018581Y0286915D01*
X0018690Y0286954D01*
X0018800Y0286989D01*
X0018911Y0287020D01*
X0019023Y0287048D01*
X0019136Y0287072D01*
X0019250Y0287092D01*
X0019365Y0287108D01*
X0019480Y0287120D01*
X0019595Y0287128D01*
X0019710Y0287132D01*
X0019826Y0287132D01*
X0019941Y0287128D01*
X0020056Y0287120D01*
X0020171Y0287108D01*
X0020286Y0287092D01*
X0020400Y0287072D01*
X0020513Y0287048D01*
X0020625Y0287020D01*
X0020736Y0286989D01*
X0020846Y0286954D01*
X0020955Y0286915D01*
X0021062Y0286872D01*
X0021168Y0286825D01*
X0021272Y0286775D01*
X0021374Y0286721D01*
X0021474Y0286664D01*
X0021573Y0286604D01*
X0021669Y0286540D01*
X0021763Y0286472D01*
X0021854Y0286402D01*
X0021943Y0286328D01*
X0022030Y0286252D01*
X0022113Y0286172D01*
X0022194Y0286090D01*
X0022273Y0286005D01*
X0022348Y0285917D01*
X0022420Y0285827D01*
X0022488Y0285734D01*
X0022554Y0285639D01*
X0022616Y0285542D01*
X0022675Y0285442D01*
X0022731Y0285341D01*
X0022783Y0285238D01*
X0022831Y0285133D01*
X0022876Y0285026D01*
X0022917Y0284918D01*
X0022954Y0284809D01*
X0022987Y0284698D01*
X0023017Y0284587D01*
X0023042Y0284474D01*
X0023064Y0284361D01*
X0023082Y0284247D01*
X0023096Y0284132D01*
X0023106Y0284017D01*
X0023112Y0283901D01*
X0023114Y0283786D01*
X0023112Y0283671D01*
X0023106Y0283555D01*
X0023096Y0283440D01*
X0023082Y0283325D01*
X0023064Y0283211D01*
X0023042Y0283098D01*
X0023017Y0282985D01*
X0022987Y0282874D01*
X0022954Y0282763D01*
X0022917Y0282654D01*
X0022876Y0282546D01*
X0022831Y0282439D01*
X0022783Y0282334D01*
X0022731Y0282231D01*
X0022675Y0282130D01*
X0022616Y0282030D01*
X0022554Y0281933D01*
X0022488Y0281838D01*
X0022420Y0281745D01*
X0022348Y0281655D01*
X0022273Y0281567D01*
X0022194Y0281482D01*
X0022113Y0281400D01*
X0022030Y0281320D01*
X0021943Y0281244D01*
X0021854Y0281170D01*
X0021763Y0281100D01*
X0021669Y0281032D01*
X0021573Y0280968D01*
X0021474Y0280908D01*
X0021374Y0280851D01*
X0021272Y0280797D01*
X0021168Y0280747D01*
X0021062Y0280700D01*
X0020955Y0280657D01*
X0020846Y0280618D01*
X0020736Y0280583D01*
X0020625Y0280552D01*
X0020513Y0280524D01*
X0020400Y0280500D01*
X0020286Y0280480D01*
X0020171Y0280464D01*
X0020056Y0280452D01*
X0019941Y0280444D01*
X0019826Y0280440D01*
X0019710Y0280440D01*
X0019595Y0280444D01*
X0019480Y0280452D01*
X0019365Y0280464D01*
X0019250Y0280480D01*
X0019136Y0280500D01*
X0019023Y0280524D01*
X0018911Y0280552D01*
X0018800Y0280583D01*
X0018690Y0280618D01*
X0018581Y0280657D01*
X0018474Y0280700D01*
X0018368Y0280747D01*
X0018264Y0280797D01*
X0018162Y0280851D01*
X0018062Y0280908D01*
X0017963Y0280968D01*
X0017867Y0281032D01*
X0017773Y0281100D01*
X0017682Y0281170D01*
X0017593Y0281244D01*
X0017506Y0281320D01*
X0017423Y0281400D01*
X0017342Y0281482D01*
X0017263Y0281567D01*
X0017188Y0281655D01*
X0017116Y0281745D01*
X0017048Y0281838D01*
X0016982Y0281933D01*
X0016920Y0282030D01*
X0016861Y0282130D01*
X0016805Y0282231D01*
X0016753Y0282334D01*
X0016705Y0282439D01*
X0016660Y0282546D01*
X0016619Y0282654D01*
X0016582Y0282763D01*
X0016549Y0282874D01*
X0016519Y0282985D01*
X0016494Y0283098D01*
X0016472Y0283211D01*
X0016454Y0283325D01*
X0016440Y0283440D01*
X0016430Y0283555D01*
X0016424Y0283671D01*
X0016422Y0283786D01*
X0165250Y0347369D02*
X0165252Y0347527D01*
X0165258Y0347684D01*
X0165268Y0347842D01*
X0165282Y0347999D01*
X0165300Y0348155D01*
X0165321Y0348312D01*
X0165347Y0348467D01*
X0165377Y0348622D01*
X0165410Y0348776D01*
X0165448Y0348929D01*
X0165489Y0349082D01*
X0165534Y0349233D01*
X0165583Y0349383D01*
X0165636Y0349531D01*
X0165692Y0349679D01*
X0165753Y0349824D01*
X0165816Y0349969D01*
X0165884Y0350111D01*
X0165955Y0350252D01*
X0166029Y0350391D01*
X0166107Y0350528D01*
X0166189Y0350663D01*
X0166273Y0350796D01*
X0166362Y0350927D01*
X0166453Y0351055D01*
X0166548Y0351182D01*
X0166645Y0351305D01*
X0166746Y0351427D01*
X0166850Y0351545D01*
X0166957Y0351661D01*
X0167067Y0351774D01*
X0167179Y0351885D01*
X0167295Y0351992D01*
X0167413Y0352097D01*
X0167533Y0352199D01*
X0167656Y0352297D01*
X0167782Y0352393D01*
X0167910Y0352485D01*
X0168040Y0352574D01*
X0168172Y0352660D01*
X0168307Y0352742D01*
X0168444Y0352821D01*
X0168582Y0352896D01*
X0168722Y0352968D01*
X0168865Y0353036D01*
X0169008Y0353101D01*
X0169154Y0353162D01*
X0169301Y0353219D01*
X0169449Y0353273D01*
X0169599Y0353323D01*
X0169749Y0353369D01*
X0169901Y0353411D01*
X0170054Y0353450D01*
X0170208Y0353484D01*
X0170363Y0353515D01*
X0170518Y0353541D01*
X0170674Y0353564D01*
X0170831Y0353583D01*
X0170988Y0353598D01*
X0171145Y0353609D01*
X0171303Y0353616D01*
X0171461Y0353619D01*
X0171618Y0353618D01*
X0171776Y0353613D01*
X0171933Y0353604D01*
X0172091Y0353591D01*
X0172247Y0353574D01*
X0172404Y0353553D01*
X0172559Y0353529D01*
X0172714Y0353500D01*
X0172869Y0353467D01*
X0173022Y0353431D01*
X0173175Y0353390D01*
X0173326Y0353346D01*
X0173476Y0353298D01*
X0173625Y0353247D01*
X0173773Y0353191D01*
X0173919Y0353132D01*
X0174064Y0353069D01*
X0174207Y0353002D01*
X0174348Y0352932D01*
X0174487Y0352859D01*
X0174625Y0352782D01*
X0174761Y0352701D01*
X0174894Y0352617D01*
X0175025Y0352530D01*
X0175154Y0352439D01*
X0175281Y0352345D01*
X0175406Y0352248D01*
X0175527Y0352148D01*
X0175647Y0352045D01*
X0175763Y0351939D01*
X0175877Y0351830D01*
X0175989Y0351718D01*
X0176097Y0351604D01*
X0176202Y0351486D01*
X0176305Y0351366D01*
X0176404Y0351244D01*
X0176500Y0351119D01*
X0176593Y0350991D01*
X0176683Y0350862D01*
X0176769Y0350730D01*
X0176853Y0350596D01*
X0176932Y0350460D01*
X0177009Y0350322D01*
X0177081Y0350182D01*
X0177150Y0350040D01*
X0177216Y0349897D01*
X0177278Y0349752D01*
X0177336Y0349605D01*
X0177391Y0349457D01*
X0177442Y0349308D01*
X0177489Y0349157D01*
X0177532Y0349006D01*
X0177571Y0348853D01*
X0177607Y0348699D01*
X0177638Y0348545D01*
X0177666Y0348390D01*
X0177690Y0348234D01*
X0177710Y0348077D01*
X0177726Y0347920D01*
X0177738Y0347763D01*
X0177746Y0347606D01*
X0177750Y0347448D01*
X0177750Y0347290D01*
X0177746Y0347132D01*
X0177738Y0346975D01*
X0177726Y0346818D01*
X0177710Y0346661D01*
X0177690Y0346504D01*
X0177666Y0346348D01*
X0177638Y0346193D01*
X0177607Y0346039D01*
X0177571Y0345885D01*
X0177532Y0345732D01*
X0177489Y0345581D01*
X0177442Y0345430D01*
X0177391Y0345281D01*
X0177336Y0345133D01*
X0177278Y0344986D01*
X0177216Y0344841D01*
X0177150Y0344698D01*
X0177081Y0344556D01*
X0177009Y0344416D01*
X0176932Y0344278D01*
X0176853Y0344142D01*
X0176769Y0344008D01*
X0176683Y0343876D01*
X0176593Y0343747D01*
X0176500Y0343619D01*
X0176404Y0343494D01*
X0176305Y0343372D01*
X0176202Y0343252D01*
X0176097Y0343134D01*
X0175989Y0343020D01*
X0175877Y0342908D01*
X0175763Y0342799D01*
X0175647Y0342693D01*
X0175527Y0342590D01*
X0175406Y0342490D01*
X0175281Y0342393D01*
X0175154Y0342299D01*
X0175025Y0342208D01*
X0174894Y0342121D01*
X0174761Y0342037D01*
X0174625Y0341956D01*
X0174487Y0341879D01*
X0174348Y0341806D01*
X0174207Y0341736D01*
X0174064Y0341669D01*
X0173919Y0341606D01*
X0173773Y0341547D01*
X0173625Y0341491D01*
X0173476Y0341440D01*
X0173326Y0341392D01*
X0173175Y0341348D01*
X0173022Y0341307D01*
X0172869Y0341271D01*
X0172714Y0341238D01*
X0172559Y0341209D01*
X0172404Y0341185D01*
X0172247Y0341164D01*
X0172091Y0341147D01*
X0171933Y0341134D01*
X0171776Y0341125D01*
X0171618Y0341120D01*
X0171461Y0341119D01*
X0171303Y0341122D01*
X0171145Y0341129D01*
X0170988Y0341140D01*
X0170831Y0341155D01*
X0170674Y0341174D01*
X0170518Y0341197D01*
X0170363Y0341223D01*
X0170208Y0341254D01*
X0170054Y0341288D01*
X0169901Y0341327D01*
X0169749Y0341369D01*
X0169599Y0341415D01*
X0169449Y0341465D01*
X0169301Y0341519D01*
X0169154Y0341576D01*
X0169008Y0341637D01*
X0168865Y0341702D01*
X0168722Y0341770D01*
X0168582Y0341842D01*
X0168444Y0341917D01*
X0168307Y0341996D01*
X0168172Y0342078D01*
X0168040Y0342164D01*
X0167910Y0342253D01*
X0167782Y0342345D01*
X0167656Y0342441D01*
X0167533Y0342539D01*
X0167413Y0342641D01*
X0167295Y0342746D01*
X0167179Y0342853D01*
X0167067Y0342964D01*
X0166957Y0343077D01*
X0166850Y0343193D01*
X0166746Y0343311D01*
X0166645Y0343433D01*
X0166548Y0343556D01*
X0166453Y0343683D01*
X0166362Y0343811D01*
X0166273Y0343942D01*
X0166189Y0344075D01*
X0166107Y0344210D01*
X0166029Y0344347D01*
X0165955Y0344486D01*
X0165884Y0344627D01*
X0165816Y0344769D01*
X0165753Y0344914D01*
X0165692Y0345059D01*
X0165636Y0345207D01*
X0165583Y0345355D01*
X0165534Y0345505D01*
X0165489Y0345656D01*
X0165448Y0345809D01*
X0165410Y0345962D01*
X0165377Y0346116D01*
X0165347Y0346271D01*
X0165321Y0346426D01*
X0165300Y0346583D01*
X0165282Y0346739D01*
X0165268Y0346896D01*
X0165258Y0347054D01*
X0165252Y0347211D01*
X0165250Y0347369D01*
X0375250Y0347369D02*
X0375252Y0347527D01*
X0375258Y0347684D01*
X0375268Y0347842D01*
X0375282Y0347999D01*
X0375300Y0348155D01*
X0375321Y0348312D01*
X0375347Y0348467D01*
X0375377Y0348622D01*
X0375410Y0348776D01*
X0375448Y0348929D01*
X0375489Y0349082D01*
X0375534Y0349233D01*
X0375583Y0349383D01*
X0375636Y0349531D01*
X0375692Y0349679D01*
X0375753Y0349824D01*
X0375816Y0349969D01*
X0375884Y0350111D01*
X0375955Y0350252D01*
X0376029Y0350391D01*
X0376107Y0350528D01*
X0376189Y0350663D01*
X0376273Y0350796D01*
X0376362Y0350927D01*
X0376453Y0351055D01*
X0376548Y0351182D01*
X0376645Y0351305D01*
X0376746Y0351427D01*
X0376850Y0351545D01*
X0376957Y0351661D01*
X0377067Y0351774D01*
X0377179Y0351885D01*
X0377295Y0351992D01*
X0377413Y0352097D01*
X0377533Y0352199D01*
X0377656Y0352297D01*
X0377782Y0352393D01*
X0377910Y0352485D01*
X0378040Y0352574D01*
X0378172Y0352660D01*
X0378307Y0352742D01*
X0378444Y0352821D01*
X0378582Y0352896D01*
X0378722Y0352968D01*
X0378865Y0353036D01*
X0379008Y0353101D01*
X0379154Y0353162D01*
X0379301Y0353219D01*
X0379449Y0353273D01*
X0379599Y0353323D01*
X0379749Y0353369D01*
X0379901Y0353411D01*
X0380054Y0353450D01*
X0380208Y0353484D01*
X0380363Y0353515D01*
X0380518Y0353541D01*
X0380674Y0353564D01*
X0380831Y0353583D01*
X0380988Y0353598D01*
X0381145Y0353609D01*
X0381303Y0353616D01*
X0381461Y0353619D01*
X0381618Y0353618D01*
X0381776Y0353613D01*
X0381933Y0353604D01*
X0382091Y0353591D01*
X0382247Y0353574D01*
X0382404Y0353553D01*
X0382559Y0353529D01*
X0382714Y0353500D01*
X0382869Y0353467D01*
X0383022Y0353431D01*
X0383175Y0353390D01*
X0383326Y0353346D01*
X0383476Y0353298D01*
X0383625Y0353247D01*
X0383773Y0353191D01*
X0383919Y0353132D01*
X0384064Y0353069D01*
X0384207Y0353002D01*
X0384348Y0352932D01*
X0384487Y0352859D01*
X0384625Y0352782D01*
X0384761Y0352701D01*
X0384894Y0352617D01*
X0385025Y0352530D01*
X0385154Y0352439D01*
X0385281Y0352345D01*
X0385406Y0352248D01*
X0385527Y0352148D01*
X0385647Y0352045D01*
X0385763Y0351939D01*
X0385877Y0351830D01*
X0385989Y0351718D01*
X0386097Y0351604D01*
X0386202Y0351486D01*
X0386305Y0351366D01*
X0386404Y0351244D01*
X0386500Y0351119D01*
X0386593Y0350991D01*
X0386683Y0350862D01*
X0386769Y0350730D01*
X0386853Y0350596D01*
X0386932Y0350460D01*
X0387009Y0350322D01*
X0387081Y0350182D01*
X0387150Y0350040D01*
X0387216Y0349897D01*
X0387278Y0349752D01*
X0387336Y0349605D01*
X0387391Y0349457D01*
X0387442Y0349308D01*
X0387489Y0349157D01*
X0387532Y0349006D01*
X0387571Y0348853D01*
X0387607Y0348699D01*
X0387638Y0348545D01*
X0387666Y0348390D01*
X0387690Y0348234D01*
X0387710Y0348077D01*
X0387726Y0347920D01*
X0387738Y0347763D01*
X0387746Y0347606D01*
X0387750Y0347448D01*
X0387750Y0347290D01*
X0387746Y0347132D01*
X0387738Y0346975D01*
X0387726Y0346818D01*
X0387710Y0346661D01*
X0387690Y0346504D01*
X0387666Y0346348D01*
X0387638Y0346193D01*
X0387607Y0346039D01*
X0387571Y0345885D01*
X0387532Y0345732D01*
X0387489Y0345581D01*
X0387442Y0345430D01*
X0387391Y0345281D01*
X0387336Y0345133D01*
X0387278Y0344986D01*
X0387216Y0344841D01*
X0387150Y0344698D01*
X0387081Y0344556D01*
X0387009Y0344416D01*
X0386932Y0344278D01*
X0386853Y0344142D01*
X0386769Y0344008D01*
X0386683Y0343876D01*
X0386593Y0343747D01*
X0386500Y0343619D01*
X0386404Y0343494D01*
X0386305Y0343372D01*
X0386202Y0343252D01*
X0386097Y0343134D01*
X0385989Y0343020D01*
X0385877Y0342908D01*
X0385763Y0342799D01*
X0385647Y0342693D01*
X0385527Y0342590D01*
X0385406Y0342490D01*
X0385281Y0342393D01*
X0385154Y0342299D01*
X0385025Y0342208D01*
X0384894Y0342121D01*
X0384761Y0342037D01*
X0384625Y0341956D01*
X0384487Y0341879D01*
X0384348Y0341806D01*
X0384207Y0341736D01*
X0384064Y0341669D01*
X0383919Y0341606D01*
X0383773Y0341547D01*
X0383625Y0341491D01*
X0383476Y0341440D01*
X0383326Y0341392D01*
X0383175Y0341348D01*
X0383022Y0341307D01*
X0382869Y0341271D01*
X0382714Y0341238D01*
X0382559Y0341209D01*
X0382404Y0341185D01*
X0382247Y0341164D01*
X0382091Y0341147D01*
X0381933Y0341134D01*
X0381776Y0341125D01*
X0381618Y0341120D01*
X0381461Y0341119D01*
X0381303Y0341122D01*
X0381145Y0341129D01*
X0380988Y0341140D01*
X0380831Y0341155D01*
X0380674Y0341174D01*
X0380518Y0341197D01*
X0380363Y0341223D01*
X0380208Y0341254D01*
X0380054Y0341288D01*
X0379901Y0341327D01*
X0379749Y0341369D01*
X0379599Y0341415D01*
X0379449Y0341465D01*
X0379301Y0341519D01*
X0379154Y0341576D01*
X0379008Y0341637D01*
X0378865Y0341702D01*
X0378722Y0341770D01*
X0378582Y0341842D01*
X0378444Y0341917D01*
X0378307Y0341996D01*
X0378172Y0342078D01*
X0378040Y0342164D01*
X0377910Y0342253D01*
X0377782Y0342345D01*
X0377656Y0342441D01*
X0377533Y0342539D01*
X0377413Y0342641D01*
X0377295Y0342746D01*
X0377179Y0342853D01*
X0377067Y0342964D01*
X0376957Y0343077D01*
X0376850Y0343193D01*
X0376746Y0343311D01*
X0376645Y0343433D01*
X0376548Y0343556D01*
X0376453Y0343683D01*
X0376362Y0343811D01*
X0376273Y0343942D01*
X0376189Y0344075D01*
X0376107Y0344210D01*
X0376029Y0344347D01*
X0375955Y0344486D01*
X0375884Y0344627D01*
X0375816Y0344769D01*
X0375753Y0344914D01*
X0375692Y0345059D01*
X0375636Y0345207D01*
X0375583Y0345355D01*
X0375534Y0345505D01*
X0375489Y0345656D01*
X0375448Y0345809D01*
X0375410Y0345962D01*
X0375377Y0346116D01*
X0375347Y0346271D01*
X0375321Y0346426D01*
X0375300Y0346583D01*
X0375282Y0346739D01*
X0375268Y0346896D01*
X0375258Y0347054D01*
X0375252Y0347211D01*
X0375250Y0347369D01*
X0375250Y0037369D02*
X0375252Y0037527D01*
X0375258Y0037684D01*
X0375268Y0037842D01*
X0375282Y0037999D01*
X0375300Y0038155D01*
X0375321Y0038312D01*
X0375347Y0038467D01*
X0375377Y0038622D01*
X0375410Y0038776D01*
X0375448Y0038929D01*
X0375489Y0039082D01*
X0375534Y0039233D01*
X0375583Y0039383D01*
X0375636Y0039531D01*
X0375692Y0039679D01*
X0375753Y0039824D01*
X0375816Y0039969D01*
X0375884Y0040111D01*
X0375955Y0040252D01*
X0376029Y0040391D01*
X0376107Y0040528D01*
X0376189Y0040663D01*
X0376273Y0040796D01*
X0376362Y0040927D01*
X0376453Y0041055D01*
X0376548Y0041182D01*
X0376645Y0041305D01*
X0376746Y0041427D01*
X0376850Y0041545D01*
X0376957Y0041661D01*
X0377067Y0041774D01*
X0377179Y0041885D01*
X0377295Y0041992D01*
X0377413Y0042097D01*
X0377533Y0042199D01*
X0377656Y0042297D01*
X0377782Y0042393D01*
X0377910Y0042485D01*
X0378040Y0042574D01*
X0378172Y0042660D01*
X0378307Y0042742D01*
X0378444Y0042821D01*
X0378582Y0042896D01*
X0378722Y0042968D01*
X0378865Y0043036D01*
X0379008Y0043101D01*
X0379154Y0043162D01*
X0379301Y0043219D01*
X0379449Y0043273D01*
X0379599Y0043323D01*
X0379749Y0043369D01*
X0379901Y0043411D01*
X0380054Y0043450D01*
X0380208Y0043484D01*
X0380363Y0043515D01*
X0380518Y0043541D01*
X0380674Y0043564D01*
X0380831Y0043583D01*
X0380988Y0043598D01*
X0381145Y0043609D01*
X0381303Y0043616D01*
X0381461Y0043619D01*
X0381618Y0043618D01*
X0381776Y0043613D01*
X0381933Y0043604D01*
X0382091Y0043591D01*
X0382247Y0043574D01*
X0382404Y0043553D01*
X0382559Y0043529D01*
X0382714Y0043500D01*
X0382869Y0043467D01*
X0383022Y0043431D01*
X0383175Y0043390D01*
X0383326Y0043346D01*
X0383476Y0043298D01*
X0383625Y0043247D01*
X0383773Y0043191D01*
X0383919Y0043132D01*
X0384064Y0043069D01*
X0384207Y0043002D01*
X0384348Y0042932D01*
X0384487Y0042859D01*
X0384625Y0042782D01*
X0384761Y0042701D01*
X0384894Y0042617D01*
X0385025Y0042530D01*
X0385154Y0042439D01*
X0385281Y0042345D01*
X0385406Y0042248D01*
X0385527Y0042148D01*
X0385647Y0042045D01*
X0385763Y0041939D01*
X0385877Y0041830D01*
X0385989Y0041718D01*
X0386097Y0041604D01*
X0386202Y0041486D01*
X0386305Y0041366D01*
X0386404Y0041244D01*
X0386500Y0041119D01*
X0386593Y0040991D01*
X0386683Y0040862D01*
X0386769Y0040730D01*
X0386853Y0040596D01*
X0386932Y0040460D01*
X0387009Y0040322D01*
X0387081Y0040182D01*
X0387150Y0040040D01*
X0387216Y0039897D01*
X0387278Y0039752D01*
X0387336Y0039605D01*
X0387391Y0039457D01*
X0387442Y0039308D01*
X0387489Y0039157D01*
X0387532Y0039006D01*
X0387571Y0038853D01*
X0387607Y0038699D01*
X0387638Y0038545D01*
X0387666Y0038390D01*
X0387690Y0038234D01*
X0387710Y0038077D01*
X0387726Y0037920D01*
X0387738Y0037763D01*
X0387746Y0037606D01*
X0387750Y0037448D01*
X0387750Y0037290D01*
X0387746Y0037132D01*
X0387738Y0036975D01*
X0387726Y0036818D01*
X0387710Y0036661D01*
X0387690Y0036504D01*
X0387666Y0036348D01*
X0387638Y0036193D01*
X0387607Y0036039D01*
X0387571Y0035885D01*
X0387532Y0035732D01*
X0387489Y0035581D01*
X0387442Y0035430D01*
X0387391Y0035281D01*
X0387336Y0035133D01*
X0387278Y0034986D01*
X0387216Y0034841D01*
X0387150Y0034698D01*
X0387081Y0034556D01*
X0387009Y0034416D01*
X0386932Y0034278D01*
X0386853Y0034142D01*
X0386769Y0034008D01*
X0386683Y0033876D01*
X0386593Y0033747D01*
X0386500Y0033619D01*
X0386404Y0033494D01*
X0386305Y0033372D01*
X0386202Y0033252D01*
X0386097Y0033134D01*
X0385989Y0033020D01*
X0385877Y0032908D01*
X0385763Y0032799D01*
X0385647Y0032693D01*
X0385527Y0032590D01*
X0385406Y0032490D01*
X0385281Y0032393D01*
X0385154Y0032299D01*
X0385025Y0032208D01*
X0384894Y0032121D01*
X0384761Y0032037D01*
X0384625Y0031956D01*
X0384487Y0031879D01*
X0384348Y0031806D01*
X0384207Y0031736D01*
X0384064Y0031669D01*
X0383919Y0031606D01*
X0383773Y0031547D01*
X0383625Y0031491D01*
X0383476Y0031440D01*
X0383326Y0031392D01*
X0383175Y0031348D01*
X0383022Y0031307D01*
X0382869Y0031271D01*
X0382714Y0031238D01*
X0382559Y0031209D01*
X0382404Y0031185D01*
X0382247Y0031164D01*
X0382091Y0031147D01*
X0381933Y0031134D01*
X0381776Y0031125D01*
X0381618Y0031120D01*
X0381461Y0031119D01*
X0381303Y0031122D01*
X0381145Y0031129D01*
X0380988Y0031140D01*
X0380831Y0031155D01*
X0380674Y0031174D01*
X0380518Y0031197D01*
X0380363Y0031223D01*
X0380208Y0031254D01*
X0380054Y0031288D01*
X0379901Y0031327D01*
X0379749Y0031369D01*
X0379599Y0031415D01*
X0379449Y0031465D01*
X0379301Y0031519D01*
X0379154Y0031576D01*
X0379008Y0031637D01*
X0378865Y0031702D01*
X0378722Y0031770D01*
X0378582Y0031842D01*
X0378444Y0031917D01*
X0378307Y0031996D01*
X0378172Y0032078D01*
X0378040Y0032164D01*
X0377910Y0032253D01*
X0377782Y0032345D01*
X0377656Y0032441D01*
X0377533Y0032539D01*
X0377413Y0032641D01*
X0377295Y0032746D01*
X0377179Y0032853D01*
X0377067Y0032964D01*
X0376957Y0033077D01*
X0376850Y0033193D01*
X0376746Y0033311D01*
X0376645Y0033433D01*
X0376548Y0033556D01*
X0376453Y0033683D01*
X0376362Y0033811D01*
X0376273Y0033942D01*
X0376189Y0034075D01*
X0376107Y0034210D01*
X0376029Y0034347D01*
X0375955Y0034486D01*
X0375884Y0034627D01*
X0375816Y0034769D01*
X0375753Y0034914D01*
X0375692Y0035059D01*
X0375636Y0035207D01*
X0375583Y0035355D01*
X0375534Y0035505D01*
X0375489Y0035656D01*
X0375448Y0035809D01*
X0375410Y0035962D01*
X0375377Y0036116D01*
X0375347Y0036271D01*
X0375321Y0036426D01*
X0375300Y0036583D01*
X0375282Y0036739D01*
X0375268Y0036896D01*
X0375258Y0037054D01*
X0375252Y0037211D01*
X0375250Y0037369D01*
D11*
X0381500Y0037369D03*
X0381500Y0347369D03*
X0171500Y0347369D03*
D12*
X0071776Y0299770D03*
X0071776Y0288747D03*
X0059650Y0300951D03*
X0059650Y0311975D03*
X0188705Y0075636D03*
X0188705Y0064613D03*
X0374965Y0278668D03*
X0374965Y0289692D03*
X0388665Y0289692D03*
X0388665Y0278668D03*
D13*
X0296421Y0111503D03*
X0296421Y0106778D03*
X0296421Y0102054D03*
X0296421Y0097329D03*
X0296421Y0092605D03*
X0296421Y0087881D03*
X0296421Y0083156D03*
X0296421Y0078432D03*
X0296421Y0073707D03*
X0296421Y0068983D03*
X0296421Y0064259D03*
X0296421Y0059534D03*
X0296421Y0054810D03*
X0296421Y0050085D03*
X0296421Y0045361D03*
X0296421Y0040636D03*
X0296421Y0035912D03*
X0244453Y0035912D03*
X0244453Y0040636D03*
X0244453Y0045361D03*
X0244453Y0050085D03*
X0244453Y0054810D03*
X0244453Y0059534D03*
X0244453Y0064259D03*
X0244453Y0068983D03*
X0244453Y0073707D03*
X0244453Y0078432D03*
X0244453Y0083156D03*
X0244453Y0087881D03*
X0244453Y0092605D03*
X0244453Y0097329D03*
X0244453Y0102054D03*
X0244453Y0106778D03*
X0244453Y0111503D03*
D14*
X0247209Y0118550D03*
X0253902Y0118589D03*
X0258626Y0118589D03*
X0263350Y0118589D03*
X0268075Y0118589D03*
X0272799Y0118589D03*
X0277524Y0118589D03*
X0282248Y0118589D03*
X0286972Y0118589D03*
X0293665Y0118589D03*
D15*
X0283748Y0039137D02*
X0283748Y0036625D01*
X0283748Y0039137D02*
X0284686Y0039137D01*
X0284686Y0036625D01*
X0283748Y0036625D01*
X0278236Y0036625D02*
X0278236Y0039137D01*
X0279174Y0039137D01*
X0279174Y0036625D01*
X0278236Y0036625D01*
X0272724Y0036625D02*
X0272724Y0039137D01*
X0273662Y0039137D01*
X0273662Y0036625D01*
X0272724Y0036625D01*
X0267212Y0036625D02*
X0267212Y0039137D01*
X0268150Y0039137D01*
X0268150Y0036625D01*
X0267212Y0036625D01*
X0261700Y0036625D02*
X0261700Y0039137D01*
X0262638Y0039137D01*
X0262638Y0036625D01*
X0261700Y0036625D01*
X0256188Y0036625D02*
X0256188Y0039137D01*
X0257126Y0039137D01*
X0257126Y0036625D01*
X0256188Y0036625D01*
D16*
X0313075Y0029062D03*
X0365043Y0025518D03*
D17*
X0342996Y0080636D03*
X0319374Y0080636D03*
D18*
X0320949Y0040479D03*
X0316618Y0040479D03*
X0325280Y0038904D03*
X0329610Y0040479D03*
X0333941Y0038904D03*
X0338272Y0040479D03*
X0342602Y0042054D03*
X0346933Y0040479D03*
D19*
X0046224Y0237526D03*
X0046224Y0239495D03*
X0046224Y0241463D03*
X0046224Y0243432D03*
X0046224Y0245400D03*
X0046224Y0247369D03*
X0046224Y0249337D03*
X0046224Y0251306D03*
X0046224Y0253274D03*
X0046224Y0255243D03*
X0046224Y0257211D03*
X0046224Y0259180D03*
X0046224Y0261148D03*
X0046224Y0263117D03*
X0046224Y0265085D03*
X0046224Y0267054D03*
X0046224Y0269022D03*
X0046224Y0270991D03*
X0046224Y0272959D03*
D20*
X0043232Y0283786D03*
X0043232Y0226699D03*
D21*
X0019768Y0226699D03*
X0019768Y0283786D03*
D22*
X0109090Y0285243D03*
X0111590Y0285243D03*
X0114190Y0285243D03*
X0116790Y0285243D03*
X0119290Y0285243D03*
X0121890Y0285243D03*
X0124390Y0285243D03*
X0126990Y0285243D03*
X0129590Y0285243D03*
X0132090Y0285243D03*
X0134690Y0285243D03*
X0137190Y0285243D03*
X0139790Y0285243D03*
X0142390Y0285243D03*
X0144890Y0285243D03*
X0147490Y0285243D03*
X0149990Y0285243D03*
X0152590Y0285243D03*
X0155190Y0285243D03*
X0157690Y0285243D03*
X0157690Y0225243D03*
X0155190Y0225243D03*
X0152590Y0225243D03*
X0149990Y0225243D03*
X0147490Y0225243D03*
X0144890Y0225243D03*
X0142390Y0225243D03*
X0139790Y0225243D03*
X0137190Y0225243D03*
X0134690Y0225243D03*
X0132090Y0225243D03*
X0129590Y0225243D03*
X0126990Y0225243D03*
X0124390Y0225243D03*
X0121890Y0225243D03*
X0119290Y0225243D03*
X0116790Y0225243D03*
X0114190Y0225243D03*
X0111590Y0225243D03*
X0109090Y0225243D03*
D23*
X0103390Y0230943D03*
X0103390Y0233443D03*
X0103390Y0236043D03*
X0103390Y0238643D03*
X0103390Y0241143D03*
X0103390Y0243743D03*
X0103390Y0246243D03*
X0103390Y0248843D03*
X0103390Y0251443D03*
X0103390Y0253943D03*
X0103390Y0256543D03*
X0103390Y0259043D03*
X0103390Y0261643D03*
X0103390Y0264243D03*
X0103390Y0266743D03*
X0103390Y0269343D03*
X0103390Y0271843D03*
X0103390Y0274443D03*
X0103390Y0277043D03*
X0103390Y0279543D03*
X0163390Y0279543D03*
X0163390Y0277043D03*
X0163390Y0274443D03*
X0163390Y0271843D03*
X0163390Y0269343D03*
X0163390Y0266743D03*
X0163390Y0264243D03*
X0163390Y0261643D03*
X0163390Y0259043D03*
X0163390Y0256543D03*
X0163390Y0253943D03*
X0163390Y0251443D03*
X0163390Y0248843D03*
X0163390Y0246243D03*
X0163390Y0243743D03*
X0163390Y0241143D03*
X0163390Y0238643D03*
X0163390Y0236043D03*
X0163390Y0233443D03*
X0163390Y0230943D03*
D24*
X0316303Y0231266D03*
X0316303Y0228117D03*
X0316303Y0224967D03*
X0316303Y0221818D03*
X0316303Y0218668D03*
X0316303Y0215518D03*
X0316303Y0212369D03*
X0316303Y0209219D03*
X0316303Y0206070D03*
X0316303Y0202920D03*
X0316303Y0199770D03*
X0316303Y0196621D03*
X0316303Y0193471D03*
X0316303Y0190321D03*
X0316303Y0187172D03*
X0316303Y0184022D03*
X0316303Y0180873D03*
X0316303Y0177723D03*
X0316303Y0174573D03*
X0316303Y0171424D03*
X0316303Y0168274D03*
X0316303Y0165125D03*
X0316303Y0161975D03*
X0316303Y0158825D03*
X0316303Y0155676D03*
X0316303Y0152526D03*
X0316303Y0149377D03*
X0361028Y0149377D03*
X0361028Y0152526D03*
X0361028Y0155676D03*
X0361028Y0158825D03*
X0361028Y0161975D03*
X0361028Y0165125D03*
X0361028Y0168274D03*
X0361028Y0171424D03*
X0361028Y0174573D03*
X0361028Y0177723D03*
X0361028Y0180873D03*
X0361028Y0184022D03*
X0361028Y0187172D03*
X0361028Y0190321D03*
X0361028Y0193471D03*
X0361028Y0196621D03*
X0361028Y0199770D03*
X0361028Y0202920D03*
X0361028Y0206070D03*
X0361028Y0209219D03*
X0361028Y0212369D03*
X0361028Y0215518D03*
X0361028Y0218668D03*
X0361028Y0221818D03*
X0361028Y0224967D03*
X0361028Y0228117D03*
X0361028Y0231266D03*
D25*
X0266710Y0204450D02*
X0262468Y0200208D01*
X0261337Y0201339D02*
X0265579Y0205581D01*
X0264518Y0206642D02*
X0260276Y0202400D01*
X0259145Y0203531D02*
X0263387Y0207773D01*
X0262255Y0208905D02*
X0258013Y0204663D01*
X0256882Y0205794D02*
X0261124Y0210036D01*
X0260063Y0211097D02*
X0255821Y0206855D01*
X0254690Y0207986D02*
X0258932Y0212228D01*
X0257800Y0213359D02*
X0253558Y0209117D01*
X0252427Y0210249D02*
X0256669Y0214491D01*
X0255608Y0215551D02*
X0251366Y0211309D01*
X0250235Y0212441D02*
X0254477Y0216683D01*
X0253346Y0217814D02*
X0249104Y0213572D01*
X0247972Y0214704D02*
X0252214Y0218946D01*
X0251154Y0220006D02*
X0246912Y0215764D01*
X0245780Y0216896D02*
X0250022Y0221138D01*
X0248891Y0222269D02*
X0244649Y0218027D01*
X0243517Y0219158D02*
X0247759Y0223400D01*
X0246699Y0224461D02*
X0242457Y0220219D01*
X0241325Y0221350D02*
X0245567Y0225592D01*
X0244436Y0226724D02*
X0240194Y0222482D01*
X0239063Y0223613D02*
X0243305Y0227855D01*
X0242244Y0228916D02*
X0238002Y0224674D01*
X0236871Y0225805D02*
X0241113Y0230047D01*
X0239981Y0231178D02*
X0235739Y0226936D01*
X0234608Y0228068D02*
X0238850Y0232310D01*
X0237789Y0233371D02*
X0233547Y0229129D01*
X0232416Y0230260D02*
X0236658Y0234502D01*
X0235527Y0235633D02*
X0231285Y0231391D01*
X0230153Y0232523D02*
X0234395Y0236765D01*
X0233335Y0237825D02*
X0229093Y0233583D01*
X0227961Y0234715D02*
X0232203Y0238957D01*
X0224566Y0234715D02*
X0220324Y0238957D01*
X0219193Y0237825D02*
X0223435Y0233583D01*
X0222374Y0232523D02*
X0218132Y0236765D01*
X0217001Y0235633D02*
X0221243Y0231391D01*
X0220112Y0230260D02*
X0215870Y0234502D01*
X0214738Y0233371D02*
X0218980Y0229129D01*
X0217920Y0228068D02*
X0213678Y0232310D01*
X0212546Y0231178D02*
X0216788Y0226936D01*
X0215657Y0225805D02*
X0211415Y0230047D01*
X0210283Y0228916D02*
X0214525Y0224674D01*
X0213465Y0223613D02*
X0209223Y0227855D01*
X0208091Y0226724D02*
X0212333Y0222482D01*
X0211202Y0221350D02*
X0206960Y0225592D01*
X0205829Y0224461D02*
X0210071Y0220219D01*
X0209010Y0219158D02*
X0204768Y0223400D01*
X0203637Y0222269D02*
X0207879Y0218027D01*
X0206747Y0216896D02*
X0202505Y0221138D01*
X0201374Y0220006D02*
X0205616Y0215764D01*
X0204555Y0214704D02*
X0200313Y0218946D01*
X0199182Y0217814D02*
X0203424Y0213572D01*
X0202293Y0212441D02*
X0198051Y0216683D01*
X0196919Y0215551D02*
X0201161Y0211309D01*
X0200101Y0210249D02*
X0195859Y0214491D01*
X0194727Y0213359D02*
X0198969Y0209117D01*
X0197838Y0207986D02*
X0193596Y0212228D01*
X0192464Y0211097D02*
X0196706Y0206855D01*
X0195646Y0205794D02*
X0191404Y0210036D01*
X0190272Y0208905D02*
X0194514Y0204663D01*
X0193383Y0203531D02*
X0189141Y0207773D01*
X0188010Y0206642D02*
X0192252Y0202400D01*
X0191191Y0201339D02*
X0186949Y0205581D01*
X0185818Y0204450D02*
X0190060Y0200208D01*
X0190060Y0196813D02*
X0185818Y0192571D01*
X0186949Y0191440D02*
X0191191Y0195682D01*
X0192252Y0194621D02*
X0188010Y0190379D01*
X0189141Y0189248D02*
X0193383Y0193490D01*
X0194514Y0192358D02*
X0190272Y0188116D01*
X0191404Y0186985D02*
X0195646Y0191227D01*
X0196706Y0190166D02*
X0192464Y0185924D01*
X0193596Y0184793D02*
X0197838Y0189035D01*
X0198969Y0187904D02*
X0194727Y0183662D01*
X0195859Y0182530D02*
X0200101Y0186772D01*
X0201161Y0185712D02*
X0196919Y0181470D01*
X0198051Y0180338D02*
X0202293Y0184580D01*
X0203424Y0183449D02*
X0199182Y0179207D01*
X0200313Y0178075D02*
X0204555Y0182317D01*
X0205616Y0181257D02*
X0201374Y0177015D01*
X0202505Y0175883D02*
X0206747Y0180125D01*
X0207879Y0178994D02*
X0203637Y0174752D01*
X0204768Y0173621D02*
X0209010Y0177863D01*
X0210071Y0176802D02*
X0205829Y0172560D01*
X0206960Y0171429D02*
X0211202Y0175671D01*
X0212333Y0174539D02*
X0208091Y0170297D01*
X0209223Y0169166D02*
X0213465Y0173408D01*
X0214525Y0172347D02*
X0210283Y0168105D01*
X0211415Y0166974D02*
X0215657Y0171216D01*
X0216788Y0170084D02*
X0212546Y0165842D01*
X0213678Y0164711D02*
X0217920Y0168953D01*
X0218980Y0167892D02*
X0214738Y0163650D01*
X0215870Y0162519D02*
X0220112Y0166761D01*
X0221243Y0165630D02*
X0217001Y0161388D01*
X0218132Y0160256D02*
X0222374Y0164498D01*
X0223435Y0163438D02*
X0219193Y0159196D01*
X0220324Y0158064D02*
X0224566Y0162306D01*
X0227961Y0162306D02*
X0232203Y0158064D01*
X0233335Y0159196D02*
X0229093Y0163438D01*
X0230153Y0164498D02*
X0234395Y0160256D01*
X0235527Y0161388D02*
X0231285Y0165630D01*
X0232416Y0166761D02*
X0236658Y0162519D01*
X0237789Y0163650D02*
X0233547Y0167892D01*
X0234608Y0168953D02*
X0238850Y0164711D01*
X0239981Y0165842D02*
X0235739Y0170084D01*
X0236871Y0171216D02*
X0241113Y0166974D01*
X0242244Y0168105D02*
X0238002Y0172347D01*
X0239063Y0173408D02*
X0243305Y0169166D01*
X0244436Y0170297D02*
X0240194Y0174539D01*
X0241325Y0175671D02*
X0245567Y0171429D01*
X0246699Y0172560D02*
X0242457Y0176802D01*
X0243517Y0177863D02*
X0247759Y0173621D01*
X0248891Y0174752D02*
X0244649Y0178994D01*
X0245780Y0180125D02*
X0250022Y0175883D01*
X0251154Y0177015D02*
X0246912Y0181257D01*
X0247972Y0182317D02*
X0252214Y0178075D01*
X0253346Y0179207D02*
X0249104Y0183449D01*
X0250235Y0184580D02*
X0254477Y0180338D01*
X0255608Y0181470D02*
X0251366Y0185712D01*
X0252427Y0186772D02*
X0256669Y0182530D01*
X0257800Y0183662D02*
X0253558Y0187904D01*
X0254690Y0189035D02*
X0258932Y0184793D01*
X0260063Y0185924D02*
X0255821Y0190166D01*
X0256882Y0191227D02*
X0261124Y0186985D01*
X0262255Y0188116D02*
X0258013Y0192358D01*
X0259145Y0193490D02*
X0263387Y0189248D01*
X0264518Y0190379D02*
X0260276Y0194621D01*
X0261337Y0195682D02*
X0265579Y0191440D01*
X0266710Y0192571D02*
X0262468Y0196813D01*
D26*
X0203626Y0038570D03*
X0201067Y0038570D03*
X0198508Y0038570D03*
X0195949Y0038570D03*
X0193390Y0038570D03*
D27*
X0193783Y0028038D03*
X0203232Y0028038D03*
D28*
X0214059Y0028038D03*
X0182957Y0028038D03*
D29*
X0186303Y0038077D03*
X0210713Y0038077D03*
D30*
X0210240Y0293510D03*
X0205240Y0293510D03*
X0200240Y0293510D03*
X0195240Y0293510D03*
X0215240Y0293510D03*
X0215240Y0316739D03*
X0210240Y0316739D03*
X0205240Y0316739D03*
X0200240Y0316739D03*
X0195240Y0316739D03*
D31*
X0033843Y0317014D02*
X0023803Y0317014D01*
X0023803Y0332605D02*
X0033843Y0332605D01*
X0032661Y0044180D02*
X0022622Y0044180D01*
X0022622Y0028589D02*
X0032661Y0028589D01*
X0143705Y0034003D02*
X0143705Y0044042D01*
X0159295Y0044042D02*
X0159295Y0034003D01*
X0369945Y0302684D02*
X0379984Y0302684D01*
X0379984Y0318274D02*
X0369945Y0318274D01*
D32*
X0331539Y0240085D03*
X0324846Y0240085D03*
G36*
X0272192Y0242837D02*
X0275677Y0239352D01*
X0272470Y0236145D01*
X0268985Y0239630D01*
X0272192Y0242837D01*
G37*
G36*
X0267459Y0247569D02*
X0270944Y0244084D01*
X0267737Y0240877D01*
X0264252Y0244362D01*
X0267459Y0247569D01*
G37*
G36*
X0263215Y0251577D02*
X0266700Y0248092D01*
X0263493Y0244885D01*
X0260008Y0248370D01*
X0263215Y0251577D01*
G37*
G36*
X0258483Y0256309D02*
X0261968Y0252824D01*
X0258761Y0249617D01*
X0255276Y0253102D01*
X0258483Y0256309D01*
G37*
G36*
X0249732Y0254283D02*
X0246247Y0250798D01*
X0243040Y0254005D01*
X0246525Y0257490D01*
X0249732Y0254283D01*
G37*
G36*
X0244999Y0249551D02*
X0241514Y0246066D01*
X0238307Y0249273D01*
X0241792Y0252758D01*
X0244999Y0249551D01*
G37*
X0137957Y0187605D03*
X0131264Y0187605D03*
X0132760Y0175046D03*
X0139453Y0175046D03*
X0140319Y0161975D03*
X0133626Y0161975D03*
X0134413Y0150518D03*
X0141106Y0150518D03*
X0113862Y0153353D03*
X0107169Y0153353D03*
X0107051Y0143432D03*
X0113744Y0143432D03*
X0114059Y0163510D03*
X0107366Y0163510D03*
X0107366Y0173668D03*
X0114059Y0173668D03*
X0113862Y0183629D03*
X0107169Y0183629D03*
X0107209Y0193550D03*
X0113902Y0193550D03*
X0122996Y0201070D03*
X0129689Y0201070D03*
X0114138Y0203786D03*
X0107445Y0203786D03*
X0066067Y0173077D03*
X0059374Y0173077D03*
X0050319Y0169455D03*
X0043626Y0169455D03*
X0074768Y0162802D03*
X0081461Y0162802D03*
X0129650Y0089416D03*
X0136343Y0089416D03*
X0146579Y0089416D03*
X0153272Y0089416D03*
X0210280Y0119810D03*
X0216972Y0119810D03*
X0217839Y0064613D03*
X0211146Y0064613D03*
X0295713Y0140400D03*
X0302406Y0140400D03*
D33*
X0224295Y0106699D03*
X0206185Y0106699D03*
D34*
X0354054Y0110206D03*
X0354054Y0092406D03*
X0379654Y0092406D03*
X0379654Y0110206D03*
D35*
X0063115Y0183510D03*
X0063115Y0187251D03*
X0063115Y0190991D03*
X0052878Y0190991D03*
X0052878Y0183510D03*
D36*
X0089846Y0176818D03*
X0089846Y0170125D03*
X0177091Y0111660D03*
X0177091Y0104967D03*
X0209768Y0088432D03*
X0209768Y0081739D03*
X0223547Y0081739D03*
X0223547Y0075046D03*
X0114098Y0064810D03*
X0114098Y0058117D03*
X0064886Y0039613D03*
X0064886Y0032920D03*
X0088272Y0273629D03*
X0088272Y0280321D03*
D37*
X0086854Y0334298D03*
X0080949Y0334298D03*
X0075043Y0334298D03*
X0069138Y0334298D03*
D38*
G36*
X0243381Y0241943D02*
X0250620Y0248909D01*
X0256495Y0242803D01*
X0249256Y0235837D01*
X0243381Y0241943D01*
G37*
G36*
X0254300Y0230596D02*
X0261539Y0237562D01*
X0267414Y0231456D01*
X0260175Y0224490D01*
X0254300Y0230596D01*
G37*
D39*
X0075844Y0201241D02*
X0072668Y0201241D01*
X0072668Y0204417D01*
X0075844Y0204417D01*
X0075844Y0201241D01*
X0075844Y0202601D02*
X0072668Y0202601D01*
X0072668Y0203961D02*
X0075844Y0203961D01*
X0075844Y0194336D02*
X0072668Y0194336D01*
X0072668Y0197512D01*
X0075844Y0197512D01*
X0075844Y0194336D01*
X0075844Y0195696D02*
X0072668Y0195696D01*
X0072668Y0197056D02*
X0075844Y0197056D01*
D40*
X0158193Y0131759D03*
X0158193Y0129199D03*
X0158193Y0126640D03*
X0158193Y0124081D03*
X0175909Y0124081D03*
X0175909Y0126640D03*
X0175909Y0129199D03*
X0175909Y0131759D03*
D41*
X0251579Y0298589D03*
X0259453Y0298589D03*
X0267327Y0298589D03*
X0275201Y0298589D03*
X0283075Y0298589D03*
X0290949Y0298589D03*
X0298823Y0298589D03*
X0306697Y0298589D03*
X0314571Y0298589D03*
X0322445Y0298589D03*
X0322445Y0306463D03*
X0314571Y0306463D03*
X0306697Y0306463D03*
X0298823Y0306463D03*
X0290949Y0306463D03*
X0283075Y0306463D03*
X0275201Y0306463D03*
X0267327Y0306463D03*
X0259453Y0306463D03*
X0251579Y0306463D03*
D42*
X0247012Y0320558D03*
X0258035Y0320558D03*
D43*
X0038553Y0204372D03*
X0029453Y0204372D03*
X0020353Y0204372D03*
D44*
X0029453Y0179971D03*
D45*
X0013980Y0129416D03*
X0013980Y0104455D03*
X0089020Y0091936D03*
X0089020Y0129416D03*
D46*
X0126697Y0122487D03*
X0126697Y0104377D03*
X0144807Y0113038D03*
X0144807Y0131148D03*
D47*
X0089256Y0056869D03*
X0079256Y0056869D03*
X0069256Y0056869D03*
X0024256Y0056869D03*
X0014256Y0056869D03*
D48*
X0117209Y0332133D02*
X0117209Y0338038D01*
X0127209Y0338038D02*
X0127209Y0332133D01*
X0137209Y0332133D02*
X0137209Y0338038D01*
X0147209Y0338038D02*
X0147209Y0332133D01*
D49*
X0161343Y0297290D03*
X0165673Y0288235D03*
X0170791Y0283117D03*
X0192051Y0267369D03*
X0199531Y0259495D03*
X0207012Y0265007D03*
X0201106Y0274062D03*
X0219610Y0275243D03*
X0236972Y0292329D03*
X0251894Y0262644D03*
X0259374Y0261463D03*
X0253469Y0255164D03*
X0240870Y0242172D03*
X0231028Y0246503D03*
X0226303Y0242566D03*
X0225122Y0251621D03*
X0247169Y0231148D03*
X0255831Y0220715D03*
X0245594Y0211857D03*
X0241539Y0209495D03*
X0232484Y0210676D03*
X0229846Y0214219D03*
X0225122Y0222487D03*
X0229846Y0227605D03*
X0218429Y0220912D03*
X0213705Y0211857D03*
X0207209Y0207881D03*
X0203705Y0203825D03*
X0199020Y0201896D03*
X0197169Y0195321D03*
X0192051Y0180755D03*
X0185791Y0161070D03*
X0181421Y0163038D03*
X0174728Y0150440D03*
X0153075Y0155951D03*
X0134965Y0139810D03*
X0119020Y0131936D03*
X0107012Y0134298D03*
X0098350Y0145912D03*
X0076303Y0139810D03*
X0066461Y0130755D03*
X0069217Y0124849D03*
X0075516Y0120518D03*
X0102091Y0113865D03*
X0102996Y0121227D03*
X0104256Y0104377D03*
X0115673Y0097684D03*
X0117248Y0089022D03*
X0112130Y0084298D03*
X0079138Y0093235D03*
X0043272Y0073865D03*
X0042209Y0066896D03*
X0013311Y0114219D03*
X0035358Y0132723D03*
X0023154Y0142959D03*
X0017642Y0141778D03*
X0033783Y0168550D03*
X0068823Y0179967D03*
X0077091Y0170912D03*
X0098744Y0168944D03*
X0097169Y0187054D03*
X0083390Y0192172D03*
X0086539Y0208707D03*
X0099492Y0208314D03*
X0114098Y0217369D03*
X0119689Y0212133D03*
X0104728Y0222211D03*
X0111343Y0233904D03*
X0118035Y0236266D03*
X0127484Y0236660D03*
X0117248Y0255755D03*
X0112130Y0263432D03*
X0114098Y0269337D03*
X0111343Y0279180D03*
X0128665Y0277211D03*
X0135752Y0274062D03*
X0153902Y0240597D03*
X0176224Y0213274D03*
X0171579Y0201621D03*
X0213705Y0180755D03*
X0216067Y0176030D03*
X0225516Y0178786D03*
X0227484Y0184692D03*
X0235358Y0183117D03*
X0239689Y0181936D03*
X0244413Y0187054D03*
X0248744Y0192172D03*
X0255437Y0196503D03*
X0268035Y0209495D03*
X0281028Y0198865D03*
X0285358Y0203983D03*
X0289413Y0210125D03*
X0300319Y0207133D03*
X0302917Y0211818D03*
X0308193Y0206345D03*
X0299413Y0200794D03*
X0298744Y0194928D03*
X0296382Y0187447D03*
X0291657Y0181542D03*
X0297957Y0179967D03*
X0304177Y0175755D03*
X0300713Y0172881D03*
X0310161Y0171306D03*
X0309768Y0165794D03*
X0307406Y0152408D03*
X0299531Y0153196D03*
X0295988Y0157133D03*
X0273154Y0160676D03*
X0268823Y0162408D03*
X0263902Y0162881D03*
X0265083Y0168865D03*
X0265004Y0174337D03*
X0262248Y0181266D03*
X0267287Y0181463D03*
X0272366Y0186266D03*
X0270791Y0190991D03*
X0279059Y0180755D03*
X0275909Y0176424D03*
X0258311Y0176070D03*
X0256303Y0172093D03*
X0250358Y0168904D03*
X0253547Y0165755D03*
X0245988Y0164219D03*
X0248350Y0155951D03*
X0244020Y0153077D03*
X0237681Y0154377D03*
X0229453Y0153983D03*
X0231894Y0146621D03*
X0222248Y0147762D03*
X0216815Y0149849D03*
X0213311Y0157133D03*
X0203862Y0162251D03*
X0201815Y0153589D03*
X0203272Y0145794D03*
X0208193Y0143353D03*
X0184886Y0126818D03*
X0156618Y0117369D03*
X0153075Y0079967D03*
X0172760Y0053983D03*
X0188508Y0054377D03*
X0194413Y0046896D03*
X0202287Y0054770D03*
X0173941Y0024455D03*
X0126697Y0046503D03*
X0116854Y0046503D03*
X0096776Y0046503D03*
X0122760Y0022093D03*
X0232602Y0106739D03*
X0253862Y0105833D03*
X0263705Y0124062D03*
X0277091Y0125243D03*
X0279531Y0109259D03*
X0283783Y0104377D03*
X0284571Y0096896D03*
X0284571Y0090203D03*
X0281028Y0084298D03*
X0302681Y0086660D03*
X0315673Y0071306D03*
X0322760Y0061463D03*
X0329453Y0053589D03*
X0334492Y0050046D03*
X0327484Y0026424D03*
X0349925Y0025636D03*
X0344138Y0108038D03*
X0305831Y0120125D03*
X0305437Y0133117D03*
X0325516Y0155164D03*
X0327484Y0168550D03*
X0325949Y0173707D03*
X0321972Y0181148D03*
X0329059Y0184298D03*
X0341657Y0192172D03*
X0340476Y0201227D03*
X0330634Y0203196D03*
X0322366Y0196896D03*
X0311736Y0187447D03*
X0310949Y0181542D03*
X0346382Y0171306D03*
X0349531Y0177605D03*
X0351894Y0186660D03*
X0351894Y0193747D03*
X0353469Y0203196D03*
X0367642Y0206345D03*
X0374335Y0201227D03*
X0368823Y0196896D03*
X0373941Y0194534D03*
X0374728Y0189810D03*
X0373547Y0181936D03*
X0373547Y0177211D03*
X0367642Y0177605D03*
X0367642Y0166188D03*
X0374728Y0158314D03*
X0367642Y0152408D03*
X0380240Y0161857D03*
X0386933Y0178392D03*
X0383390Y0181148D03*
X0393626Y0179180D03*
X0390476Y0209888D03*
X0383390Y0238235D03*
X0377878Y0238235D03*
X0371185Y0237841D03*
X0364492Y0236660D03*
X0352681Y0228392D03*
X0336933Y0220125D03*
X0332209Y0216975D03*
X0311343Y0215007D03*
X0308980Y0219731D03*
X0316461Y0236660D03*
X0319610Y0245321D03*
X0311736Y0248865D03*
X0309374Y0242566D03*
X0298744Y0241384D03*
X0290476Y0237054D03*
X0287327Y0251227D03*
X0295201Y0259101D03*
X0303075Y0264219D03*
X0310161Y0266581D03*
X0324728Y0255164D03*
X0332209Y0253589D03*
X0340083Y0250440D03*
X0346382Y0250046D03*
X0351894Y0248865D03*
X0365280Y0263825D03*
X0374965Y0270912D03*
X0397169Y0270912D03*
X0339689Y0275243D03*
X0331421Y0287054D03*
X0294807Y0329573D03*
X0282209Y0286896D03*
X0281421Y0268550D03*
X0282209Y0221306D03*
X0232602Y0198865D03*
X0231146Y0205833D03*
X0273547Y0145321D03*
X0347957Y0149259D03*
X0353469Y0163432D03*
X0258980Y0050833D03*
X0121579Y0174455D03*
X0120791Y0181542D03*
X0072366Y0149652D03*
X0056618Y0208629D03*
X0054059Y0216975D03*
X0024728Y0253589D03*
X0026303Y0263825D03*
X0057012Y0263432D03*
X0060161Y0268156D03*
X0081028Y0292959D03*
X0070791Y0311857D03*
X0088114Y0312251D03*
X0053862Y0318156D03*
X0189295Y0315400D03*
X0375516Y0329573D03*
D50*
X0329453Y0249259D03*
X0301618Y0216818D03*
X0289610Y0229377D03*
X0264492Y0258707D03*
X0255437Y0237447D03*
X0230043Y0219101D03*
X0221894Y0212408D03*
X0213783Y0203904D03*
X0209374Y0189888D03*
X0203075Y0189810D03*
X0208587Y0184298D03*
X0221579Y0189416D03*
X0232602Y0174455D03*
X0196776Y0144928D03*
X0194807Y0135085D03*
X0180240Y0136266D03*
X0158193Y0104770D03*
X0104650Y0054770D03*
X0114886Y0039022D03*
X0053075Y0059888D03*
X0082209Y0102802D03*
X0223154Y0121699D03*
X0291539Y0133550D03*
X0299531Y0147290D03*
X0322760Y0120125D03*
X0310634Y0109337D03*
X0303075Y0075636D03*
X0304650Y0045715D03*
X0276303Y0045715D03*
X0254256Y0059495D03*
X0355280Y0197211D03*
M02*
