G75*
%MOIN*%
%OFA0B0*%
%FSLAX25Y25*%
%IPPOS*%
%LPD*%
%AMOC8*
5,1,8,0,0,1.08239X$1,22.5*
%
%ADD10C,0.00000*%
%ADD11C,0.02200*%
%ADD12C,0.00100*%
%ADD13R,0.03000X0.01800*%
%ADD14R,0.01800X0.03000*%
%ADD15C,0.00039*%
%ADD16C,0.00500*%
%ADD17C,0.00295*%
%ADD18C,0.00400*%
D10*
X0001500Y0017369D02*
X0001500Y0361369D01*
X0411500Y0361369D01*
X0411500Y0017369D01*
X0001500Y0017369D01*
X0016422Y0226699D02*
X0016424Y0226814D01*
X0016430Y0226930D01*
X0016440Y0227045D01*
X0016454Y0227160D01*
X0016472Y0227274D01*
X0016494Y0227387D01*
X0016519Y0227500D01*
X0016549Y0227611D01*
X0016582Y0227722D01*
X0016619Y0227831D01*
X0016660Y0227939D01*
X0016705Y0228046D01*
X0016753Y0228151D01*
X0016805Y0228254D01*
X0016861Y0228355D01*
X0016920Y0228455D01*
X0016982Y0228552D01*
X0017048Y0228647D01*
X0017116Y0228740D01*
X0017188Y0228830D01*
X0017263Y0228918D01*
X0017342Y0229003D01*
X0017423Y0229085D01*
X0017506Y0229165D01*
X0017593Y0229241D01*
X0017682Y0229315D01*
X0017773Y0229385D01*
X0017867Y0229453D01*
X0017963Y0229517D01*
X0018062Y0229577D01*
X0018162Y0229634D01*
X0018264Y0229688D01*
X0018368Y0229738D01*
X0018474Y0229785D01*
X0018581Y0229828D01*
X0018690Y0229867D01*
X0018800Y0229902D01*
X0018911Y0229933D01*
X0019023Y0229961D01*
X0019136Y0229985D01*
X0019250Y0230005D01*
X0019365Y0230021D01*
X0019480Y0230033D01*
X0019595Y0230041D01*
X0019710Y0230045D01*
X0019826Y0230045D01*
X0019941Y0230041D01*
X0020056Y0230033D01*
X0020171Y0230021D01*
X0020286Y0230005D01*
X0020400Y0229985D01*
X0020513Y0229961D01*
X0020625Y0229933D01*
X0020736Y0229902D01*
X0020846Y0229867D01*
X0020955Y0229828D01*
X0021062Y0229785D01*
X0021168Y0229738D01*
X0021272Y0229688D01*
X0021374Y0229634D01*
X0021474Y0229577D01*
X0021573Y0229517D01*
X0021669Y0229453D01*
X0021763Y0229385D01*
X0021854Y0229315D01*
X0021943Y0229241D01*
X0022030Y0229165D01*
X0022113Y0229085D01*
X0022194Y0229003D01*
X0022273Y0228918D01*
X0022348Y0228830D01*
X0022420Y0228740D01*
X0022488Y0228647D01*
X0022554Y0228552D01*
X0022616Y0228455D01*
X0022675Y0228355D01*
X0022731Y0228254D01*
X0022783Y0228151D01*
X0022831Y0228046D01*
X0022876Y0227939D01*
X0022917Y0227831D01*
X0022954Y0227722D01*
X0022987Y0227611D01*
X0023017Y0227500D01*
X0023042Y0227387D01*
X0023064Y0227274D01*
X0023082Y0227160D01*
X0023096Y0227045D01*
X0023106Y0226930D01*
X0023112Y0226814D01*
X0023114Y0226699D01*
X0023112Y0226584D01*
X0023106Y0226468D01*
X0023096Y0226353D01*
X0023082Y0226238D01*
X0023064Y0226124D01*
X0023042Y0226011D01*
X0023017Y0225898D01*
X0022987Y0225787D01*
X0022954Y0225676D01*
X0022917Y0225567D01*
X0022876Y0225459D01*
X0022831Y0225352D01*
X0022783Y0225247D01*
X0022731Y0225144D01*
X0022675Y0225043D01*
X0022616Y0224943D01*
X0022554Y0224846D01*
X0022488Y0224751D01*
X0022420Y0224658D01*
X0022348Y0224568D01*
X0022273Y0224480D01*
X0022194Y0224395D01*
X0022113Y0224313D01*
X0022030Y0224233D01*
X0021943Y0224157D01*
X0021854Y0224083D01*
X0021763Y0224013D01*
X0021669Y0223945D01*
X0021573Y0223881D01*
X0021474Y0223821D01*
X0021374Y0223764D01*
X0021272Y0223710D01*
X0021168Y0223660D01*
X0021062Y0223613D01*
X0020955Y0223570D01*
X0020846Y0223531D01*
X0020736Y0223496D01*
X0020625Y0223465D01*
X0020513Y0223437D01*
X0020400Y0223413D01*
X0020286Y0223393D01*
X0020171Y0223377D01*
X0020056Y0223365D01*
X0019941Y0223357D01*
X0019826Y0223353D01*
X0019710Y0223353D01*
X0019595Y0223357D01*
X0019480Y0223365D01*
X0019365Y0223377D01*
X0019250Y0223393D01*
X0019136Y0223413D01*
X0019023Y0223437D01*
X0018911Y0223465D01*
X0018800Y0223496D01*
X0018690Y0223531D01*
X0018581Y0223570D01*
X0018474Y0223613D01*
X0018368Y0223660D01*
X0018264Y0223710D01*
X0018162Y0223764D01*
X0018062Y0223821D01*
X0017963Y0223881D01*
X0017867Y0223945D01*
X0017773Y0224013D01*
X0017682Y0224083D01*
X0017593Y0224157D01*
X0017506Y0224233D01*
X0017423Y0224313D01*
X0017342Y0224395D01*
X0017263Y0224480D01*
X0017188Y0224568D01*
X0017116Y0224658D01*
X0017048Y0224751D01*
X0016982Y0224846D01*
X0016920Y0224943D01*
X0016861Y0225043D01*
X0016805Y0225144D01*
X0016753Y0225247D01*
X0016705Y0225352D01*
X0016660Y0225459D01*
X0016619Y0225567D01*
X0016582Y0225676D01*
X0016549Y0225787D01*
X0016519Y0225898D01*
X0016494Y0226011D01*
X0016472Y0226124D01*
X0016454Y0226238D01*
X0016440Y0226353D01*
X0016430Y0226468D01*
X0016424Y0226584D01*
X0016422Y0226699D01*
X0037917Y0226699D02*
X0037919Y0226844D01*
X0037925Y0226989D01*
X0037935Y0227134D01*
X0037949Y0227279D01*
X0037967Y0227423D01*
X0037988Y0227566D01*
X0038014Y0227709D01*
X0038043Y0227851D01*
X0038077Y0227993D01*
X0038114Y0228133D01*
X0038155Y0228272D01*
X0038200Y0228410D01*
X0038249Y0228547D01*
X0038301Y0228683D01*
X0038357Y0228817D01*
X0038417Y0228949D01*
X0038480Y0229080D01*
X0038547Y0229208D01*
X0038617Y0229336D01*
X0038691Y0229461D01*
X0038768Y0229584D01*
X0038848Y0229704D01*
X0038932Y0229823D01*
X0039019Y0229939D01*
X0039109Y0230053D01*
X0039202Y0230165D01*
X0039298Y0230273D01*
X0039398Y0230379D01*
X0039499Y0230483D01*
X0039604Y0230583D01*
X0039712Y0230681D01*
X0039822Y0230776D01*
X0039934Y0230867D01*
X0040049Y0230956D01*
X0040167Y0231041D01*
X0040287Y0231123D01*
X0040409Y0231202D01*
X0040533Y0231278D01*
X0040659Y0231350D01*
X0040787Y0231418D01*
X0040917Y0231483D01*
X0041048Y0231545D01*
X0041181Y0231602D01*
X0041316Y0231657D01*
X0041452Y0231707D01*
X0041590Y0231754D01*
X0041728Y0231797D01*
X0041868Y0231836D01*
X0042009Y0231871D01*
X0042151Y0231903D01*
X0042293Y0231930D01*
X0042436Y0231954D01*
X0042580Y0231974D01*
X0042725Y0231990D01*
X0042869Y0232002D01*
X0043014Y0232010D01*
X0043159Y0232014D01*
X0043305Y0232014D01*
X0043450Y0232010D01*
X0043595Y0232002D01*
X0043739Y0231990D01*
X0043884Y0231974D01*
X0044028Y0231954D01*
X0044171Y0231930D01*
X0044313Y0231903D01*
X0044455Y0231871D01*
X0044596Y0231836D01*
X0044736Y0231797D01*
X0044874Y0231754D01*
X0045012Y0231707D01*
X0045148Y0231657D01*
X0045283Y0231602D01*
X0045416Y0231545D01*
X0045547Y0231483D01*
X0045677Y0231418D01*
X0045805Y0231350D01*
X0045931Y0231278D01*
X0046055Y0231202D01*
X0046177Y0231123D01*
X0046297Y0231041D01*
X0046415Y0230956D01*
X0046530Y0230867D01*
X0046642Y0230776D01*
X0046752Y0230681D01*
X0046860Y0230583D01*
X0046965Y0230483D01*
X0047066Y0230379D01*
X0047166Y0230273D01*
X0047262Y0230165D01*
X0047355Y0230053D01*
X0047445Y0229939D01*
X0047532Y0229823D01*
X0047616Y0229704D01*
X0047696Y0229584D01*
X0047773Y0229461D01*
X0047847Y0229336D01*
X0047917Y0229208D01*
X0047984Y0229080D01*
X0048047Y0228949D01*
X0048107Y0228817D01*
X0048163Y0228683D01*
X0048215Y0228547D01*
X0048264Y0228410D01*
X0048309Y0228272D01*
X0048350Y0228133D01*
X0048387Y0227993D01*
X0048421Y0227851D01*
X0048450Y0227709D01*
X0048476Y0227566D01*
X0048497Y0227423D01*
X0048515Y0227279D01*
X0048529Y0227134D01*
X0048539Y0226989D01*
X0048545Y0226844D01*
X0048547Y0226699D01*
X0048545Y0226554D01*
X0048539Y0226409D01*
X0048529Y0226264D01*
X0048515Y0226119D01*
X0048497Y0225975D01*
X0048476Y0225832D01*
X0048450Y0225689D01*
X0048421Y0225547D01*
X0048387Y0225405D01*
X0048350Y0225265D01*
X0048309Y0225126D01*
X0048264Y0224988D01*
X0048215Y0224851D01*
X0048163Y0224715D01*
X0048107Y0224581D01*
X0048047Y0224449D01*
X0047984Y0224318D01*
X0047917Y0224190D01*
X0047847Y0224062D01*
X0047773Y0223937D01*
X0047696Y0223814D01*
X0047616Y0223694D01*
X0047532Y0223575D01*
X0047445Y0223459D01*
X0047355Y0223345D01*
X0047262Y0223233D01*
X0047166Y0223125D01*
X0047066Y0223019D01*
X0046965Y0222915D01*
X0046860Y0222815D01*
X0046752Y0222717D01*
X0046642Y0222622D01*
X0046530Y0222531D01*
X0046415Y0222442D01*
X0046297Y0222357D01*
X0046177Y0222275D01*
X0046055Y0222196D01*
X0045931Y0222120D01*
X0045805Y0222048D01*
X0045677Y0221980D01*
X0045547Y0221915D01*
X0045416Y0221853D01*
X0045283Y0221796D01*
X0045148Y0221741D01*
X0045012Y0221691D01*
X0044874Y0221644D01*
X0044736Y0221601D01*
X0044596Y0221562D01*
X0044455Y0221527D01*
X0044313Y0221495D01*
X0044171Y0221468D01*
X0044028Y0221444D01*
X0043884Y0221424D01*
X0043739Y0221408D01*
X0043595Y0221396D01*
X0043450Y0221388D01*
X0043305Y0221384D01*
X0043159Y0221384D01*
X0043014Y0221388D01*
X0042869Y0221396D01*
X0042725Y0221408D01*
X0042580Y0221424D01*
X0042436Y0221444D01*
X0042293Y0221468D01*
X0042151Y0221495D01*
X0042009Y0221527D01*
X0041868Y0221562D01*
X0041728Y0221601D01*
X0041590Y0221644D01*
X0041452Y0221691D01*
X0041316Y0221741D01*
X0041181Y0221796D01*
X0041048Y0221853D01*
X0040917Y0221915D01*
X0040787Y0221980D01*
X0040659Y0222048D01*
X0040533Y0222120D01*
X0040409Y0222196D01*
X0040287Y0222275D01*
X0040167Y0222357D01*
X0040049Y0222442D01*
X0039934Y0222531D01*
X0039822Y0222622D01*
X0039712Y0222717D01*
X0039604Y0222815D01*
X0039499Y0222915D01*
X0039398Y0223019D01*
X0039298Y0223125D01*
X0039202Y0223233D01*
X0039109Y0223345D01*
X0039019Y0223459D01*
X0038932Y0223575D01*
X0038848Y0223694D01*
X0038768Y0223814D01*
X0038691Y0223937D01*
X0038617Y0224062D01*
X0038547Y0224190D01*
X0038480Y0224318D01*
X0038417Y0224449D01*
X0038357Y0224581D01*
X0038301Y0224715D01*
X0038249Y0224851D01*
X0038200Y0224988D01*
X0038155Y0225126D01*
X0038114Y0225265D01*
X0038077Y0225405D01*
X0038043Y0225547D01*
X0038014Y0225689D01*
X0037988Y0225832D01*
X0037967Y0225975D01*
X0037949Y0226119D01*
X0037935Y0226264D01*
X0037925Y0226409D01*
X0037919Y0226554D01*
X0037917Y0226699D01*
X0037917Y0283786D02*
X0037919Y0283931D01*
X0037925Y0284076D01*
X0037935Y0284221D01*
X0037949Y0284366D01*
X0037967Y0284510D01*
X0037988Y0284653D01*
X0038014Y0284796D01*
X0038043Y0284938D01*
X0038077Y0285080D01*
X0038114Y0285220D01*
X0038155Y0285359D01*
X0038200Y0285497D01*
X0038249Y0285634D01*
X0038301Y0285770D01*
X0038357Y0285904D01*
X0038417Y0286036D01*
X0038480Y0286167D01*
X0038547Y0286295D01*
X0038617Y0286423D01*
X0038691Y0286548D01*
X0038768Y0286671D01*
X0038848Y0286791D01*
X0038932Y0286910D01*
X0039019Y0287026D01*
X0039109Y0287140D01*
X0039202Y0287252D01*
X0039298Y0287360D01*
X0039398Y0287466D01*
X0039499Y0287570D01*
X0039604Y0287670D01*
X0039712Y0287768D01*
X0039822Y0287863D01*
X0039934Y0287954D01*
X0040049Y0288043D01*
X0040167Y0288128D01*
X0040287Y0288210D01*
X0040409Y0288289D01*
X0040533Y0288365D01*
X0040659Y0288437D01*
X0040787Y0288505D01*
X0040917Y0288570D01*
X0041048Y0288632D01*
X0041181Y0288689D01*
X0041316Y0288744D01*
X0041452Y0288794D01*
X0041590Y0288841D01*
X0041728Y0288884D01*
X0041868Y0288923D01*
X0042009Y0288958D01*
X0042151Y0288990D01*
X0042293Y0289017D01*
X0042436Y0289041D01*
X0042580Y0289061D01*
X0042725Y0289077D01*
X0042869Y0289089D01*
X0043014Y0289097D01*
X0043159Y0289101D01*
X0043305Y0289101D01*
X0043450Y0289097D01*
X0043595Y0289089D01*
X0043739Y0289077D01*
X0043884Y0289061D01*
X0044028Y0289041D01*
X0044171Y0289017D01*
X0044313Y0288990D01*
X0044455Y0288958D01*
X0044596Y0288923D01*
X0044736Y0288884D01*
X0044874Y0288841D01*
X0045012Y0288794D01*
X0045148Y0288744D01*
X0045283Y0288689D01*
X0045416Y0288632D01*
X0045547Y0288570D01*
X0045677Y0288505D01*
X0045805Y0288437D01*
X0045931Y0288365D01*
X0046055Y0288289D01*
X0046177Y0288210D01*
X0046297Y0288128D01*
X0046415Y0288043D01*
X0046530Y0287954D01*
X0046642Y0287863D01*
X0046752Y0287768D01*
X0046860Y0287670D01*
X0046965Y0287570D01*
X0047066Y0287466D01*
X0047166Y0287360D01*
X0047262Y0287252D01*
X0047355Y0287140D01*
X0047445Y0287026D01*
X0047532Y0286910D01*
X0047616Y0286791D01*
X0047696Y0286671D01*
X0047773Y0286548D01*
X0047847Y0286423D01*
X0047917Y0286295D01*
X0047984Y0286167D01*
X0048047Y0286036D01*
X0048107Y0285904D01*
X0048163Y0285770D01*
X0048215Y0285634D01*
X0048264Y0285497D01*
X0048309Y0285359D01*
X0048350Y0285220D01*
X0048387Y0285080D01*
X0048421Y0284938D01*
X0048450Y0284796D01*
X0048476Y0284653D01*
X0048497Y0284510D01*
X0048515Y0284366D01*
X0048529Y0284221D01*
X0048539Y0284076D01*
X0048545Y0283931D01*
X0048547Y0283786D01*
X0048545Y0283641D01*
X0048539Y0283496D01*
X0048529Y0283351D01*
X0048515Y0283206D01*
X0048497Y0283062D01*
X0048476Y0282919D01*
X0048450Y0282776D01*
X0048421Y0282634D01*
X0048387Y0282492D01*
X0048350Y0282352D01*
X0048309Y0282213D01*
X0048264Y0282075D01*
X0048215Y0281938D01*
X0048163Y0281802D01*
X0048107Y0281668D01*
X0048047Y0281536D01*
X0047984Y0281405D01*
X0047917Y0281277D01*
X0047847Y0281149D01*
X0047773Y0281024D01*
X0047696Y0280901D01*
X0047616Y0280781D01*
X0047532Y0280662D01*
X0047445Y0280546D01*
X0047355Y0280432D01*
X0047262Y0280320D01*
X0047166Y0280212D01*
X0047066Y0280106D01*
X0046965Y0280002D01*
X0046860Y0279902D01*
X0046752Y0279804D01*
X0046642Y0279709D01*
X0046530Y0279618D01*
X0046415Y0279529D01*
X0046297Y0279444D01*
X0046177Y0279362D01*
X0046055Y0279283D01*
X0045931Y0279207D01*
X0045805Y0279135D01*
X0045677Y0279067D01*
X0045547Y0279002D01*
X0045416Y0278940D01*
X0045283Y0278883D01*
X0045148Y0278828D01*
X0045012Y0278778D01*
X0044874Y0278731D01*
X0044736Y0278688D01*
X0044596Y0278649D01*
X0044455Y0278614D01*
X0044313Y0278582D01*
X0044171Y0278555D01*
X0044028Y0278531D01*
X0043884Y0278511D01*
X0043739Y0278495D01*
X0043595Y0278483D01*
X0043450Y0278475D01*
X0043305Y0278471D01*
X0043159Y0278471D01*
X0043014Y0278475D01*
X0042869Y0278483D01*
X0042725Y0278495D01*
X0042580Y0278511D01*
X0042436Y0278531D01*
X0042293Y0278555D01*
X0042151Y0278582D01*
X0042009Y0278614D01*
X0041868Y0278649D01*
X0041728Y0278688D01*
X0041590Y0278731D01*
X0041452Y0278778D01*
X0041316Y0278828D01*
X0041181Y0278883D01*
X0041048Y0278940D01*
X0040917Y0279002D01*
X0040787Y0279067D01*
X0040659Y0279135D01*
X0040533Y0279207D01*
X0040409Y0279283D01*
X0040287Y0279362D01*
X0040167Y0279444D01*
X0040049Y0279529D01*
X0039934Y0279618D01*
X0039822Y0279709D01*
X0039712Y0279804D01*
X0039604Y0279902D01*
X0039499Y0280002D01*
X0039398Y0280106D01*
X0039298Y0280212D01*
X0039202Y0280320D01*
X0039109Y0280432D01*
X0039019Y0280546D01*
X0038932Y0280662D01*
X0038848Y0280781D01*
X0038768Y0280901D01*
X0038691Y0281024D01*
X0038617Y0281149D01*
X0038547Y0281277D01*
X0038480Y0281405D01*
X0038417Y0281536D01*
X0038357Y0281668D01*
X0038301Y0281802D01*
X0038249Y0281938D01*
X0038200Y0282075D01*
X0038155Y0282213D01*
X0038114Y0282352D01*
X0038077Y0282492D01*
X0038043Y0282634D01*
X0038014Y0282776D01*
X0037988Y0282919D01*
X0037967Y0283062D01*
X0037949Y0283206D01*
X0037935Y0283351D01*
X0037925Y0283496D01*
X0037919Y0283641D01*
X0037917Y0283786D01*
X0016422Y0283786D02*
X0016424Y0283901D01*
X0016430Y0284017D01*
X0016440Y0284132D01*
X0016454Y0284247D01*
X0016472Y0284361D01*
X0016494Y0284474D01*
X0016519Y0284587D01*
X0016549Y0284698D01*
X0016582Y0284809D01*
X0016619Y0284918D01*
X0016660Y0285026D01*
X0016705Y0285133D01*
X0016753Y0285238D01*
X0016805Y0285341D01*
X0016861Y0285442D01*
X0016920Y0285542D01*
X0016982Y0285639D01*
X0017048Y0285734D01*
X0017116Y0285827D01*
X0017188Y0285917D01*
X0017263Y0286005D01*
X0017342Y0286090D01*
X0017423Y0286172D01*
X0017506Y0286252D01*
X0017593Y0286328D01*
X0017682Y0286402D01*
X0017773Y0286472D01*
X0017867Y0286540D01*
X0017963Y0286604D01*
X0018062Y0286664D01*
X0018162Y0286721D01*
X0018264Y0286775D01*
X0018368Y0286825D01*
X0018474Y0286872D01*
X0018581Y0286915D01*
X0018690Y0286954D01*
X0018800Y0286989D01*
X0018911Y0287020D01*
X0019023Y0287048D01*
X0019136Y0287072D01*
X0019250Y0287092D01*
X0019365Y0287108D01*
X0019480Y0287120D01*
X0019595Y0287128D01*
X0019710Y0287132D01*
X0019826Y0287132D01*
X0019941Y0287128D01*
X0020056Y0287120D01*
X0020171Y0287108D01*
X0020286Y0287092D01*
X0020400Y0287072D01*
X0020513Y0287048D01*
X0020625Y0287020D01*
X0020736Y0286989D01*
X0020846Y0286954D01*
X0020955Y0286915D01*
X0021062Y0286872D01*
X0021168Y0286825D01*
X0021272Y0286775D01*
X0021374Y0286721D01*
X0021474Y0286664D01*
X0021573Y0286604D01*
X0021669Y0286540D01*
X0021763Y0286472D01*
X0021854Y0286402D01*
X0021943Y0286328D01*
X0022030Y0286252D01*
X0022113Y0286172D01*
X0022194Y0286090D01*
X0022273Y0286005D01*
X0022348Y0285917D01*
X0022420Y0285827D01*
X0022488Y0285734D01*
X0022554Y0285639D01*
X0022616Y0285542D01*
X0022675Y0285442D01*
X0022731Y0285341D01*
X0022783Y0285238D01*
X0022831Y0285133D01*
X0022876Y0285026D01*
X0022917Y0284918D01*
X0022954Y0284809D01*
X0022987Y0284698D01*
X0023017Y0284587D01*
X0023042Y0284474D01*
X0023064Y0284361D01*
X0023082Y0284247D01*
X0023096Y0284132D01*
X0023106Y0284017D01*
X0023112Y0283901D01*
X0023114Y0283786D01*
X0023112Y0283671D01*
X0023106Y0283555D01*
X0023096Y0283440D01*
X0023082Y0283325D01*
X0023064Y0283211D01*
X0023042Y0283098D01*
X0023017Y0282985D01*
X0022987Y0282874D01*
X0022954Y0282763D01*
X0022917Y0282654D01*
X0022876Y0282546D01*
X0022831Y0282439D01*
X0022783Y0282334D01*
X0022731Y0282231D01*
X0022675Y0282130D01*
X0022616Y0282030D01*
X0022554Y0281933D01*
X0022488Y0281838D01*
X0022420Y0281745D01*
X0022348Y0281655D01*
X0022273Y0281567D01*
X0022194Y0281482D01*
X0022113Y0281400D01*
X0022030Y0281320D01*
X0021943Y0281244D01*
X0021854Y0281170D01*
X0021763Y0281100D01*
X0021669Y0281032D01*
X0021573Y0280968D01*
X0021474Y0280908D01*
X0021374Y0280851D01*
X0021272Y0280797D01*
X0021168Y0280747D01*
X0021062Y0280700D01*
X0020955Y0280657D01*
X0020846Y0280618D01*
X0020736Y0280583D01*
X0020625Y0280552D01*
X0020513Y0280524D01*
X0020400Y0280500D01*
X0020286Y0280480D01*
X0020171Y0280464D01*
X0020056Y0280452D01*
X0019941Y0280444D01*
X0019826Y0280440D01*
X0019710Y0280440D01*
X0019595Y0280444D01*
X0019480Y0280452D01*
X0019365Y0280464D01*
X0019250Y0280480D01*
X0019136Y0280500D01*
X0019023Y0280524D01*
X0018911Y0280552D01*
X0018800Y0280583D01*
X0018690Y0280618D01*
X0018581Y0280657D01*
X0018474Y0280700D01*
X0018368Y0280747D01*
X0018264Y0280797D01*
X0018162Y0280851D01*
X0018062Y0280908D01*
X0017963Y0280968D01*
X0017867Y0281032D01*
X0017773Y0281100D01*
X0017682Y0281170D01*
X0017593Y0281244D01*
X0017506Y0281320D01*
X0017423Y0281400D01*
X0017342Y0281482D01*
X0017263Y0281567D01*
X0017188Y0281655D01*
X0017116Y0281745D01*
X0017048Y0281838D01*
X0016982Y0281933D01*
X0016920Y0282030D01*
X0016861Y0282130D01*
X0016805Y0282231D01*
X0016753Y0282334D01*
X0016705Y0282439D01*
X0016660Y0282546D01*
X0016619Y0282654D01*
X0016582Y0282763D01*
X0016549Y0282874D01*
X0016519Y0282985D01*
X0016494Y0283098D01*
X0016472Y0283211D01*
X0016454Y0283325D01*
X0016440Y0283440D01*
X0016430Y0283555D01*
X0016424Y0283671D01*
X0016422Y0283786D01*
X0165250Y0347369D02*
X0165252Y0347527D01*
X0165258Y0347684D01*
X0165268Y0347842D01*
X0165282Y0347999D01*
X0165300Y0348155D01*
X0165321Y0348312D01*
X0165347Y0348467D01*
X0165377Y0348622D01*
X0165410Y0348776D01*
X0165448Y0348929D01*
X0165489Y0349082D01*
X0165534Y0349233D01*
X0165583Y0349383D01*
X0165636Y0349531D01*
X0165692Y0349679D01*
X0165753Y0349824D01*
X0165816Y0349969D01*
X0165884Y0350111D01*
X0165955Y0350252D01*
X0166029Y0350391D01*
X0166107Y0350528D01*
X0166189Y0350663D01*
X0166273Y0350796D01*
X0166362Y0350927D01*
X0166453Y0351055D01*
X0166548Y0351182D01*
X0166645Y0351305D01*
X0166746Y0351427D01*
X0166850Y0351545D01*
X0166957Y0351661D01*
X0167067Y0351774D01*
X0167179Y0351885D01*
X0167295Y0351992D01*
X0167413Y0352097D01*
X0167533Y0352199D01*
X0167656Y0352297D01*
X0167782Y0352393D01*
X0167910Y0352485D01*
X0168040Y0352574D01*
X0168172Y0352660D01*
X0168307Y0352742D01*
X0168444Y0352821D01*
X0168582Y0352896D01*
X0168722Y0352968D01*
X0168865Y0353036D01*
X0169008Y0353101D01*
X0169154Y0353162D01*
X0169301Y0353219D01*
X0169449Y0353273D01*
X0169599Y0353323D01*
X0169749Y0353369D01*
X0169901Y0353411D01*
X0170054Y0353450D01*
X0170208Y0353484D01*
X0170363Y0353515D01*
X0170518Y0353541D01*
X0170674Y0353564D01*
X0170831Y0353583D01*
X0170988Y0353598D01*
X0171145Y0353609D01*
X0171303Y0353616D01*
X0171461Y0353619D01*
X0171618Y0353618D01*
X0171776Y0353613D01*
X0171933Y0353604D01*
X0172091Y0353591D01*
X0172247Y0353574D01*
X0172404Y0353553D01*
X0172559Y0353529D01*
X0172714Y0353500D01*
X0172869Y0353467D01*
X0173022Y0353431D01*
X0173175Y0353390D01*
X0173326Y0353346D01*
X0173476Y0353298D01*
X0173625Y0353247D01*
X0173773Y0353191D01*
X0173919Y0353132D01*
X0174064Y0353069D01*
X0174207Y0353002D01*
X0174348Y0352932D01*
X0174487Y0352859D01*
X0174625Y0352782D01*
X0174761Y0352701D01*
X0174894Y0352617D01*
X0175025Y0352530D01*
X0175154Y0352439D01*
X0175281Y0352345D01*
X0175406Y0352248D01*
X0175527Y0352148D01*
X0175647Y0352045D01*
X0175763Y0351939D01*
X0175877Y0351830D01*
X0175989Y0351718D01*
X0176097Y0351604D01*
X0176202Y0351486D01*
X0176305Y0351366D01*
X0176404Y0351244D01*
X0176500Y0351119D01*
X0176593Y0350991D01*
X0176683Y0350862D01*
X0176769Y0350730D01*
X0176853Y0350596D01*
X0176932Y0350460D01*
X0177009Y0350322D01*
X0177081Y0350182D01*
X0177150Y0350040D01*
X0177216Y0349897D01*
X0177278Y0349752D01*
X0177336Y0349605D01*
X0177391Y0349457D01*
X0177442Y0349308D01*
X0177489Y0349157D01*
X0177532Y0349006D01*
X0177571Y0348853D01*
X0177607Y0348699D01*
X0177638Y0348545D01*
X0177666Y0348390D01*
X0177690Y0348234D01*
X0177710Y0348077D01*
X0177726Y0347920D01*
X0177738Y0347763D01*
X0177746Y0347606D01*
X0177750Y0347448D01*
X0177750Y0347290D01*
X0177746Y0347132D01*
X0177738Y0346975D01*
X0177726Y0346818D01*
X0177710Y0346661D01*
X0177690Y0346504D01*
X0177666Y0346348D01*
X0177638Y0346193D01*
X0177607Y0346039D01*
X0177571Y0345885D01*
X0177532Y0345732D01*
X0177489Y0345581D01*
X0177442Y0345430D01*
X0177391Y0345281D01*
X0177336Y0345133D01*
X0177278Y0344986D01*
X0177216Y0344841D01*
X0177150Y0344698D01*
X0177081Y0344556D01*
X0177009Y0344416D01*
X0176932Y0344278D01*
X0176853Y0344142D01*
X0176769Y0344008D01*
X0176683Y0343876D01*
X0176593Y0343747D01*
X0176500Y0343619D01*
X0176404Y0343494D01*
X0176305Y0343372D01*
X0176202Y0343252D01*
X0176097Y0343134D01*
X0175989Y0343020D01*
X0175877Y0342908D01*
X0175763Y0342799D01*
X0175647Y0342693D01*
X0175527Y0342590D01*
X0175406Y0342490D01*
X0175281Y0342393D01*
X0175154Y0342299D01*
X0175025Y0342208D01*
X0174894Y0342121D01*
X0174761Y0342037D01*
X0174625Y0341956D01*
X0174487Y0341879D01*
X0174348Y0341806D01*
X0174207Y0341736D01*
X0174064Y0341669D01*
X0173919Y0341606D01*
X0173773Y0341547D01*
X0173625Y0341491D01*
X0173476Y0341440D01*
X0173326Y0341392D01*
X0173175Y0341348D01*
X0173022Y0341307D01*
X0172869Y0341271D01*
X0172714Y0341238D01*
X0172559Y0341209D01*
X0172404Y0341185D01*
X0172247Y0341164D01*
X0172091Y0341147D01*
X0171933Y0341134D01*
X0171776Y0341125D01*
X0171618Y0341120D01*
X0171461Y0341119D01*
X0171303Y0341122D01*
X0171145Y0341129D01*
X0170988Y0341140D01*
X0170831Y0341155D01*
X0170674Y0341174D01*
X0170518Y0341197D01*
X0170363Y0341223D01*
X0170208Y0341254D01*
X0170054Y0341288D01*
X0169901Y0341327D01*
X0169749Y0341369D01*
X0169599Y0341415D01*
X0169449Y0341465D01*
X0169301Y0341519D01*
X0169154Y0341576D01*
X0169008Y0341637D01*
X0168865Y0341702D01*
X0168722Y0341770D01*
X0168582Y0341842D01*
X0168444Y0341917D01*
X0168307Y0341996D01*
X0168172Y0342078D01*
X0168040Y0342164D01*
X0167910Y0342253D01*
X0167782Y0342345D01*
X0167656Y0342441D01*
X0167533Y0342539D01*
X0167413Y0342641D01*
X0167295Y0342746D01*
X0167179Y0342853D01*
X0167067Y0342964D01*
X0166957Y0343077D01*
X0166850Y0343193D01*
X0166746Y0343311D01*
X0166645Y0343433D01*
X0166548Y0343556D01*
X0166453Y0343683D01*
X0166362Y0343811D01*
X0166273Y0343942D01*
X0166189Y0344075D01*
X0166107Y0344210D01*
X0166029Y0344347D01*
X0165955Y0344486D01*
X0165884Y0344627D01*
X0165816Y0344769D01*
X0165753Y0344914D01*
X0165692Y0345059D01*
X0165636Y0345207D01*
X0165583Y0345355D01*
X0165534Y0345505D01*
X0165489Y0345656D01*
X0165448Y0345809D01*
X0165410Y0345962D01*
X0165377Y0346116D01*
X0165347Y0346271D01*
X0165321Y0346426D01*
X0165300Y0346583D01*
X0165282Y0346739D01*
X0165268Y0346896D01*
X0165258Y0347054D01*
X0165252Y0347211D01*
X0165250Y0347369D01*
X0375250Y0347369D02*
X0375252Y0347527D01*
X0375258Y0347684D01*
X0375268Y0347842D01*
X0375282Y0347999D01*
X0375300Y0348155D01*
X0375321Y0348312D01*
X0375347Y0348467D01*
X0375377Y0348622D01*
X0375410Y0348776D01*
X0375448Y0348929D01*
X0375489Y0349082D01*
X0375534Y0349233D01*
X0375583Y0349383D01*
X0375636Y0349531D01*
X0375692Y0349679D01*
X0375753Y0349824D01*
X0375816Y0349969D01*
X0375884Y0350111D01*
X0375955Y0350252D01*
X0376029Y0350391D01*
X0376107Y0350528D01*
X0376189Y0350663D01*
X0376273Y0350796D01*
X0376362Y0350927D01*
X0376453Y0351055D01*
X0376548Y0351182D01*
X0376645Y0351305D01*
X0376746Y0351427D01*
X0376850Y0351545D01*
X0376957Y0351661D01*
X0377067Y0351774D01*
X0377179Y0351885D01*
X0377295Y0351992D01*
X0377413Y0352097D01*
X0377533Y0352199D01*
X0377656Y0352297D01*
X0377782Y0352393D01*
X0377910Y0352485D01*
X0378040Y0352574D01*
X0378172Y0352660D01*
X0378307Y0352742D01*
X0378444Y0352821D01*
X0378582Y0352896D01*
X0378722Y0352968D01*
X0378865Y0353036D01*
X0379008Y0353101D01*
X0379154Y0353162D01*
X0379301Y0353219D01*
X0379449Y0353273D01*
X0379599Y0353323D01*
X0379749Y0353369D01*
X0379901Y0353411D01*
X0380054Y0353450D01*
X0380208Y0353484D01*
X0380363Y0353515D01*
X0380518Y0353541D01*
X0380674Y0353564D01*
X0380831Y0353583D01*
X0380988Y0353598D01*
X0381145Y0353609D01*
X0381303Y0353616D01*
X0381461Y0353619D01*
X0381618Y0353618D01*
X0381776Y0353613D01*
X0381933Y0353604D01*
X0382091Y0353591D01*
X0382247Y0353574D01*
X0382404Y0353553D01*
X0382559Y0353529D01*
X0382714Y0353500D01*
X0382869Y0353467D01*
X0383022Y0353431D01*
X0383175Y0353390D01*
X0383326Y0353346D01*
X0383476Y0353298D01*
X0383625Y0353247D01*
X0383773Y0353191D01*
X0383919Y0353132D01*
X0384064Y0353069D01*
X0384207Y0353002D01*
X0384348Y0352932D01*
X0384487Y0352859D01*
X0384625Y0352782D01*
X0384761Y0352701D01*
X0384894Y0352617D01*
X0385025Y0352530D01*
X0385154Y0352439D01*
X0385281Y0352345D01*
X0385406Y0352248D01*
X0385527Y0352148D01*
X0385647Y0352045D01*
X0385763Y0351939D01*
X0385877Y0351830D01*
X0385989Y0351718D01*
X0386097Y0351604D01*
X0386202Y0351486D01*
X0386305Y0351366D01*
X0386404Y0351244D01*
X0386500Y0351119D01*
X0386593Y0350991D01*
X0386683Y0350862D01*
X0386769Y0350730D01*
X0386853Y0350596D01*
X0386932Y0350460D01*
X0387009Y0350322D01*
X0387081Y0350182D01*
X0387150Y0350040D01*
X0387216Y0349897D01*
X0387278Y0349752D01*
X0387336Y0349605D01*
X0387391Y0349457D01*
X0387442Y0349308D01*
X0387489Y0349157D01*
X0387532Y0349006D01*
X0387571Y0348853D01*
X0387607Y0348699D01*
X0387638Y0348545D01*
X0387666Y0348390D01*
X0387690Y0348234D01*
X0387710Y0348077D01*
X0387726Y0347920D01*
X0387738Y0347763D01*
X0387746Y0347606D01*
X0387750Y0347448D01*
X0387750Y0347290D01*
X0387746Y0347132D01*
X0387738Y0346975D01*
X0387726Y0346818D01*
X0387710Y0346661D01*
X0387690Y0346504D01*
X0387666Y0346348D01*
X0387638Y0346193D01*
X0387607Y0346039D01*
X0387571Y0345885D01*
X0387532Y0345732D01*
X0387489Y0345581D01*
X0387442Y0345430D01*
X0387391Y0345281D01*
X0387336Y0345133D01*
X0387278Y0344986D01*
X0387216Y0344841D01*
X0387150Y0344698D01*
X0387081Y0344556D01*
X0387009Y0344416D01*
X0386932Y0344278D01*
X0386853Y0344142D01*
X0386769Y0344008D01*
X0386683Y0343876D01*
X0386593Y0343747D01*
X0386500Y0343619D01*
X0386404Y0343494D01*
X0386305Y0343372D01*
X0386202Y0343252D01*
X0386097Y0343134D01*
X0385989Y0343020D01*
X0385877Y0342908D01*
X0385763Y0342799D01*
X0385647Y0342693D01*
X0385527Y0342590D01*
X0385406Y0342490D01*
X0385281Y0342393D01*
X0385154Y0342299D01*
X0385025Y0342208D01*
X0384894Y0342121D01*
X0384761Y0342037D01*
X0384625Y0341956D01*
X0384487Y0341879D01*
X0384348Y0341806D01*
X0384207Y0341736D01*
X0384064Y0341669D01*
X0383919Y0341606D01*
X0383773Y0341547D01*
X0383625Y0341491D01*
X0383476Y0341440D01*
X0383326Y0341392D01*
X0383175Y0341348D01*
X0383022Y0341307D01*
X0382869Y0341271D01*
X0382714Y0341238D01*
X0382559Y0341209D01*
X0382404Y0341185D01*
X0382247Y0341164D01*
X0382091Y0341147D01*
X0381933Y0341134D01*
X0381776Y0341125D01*
X0381618Y0341120D01*
X0381461Y0341119D01*
X0381303Y0341122D01*
X0381145Y0341129D01*
X0380988Y0341140D01*
X0380831Y0341155D01*
X0380674Y0341174D01*
X0380518Y0341197D01*
X0380363Y0341223D01*
X0380208Y0341254D01*
X0380054Y0341288D01*
X0379901Y0341327D01*
X0379749Y0341369D01*
X0379599Y0341415D01*
X0379449Y0341465D01*
X0379301Y0341519D01*
X0379154Y0341576D01*
X0379008Y0341637D01*
X0378865Y0341702D01*
X0378722Y0341770D01*
X0378582Y0341842D01*
X0378444Y0341917D01*
X0378307Y0341996D01*
X0378172Y0342078D01*
X0378040Y0342164D01*
X0377910Y0342253D01*
X0377782Y0342345D01*
X0377656Y0342441D01*
X0377533Y0342539D01*
X0377413Y0342641D01*
X0377295Y0342746D01*
X0377179Y0342853D01*
X0377067Y0342964D01*
X0376957Y0343077D01*
X0376850Y0343193D01*
X0376746Y0343311D01*
X0376645Y0343433D01*
X0376548Y0343556D01*
X0376453Y0343683D01*
X0376362Y0343811D01*
X0376273Y0343942D01*
X0376189Y0344075D01*
X0376107Y0344210D01*
X0376029Y0344347D01*
X0375955Y0344486D01*
X0375884Y0344627D01*
X0375816Y0344769D01*
X0375753Y0344914D01*
X0375692Y0345059D01*
X0375636Y0345207D01*
X0375583Y0345355D01*
X0375534Y0345505D01*
X0375489Y0345656D01*
X0375448Y0345809D01*
X0375410Y0345962D01*
X0375377Y0346116D01*
X0375347Y0346271D01*
X0375321Y0346426D01*
X0375300Y0346583D01*
X0375282Y0346739D01*
X0375268Y0346896D01*
X0375258Y0347054D01*
X0375252Y0347211D01*
X0375250Y0347369D01*
X0375250Y0037369D02*
X0375252Y0037527D01*
X0375258Y0037684D01*
X0375268Y0037842D01*
X0375282Y0037999D01*
X0375300Y0038155D01*
X0375321Y0038312D01*
X0375347Y0038467D01*
X0375377Y0038622D01*
X0375410Y0038776D01*
X0375448Y0038929D01*
X0375489Y0039082D01*
X0375534Y0039233D01*
X0375583Y0039383D01*
X0375636Y0039531D01*
X0375692Y0039679D01*
X0375753Y0039824D01*
X0375816Y0039969D01*
X0375884Y0040111D01*
X0375955Y0040252D01*
X0376029Y0040391D01*
X0376107Y0040528D01*
X0376189Y0040663D01*
X0376273Y0040796D01*
X0376362Y0040927D01*
X0376453Y0041055D01*
X0376548Y0041182D01*
X0376645Y0041305D01*
X0376746Y0041427D01*
X0376850Y0041545D01*
X0376957Y0041661D01*
X0377067Y0041774D01*
X0377179Y0041885D01*
X0377295Y0041992D01*
X0377413Y0042097D01*
X0377533Y0042199D01*
X0377656Y0042297D01*
X0377782Y0042393D01*
X0377910Y0042485D01*
X0378040Y0042574D01*
X0378172Y0042660D01*
X0378307Y0042742D01*
X0378444Y0042821D01*
X0378582Y0042896D01*
X0378722Y0042968D01*
X0378865Y0043036D01*
X0379008Y0043101D01*
X0379154Y0043162D01*
X0379301Y0043219D01*
X0379449Y0043273D01*
X0379599Y0043323D01*
X0379749Y0043369D01*
X0379901Y0043411D01*
X0380054Y0043450D01*
X0380208Y0043484D01*
X0380363Y0043515D01*
X0380518Y0043541D01*
X0380674Y0043564D01*
X0380831Y0043583D01*
X0380988Y0043598D01*
X0381145Y0043609D01*
X0381303Y0043616D01*
X0381461Y0043619D01*
X0381618Y0043618D01*
X0381776Y0043613D01*
X0381933Y0043604D01*
X0382091Y0043591D01*
X0382247Y0043574D01*
X0382404Y0043553D01*
X0382559Y0043529D01*
X0382714Y0043500D01*
X0382869Y0043467D01*
X0383022Y0043431D01*
X0383175Y0043390D01*
X0383326Y0043346D01*
X0383476Y0043298D01*
X0383625Y0043247D01*
X0383773Y0043191D01*
X0383919Y0043132D01*
X0384064Y0043069D01*
X0384207Y0043002D01*
X0384348Y0042932D01*
X0384487Y0042859D01*
X0384625Y0042782D01*
X0384761Y0042701D01*
X0384894Y0042617D01*
X0385025Y0042530D01*
X0385154Y0042439D01*
X0385281Y0042345D01*
X0385406Y0042248D01*
X0385527Y0042148D01*
X0385647Y0042045D01*
X0385763Y0041939D01*
X0385877Y0041830D01*
X0385989Y0041718D01*
X0386097Y0041604D01*
X0386202Y0041486D01*
X0386305Y0041366D01*
X0386404Y0041244D01*
X0386500Y0041119D01*
X0386593Y0040991D01*
X0386683Y0040862D01*
X0386769Y0040730D01*
X0386853Y0040596D01*
X0386932Y0040460D01*
X0387009Y0040322D01*
X0387081Y0040182D01*
X0387150Y0040040D01*
X0387216Y0039897D01*
X0387278Y0039752D01*
X0387336Y0039605D01*
X0387391Y0039457D01*
X0387442Y0039308D01*
X0387489Y0039157D01*
X0387532Y0039006D01*
X0387571Y0038853D01*
X0387607Y0038699D01*
X0387638Y0038545D01*
X0387666Y0038390D01*
X0387690Y0038234D01*
X0387710Y0038077D01*
X0387726Y0037920D01*
X0387738Y0037763D01*
X0387746Y0037606D01*
X0387750Y0037448D01*
X0387750Y0037290D01*
X0387746Y0037132D01*
X0387738Y0036975D01*
X0387726Y0036818D01*
X0387710Y0036661D01*
X0387690Y0036504D01*
X0387666Y0036348D01*
X0387638Y0036193D01*
X0387607Y0036039D01*
X0387571Y0035885D01*
X0387532Y0035732D01*
X0387489Y0035581D01*
X0387442Y0035430D01*
X0387391Y0035281D01*
X0387336Y0035133D01*
X0387278Y0034986D01*
X0387216Y0034841D01*
X0387150Y0034698D01*
X0387081Y0034556D01*
X0387009Y0034416D01*
X0386932Y0034278D01*
X0386853Y0034142D01*
X0386769Y0034008D01*
X0386683Y0033876D01*
X0386593Y0033747D01*
X0386500Y0033619D01*
X0386404Y0033494D01*
X0386305Y0033372D01*
X0386202Y0033252D01*
X0386097Y0033134D01*
X0385989Y0033020D01*
X0385877Y0032908D01*
X0385763Y0032799D01*
X0385647Y0032693D01*
X0385527Y0032590D01*
X0385406Y0032490D01*
X0385281Y0032393D01*
X0385154Y0032299D01*
X0385025Y0032208D01*
X0384894Y0032121D01*
X0384761Y0032037D01*
X0384625Y0031956D01*
X0384487Y0031879D01*
X0384348Y0031806D01*
X0384207Y0031736D01*
X0384064Y0031669D01*
X0383919Y0031606D01*
X0383773Y0031547D01*
X0383625Y0031491D01*
X0383476Y0031440D01*
X0383326Y0031392D01*
X0383175Y0031348D01*
X0383022Y0031307D01*
X0382869Y0031271D01*
X0382714Y0031238D01*
X0382559Y0031209D01*
X0382404Y0031185D01*
X0382247Y0031164D01*
X0382091Y0031147D01*
X0381933Y0031134D01*
X0381776Y0031125D01*
X0381618Y0031120D01*
X0381461Y0031119D01*
X0381303Y0031122D01*
X0381145Y0031129D01*
X0380988Y0031140D01*
X0380831Y0031155D01*
X0380674Y0031174D01*
X0380518Y0031197D01*
X0380363Y0031223D01*
X0380208Y0031254D01*
X0380054Y0031288D01*
X0379901Y0031327D01*
X0379749Y0031369D01*
X0379599Y0031415D01*
X0379449Y0031465D01*
X0379301Y0031519D01*
X0379154Y0031576D01*
X0379008Y0031637D01*
X0378865Y0031702D01*
X0378722Y0031770D01*
X0378582Y0031842D01*
X0378444Y0031917D01*
X0378307Y0031996D01*
X0378172Y0032078D01*
X0378040Y0032164D01*
X0377910Y0032253D01*
X0377782Y0032345D01*
X0377656Y0032441D01*
X0377533Y0032539D01*
X0377413Y0032641D01*
X0377295Y0032746D01*
X0377179Y0032853D01*
X0377067Y0032964D01*
X0376957Y0033077D01*
X0376850Y0033193D01*
X0376746Y0033311D01*
X0376645Y0033433D01*
X0376548Y0033556D01*
X0376453Y0033683D01*
X0376362Y0033811D01*
X0376273Y0033942D01*
X0376189Y0034075D01*
X0376107Y0034210D01*
X0376029Y0034347D01*
X0375955Y0034486D01*
X0375884Y0034627D01*
X0375816Y0034769D01*
X0375753Y0034914D01*
X0375692Y0035059D01*
X0375636Y0035207D01*
X0375583Y0035355D01*
X0375534Y0035505D01*
X0375489Y0035656D01*
X0375448Y0035809D01*
X0375410Y0035962D01*
X0375377Y0036116D01*
X0375347Y0036271D01*
X0375321Y0036426D01*
X0375300Y0036583D01*
X0375282Y0036739D01*
X0375268Y0036896D01*
X0375258Y0037054D01*
X0375252Y0037211D01*
X0375250Y0037369D01*
D11*
X0344098Y0118154D02*
X0344098Y0118394D01*
X0349610Y0130674D02*
X0349610Y0130914D01*
X0349610Y0141934D02*
X0349610Y0142174D01*
X0345754Y0158235D02*
X0345514Y0158235D01*
X0334258Y0156818D02*
X0334018Y0156818D01*
X0333862Y0132331D02*
X0333862Y0132091D01*
X0377169Y0134768D02*
X0377169Y0135009D01*
X0377799Y0122253D02*
X0377799Y0122012D01*
X0329376Y0194062D02*
X0329136Y0194062D01*
X0345909Y0209375D02*
X0345909Y0209615D01*
X0349610Y0218942D02*
X0349610Y0219182D01*
X0341817Y0235951D02*
X0341577Y0235951D01*
X0354177Y0237760D02*
X0354177Y0238001D01*
X0327683Y0239495D02*
X0327443Y0239495D01*
X0324256Y0227607D02*
X0324256Y0227367D01*
X0322604Y0214298D02*
X0322364Y0214298D01*
X0278587Y0211741D02*
X0278587Y0211501D01*
X0222648Y0202808D02*
X0222478Y0202638D01*
X0214223Y0195721D02*
X0214053Y0195552D01*
X0195364Y0204410D02*
X0195195Y0204580D01*
X0180640Y0198111D02*
X0180470Y0198280D01*
X0184223Y0186273D02*
X0184053Y0186103D01*
X0056738Y0083510D02*
X0056498Y0083510D01*
X0038508Y0105044D02*
X0038508Y0105284D01*
D12*
X0038261Y0108214D02*
X0038761Y0108214D01*
X0039011Y0108464D01*
X0038011Y0109465D01*
X0038011Y0108464D01*
X0038261Y0108214D01*
X0039011Y0108464D02*
X0039011Y0109465D01*
X0038761Y0109715D01*
X0038261Y0109715D01*
X0038011Y0109465D01*
X0039484Y0109715D02*
X0040485Y0109715D01*
X0040485Y0108965D01*
X0039984Y0109215D01*
X0039734Y0109215D01*
X0039484Y0108965D01*
X0039484Y0108464D01*
X0039734Y0108214D01*
X0040234Y0108214D01*
X0040485Y0108464D01*
X0040957Y0108464D02*
X0041207Y0108214D01*
X0041708Y0108214D01*
X0041958Y0108464D01*
X0041958Y0109465D01*
X0041708Y0109715D01*
X0041207Y0109715D01*
X0040957Y0109465D01*
X0046532Y0084008D02*
X0047533Y0084008D01*
X0047784Y0083758D01*
X0047784Y0083257D01*
X0047533Y0083007D01*
X0047283Y0083007D01*
X0047033Y0083257D01*
X0047033Y0084008D01*
X0046532Y0084008D02*
X0046282Y0083758D01*
X0046282Y0083257D01*
X0046532Y0083007D01*
X0046282Y0082535D02*
X0046282Y0081534D01*
X0046282Y0081061D02*
X0046783Y0080561D01*
X0046783Y0080811D02*
X0046783Y0080060D01*
X0046282Y0080060D02*
X0047784Y0080060D01*
X0047784Y0080811D01*
X0047533Y0081061D01*
X0047033Y0081061D01*
X0046783Y0080811D01*
X0047283Y0081534D02*
X0047784Y0082034D01*
X0046282Y0082034D01*
X0035185Y0082034D02*
X0033684Y0082034D01*
X0033684Y0081534D02*
X0033684Y0082535D01*
X0033934Y0083007D02*
X0034184Y0083007D01*
X0034434Y0083257D01*
X0034434Y0083758D01*
X0034184Y0084008D01*
X0033934Y0084008D01*
X0033684Y0083758D01*
X0033684Y0083257D01*
X0033934Y0083007D01*
X0034434Y0083257D02*
X0034685Y0083007D01*
X0034935Y0083007D01*
X0035185Y0083257D01*
X0035185Y0083758D01*
X0034935Y0084008D01*
X0034685Y0084008D01*
X0034434Y0083758D01*
X0035185Y0082034D02*
X0034685Y0081534D01*
X0034935Y0081061D02*
X0034434Y0081061D01*
X0034184Y0080811D01*
X0034184Y0080060D01*
X0033684Y0080060D02*
X0035185Y0080060D01*
X0035185Y0080811D01*
X0034935Y0081061D01*
X0034184Y0080561D02*
X0033684Y0081061D01*
X0021799Y0080811D02*
X0021549Y0081061D01*
X0021049Y0081061D01*
X0020798Y0080811D01*
X0020798Y0080060D01*
X0020298Y0080060D02*
X0021799Y0080060D01*
X0021799Y0080811D01*
X0021299Y0081534D02*
X0021799Y0082034D01*
X0020298Y0082034D01*
X0020298Y0081534D02*
X0020298Y0082535D01*
X0020298Y0083007D02*
X0020548Y0083007D01*
X0021549Y0084008D01*
X0021799Y0084008D01*
X0021799Y0083007D01*
X0020298Y0081061D02*
X0020798Y0080561D01*
X0059668Y0080811D02*
X0059918Y0081061D01*
X0059668Y0080811D02*
X0059668Y0080311D01*
X0059918Y0080060D01*
X0060919Y0080060D01*
X0061169Y0080311D01*
X0061169Y0080811D01*
X0060919Y0081061D01*
X0060419Y0081534D02*
X0060419Y0082535D01*
X0059918Y0083007D02*
X0059668Y0083007D01*
X0059918Y0083007D02*
X0060919Y0084008D01*
X0061169Y0084008D01*
X0061169Y0083007D01*
X0061169Y0082284D02*
X0060419Y0081534D01*
X0061169Y0082284D02*
X0059668Y0082284D01*
X0180712Y0193687D02*
X0180712Y0194040D01*
X0181066Y0194394D01*
X0181419Y0194394D01*
X0181596Y0194217D01*
X0181596Y0193864D01*
X0181066Y0193333D01*
X0181419Y0192979D02*
X0180712Y0193687D01*
X0181419Y0192979D02*
X0181773Y0192979D01*
X0182127Y0193333D01*
X0182127Y0193687D01*
X0182461Y0194021D02*
X0182815Y0194021D01*
X0183169Y0194375D01*
X0183169Y0194728D01*
X0182461Y0195436D01*
X0182107Y0195436D01*
X0181753Y0195082D01*
X0181753Y0194728D01*
X0186827Y0189581D02*
X0186651Y0189404D01*
X0186651Y0189050D01*
X0186297Y0189050D01*
X0186120Y0188873D01*
X0186120Y0188519D01*
X0186474Y0188165D01*
X0186827Y0188165D01*
X0186985Y0187654D02*
X0187692Y0186947D01*
X0187338Y0187300D02*
X0188400Y0188362D01*
X0188400Y0187654D01*
X0188911Y0187497D02*
X0189265Y0187497D01*
X0189619Y0187143D01*
X0189619Y0186789D01*
X0188911Y0186082D01*
X0188557Y0186082D01*
X0188203Y0186436D01*
X0188203Y0186789D01*
X0187535Y0188873D02*
X0187535Y0189227D01*
X0187181Y0189581D01*
X0186827Y0189581D01*
X0186651Y0189050D02*
X0186827Y0188873D01*
X0192771Y0206300D02*
X0193479Y0207007D01*
X0192063Y0207007D01*
X0191887Y0207184D01*
X0191887Y0207538D01*
X0192240Y0207892D01*
X0192594Y0207892D01*
X0193105Y0208757D02*
X0194167Y0207695D01*
X0194521Y0208049D02*
X0193813Y0207341D01*
X0193813Y0208757D02*
X0193105Y0208757D01*
X0193970Y0209268D02*
X0193970Y0209622D01*
X0194324Y0209976D01*
X0194678Y0209976D01*
X0195385Y0209268D01*
X0195385Y0208914D01*
X0195032Y0208560D01*
X0194678Y0208560D01*
X0217346Y0201859D02*
X0217523Y0202036D01*
X0217877Y0202036D01*
X0218408Y0201505D01*
X0218054Y0201151D01*
X0217700Y0201151D01*
X0217346Y0201505D01*
X0217346Y0201859D01*
X0218408Y0202213D02*
X0218408Y0201505D01*
X0218919Y0201348D02*
X0218919Y0200994D01*
X0218565Y0200994D01*
X0218388Y0200817D01*
X0218388Y0200463D01*
X0218742Y0200109D01*
X0219096Y0200109D01*
X0219430Y0199775D02*
X0219430Y0199421D01*
X0219784Y0199068D01*
X0220138Y0199068D01*
X0220845Y0199775D01*
X0220845Y0200129D01*
X0220491Y0200483D01*
X0220138Y0200483D01*
X0219804Y0200817D02*
X0219804Y0201171D01*
X0219450Y0201525D01*
X0219096Y0201525D01*
X0218919Y0201348D01*
X0218919Y0200994D02*
X0219096Y0200817D01*
X0218408Y0202213D02*
X0218231Y0202743D01*
X0217004Y0199206D02*
X0217712Y0198499D01*
X0217181Y0197968D01*
X0217004Y0198499D01*
X0216827Y0198676D01*
X0216474Y0198676D01*
X0216120Y0198322D01*
X0216120Y0197968D01*
X0216474Y0197614D01*
X0216827Y0197614D01*
X0216985Y0197103D02*
X0217692Y0196395D01*
X0217338Y0196749D02*
X0218400Y0197811D01*
X0218400Y0197103D01*
X0218911Y0196946D02*
X0219265Y0196946D01*
X0219619Y0196592D01*
X0219619Y0196238D01*
X0218911Y0195531D01*
X0218557Y0195531D01*
X0218203Y0195884D01*
X0218203Y0196238D01*
X0278089Y0214921D02*
X0278339Y0214671D01*
X0278840Y0214671D01*
X0279090Y0214921D01*
X0279563Y0214921D02*
X0279813Y0214671D01*
X0280313Y0214671D01*
X0280563Y0214921D01*
X0281036Y0214921D02*
X0281286Y0214671D01*
X0281786Y0214671D01*
X0282037Y0214921D01*
X0282037Y0215922D01*
X0281786Y0216172D01*
X0281286Y0216172D01*
X0281036Y0215922D01*
X0280563Y0215922D02*
X0280313Y0216172D01*
X0279813Y0216172D01*
X0279563Y0215922D01*
X0279563Y0215672D01*
X0279813Y0215421D01*
X0279563Y0215171D01*
X0279563Y0214921D01*
X0279813Y0215421D02*
X0280063Y0215421D01*
X0279090Y0215421D02*
X0278590Y0215672D01*
X0278339Y0215672D01*
X0278089Y0215421D01*
X0278089Y0214921D01*
X0279090Y0215421D02*
X0279090Y0216172D01*
X0278089Y0216172D01*
X0317934Y0216375D02*
X0318184Y0216375D01*
X0319185Y0217375D01*
X0319436Y0217375D01*
X0319436Y0216375D01*
X0319436Y0215402D02*
X0317934Y0215402D01*
X0317934Y0215902D02*
X0317934Y0214901D01*
X0318184Y0214429D02*
X0317934Y0214179D01*
X0317934Y0213678D01*
X0318184Y0213428D01*
X0319185Y0213428D01*
X0319436Y0213678D01*
X0319436Y0214179D01*
X0319185Y0214429D01*
X0318935Y0214901D02*
X0319436Y0215402D01*
X0321429Y0222937D02*
X0321929Y0222937D01*
X0322179Y0223187D01*
X0322179Y0223437D01*
X0321929Y0223687D01*
X0321429Y0223687D01*
X0321178Y0223437D01*
X0321178Y0223187D01*
X0321429Y0222937D01*
X0321429Y0223687D02*
X0321178Y0223938D01*
X0321178Y0224188D01*
X0321429Y0224438D01*
X0321929Y0224438D01*
X0322179Y0224188D01*
X0322179Y0223938D01*
X0321929Y0223687D01*
X0322652Y0222937D02*
X0323652Y0222937D01*
X0323152Y0222937D02*
X0323152Y0224438D01*
X0323652Y0223938D01*
X0324125Y0224188D02*
X0324375Y0224438D01*
X0324875Y0224438D01*
X0325126Y0224188D01*
X0325126Y0223187D01*
X0324875Y0222937D01*
X0324375Y0222937D01*
X0324125Y0223187D01*
X0337147Y0235332D02*
X0337147Y0235832D01*
X0337397Y0236082D01*
X0337147Y0236555D02*
X0337147Y0237556D01*
X0337147Y0237055D02*
X0338648Y0237055D01*
X0338148Y0236555D01*
X0338398Y0236082D02*
X0338648Y0235832D01*
X0338648Y0235332D01*
X0338398Y0235082D01*
X0337397Y0235082D01*
X0337147Y0235332D01*
X0337397Y0238028D02*
X0337147Y0238278D01*
X0337147Y0238779D01*
X0337397Y0239029D01*
X0338398Y0239029D01*
X0338648Y0238779D01*
X0338648Y0238278D01*
X0338398Y0238028D01*
X0338148Y0238028D01*
X0337897Y0238278D01*
X0337897Y0239029D01*
X0332114Y0239241D02*
X0332114Y0239742D01*
X0331864Y0239992D01*
X0331614Y0239992D01*
X0331364Y0239742D01*
X0331113Y0239992D01*
X0330863Y0239992D01*
X0330613Y0239742D01*
X0330613Y0239241D01*
X0330863Y0238991D01*
X0330863Y0238519D02*
X0330613Y0238269D01*
X0330613Y0237768D01*
X0330863Y0237518D01*
X0330863Y0237046D02*
X0330613Y0236795D01*
X0330613Y0236295D01*
X0330863Y0236045D01*
X0331864Y0236045D01*
X0332114Y0236295D01*
X0332114Y0236795D01*
X0331864Y0237046D01*
X0331864Y0237518D02*
X0332114Y0237768D01*
X0332114Y0238269D01*
X0331864Y0238519D01*
X0331614Y0238519D01*
X0331364Y0238269D01*
X0331113Y0238519D01*
X0330863Y0238519D01*
X0331364Y0238269D02*
X0331364Y0238018D01*
X0331864Y0238991D02*
X0332114Y0239241D01*
X0331364Y0239492D02*
X0331364Y0239742D01*
X0353680Y0240931D02*
X0354681Y0240931D01*
X0353680Y0241931D01*
X0353680Y0242182D01*
X0353930Y0242432D01*
X0354430Y0242432D01*
X0354681Y0242182D01*
X0355153Y0242182D02*
X0355153Y0241931D01*
X0355403Y0241681D01*
X0355153Y0241431D01*
X0355153Y0241181D01*
X0355403Y0240931D01*
X0355904Y0240931D01*
X0356154Y0241181D01*
X0356626Y0241181D02*
X0356877Y0240931D01*
X0357377Y0240931D01*
X0357627Y0241181D01*
X0357627Y0242182D01*
X0357377Y0242432D01*
X0356877Y0242432D01*
X0356626Y0242182D01*
X0356154Y0242182D02*
X0355904Y0242432D01*
X0355403Y0242432D01*
X0355153Y0242182D01*
X0355403Y0241681D02*
X0355653Y0241681D01*
X0352810Y0223613D02*
X0353060Y0223363D01*
X0353060Y0222362D01*
X0352810Y0222112D01*
X0352310Y0222112D01*
X0352059Y0222362D01*
X0351587Y0222112D02*
X0350586Y0223112D01*
X0350586Y0223363D01*
X0350836Y0223613D01*
X0351337Y0223613D01*
X0351587Y0223363D01*
X0352059Y0223363D02*
X0352310Y0223613D01*
X0352810Y0223613D01*
X0351587Y0222112D02*
X0350586Y0222112D01*
X0350114Y0222362D02*
X0350114Y0222612D01*
X0349864Y0222862D01*
X0349363Y0222862D01*
X0349113Y0222612D01*
X0349113Y0222362D01*
X0349363Y0222112D01*
X0349864Y0222112D01*
X0350114Y0222362D01*
X0349864Y0222862D02*
X0350114Y0223112D01*
X0350114Y0223363D01*
X0349864Y0223613D01*
X0349363Y0223613D01*
X0349113Y0223363D01*
X0349113Y0223112D01*
X0349363Y0222862D01*
X0349109Y0214046D02*
X0349359Y0213796D01*
X0349359Y0212795D01*
X0349109Y0212545D01*
X0348609Y0212545D01*
X0348359Y0212795D01*
X0347886Y0212795D02*
X0347636Y0212545D01*
X0347136Y0212545D01*
X0346885Y0212795D01*
X0346885Y0213045D01*
X0347136Y0213295D01*
X0347386Y0213295D01*
X0347136Y0213295D02*
X0346885Y0213546D01*
X0346885Y0213796D01*
X0347136Y0214046D01*
X0347636Y0214046D01*
X0347886Y0213796D01*
X0348359Y0213796D02*
X0348609Y0214046D01*
X0349109Y0214046D01*
X0346413Y0213546D02*
X0345913Y0214046D01*
X0345913Y0212545D01*
X0346413Y0212545D02*
X0345412Y0212545D01*
X0333557Y0194559D02*
X0332556Y0193558D01*
X0332306Y0193808D01*
X0332306Y0194309D01*
X0332556Y0194559D01*
X0333557Y0194559D01*
X0333807Y0194309D01*
X0333807Y0193808D01*
X0333557Y0193558D01*
X0332556Y0193558D01*
X0332306Y0193086D02*
X0332306Y0192085D01*
X0333307Y0193086D01*
X0333557Y0193086D01*
X0333807Y0192836D01*
X0333807Y0192335D01*
X0333557Y0192085D01*
X0333557Y0191612D02*
X0333807Y0191362D01*
X0333807Y0190862D01*
X0333557Y0190612D01*
X0332556Y0190612D01*
X0332306Y0190862D01*
X0332306Y0191362D01*
X0332556Y0191612D01*
X0329588Y0159895D02*
X0329588Y0158894D01*
X0329588Y0158422D02*
X0329588Y0157421D01*
X0330589Y0158422D01*
X0330839Y0158422D01*
X0331089Y0158172D01*
X0331089Y0157671D01*
X0330839Y0157421D01*
X0330839Y0156949D02*
X0331089Y0156698D01*
X0331089Y0156198D01*
X0330839Y0155948D01*
X0329838Y0155948D01*
X0329588Y0156198D01*
X0329588Y0156698D01*
X0329838Y0156949D01*
X0330589Y0158894D02*
X0331089Y0159395D01*
X0329588Y0159395D01*
X0348684Y0158482D02*
X0348934Y0158732D01*
X0349184Y0158732D01*
X0349434Y0158482D01*
X0349434Y0157731D01*
X0348934Y0157731D01*
X0348684Y0157982D01*
X0348684Y0158482D01*
X0349434Y0157731D02*
X0349935Y0158232D01*
X0350185Y0158732D01*
X0349935Y0157259D02*
X0350185Y0157009D01*
X0350185Y0156508D01*
X0349935Y0156258D01*
X0349935Y0155786D02*
X0350185Y0155536D01*
X0350185Y0155035D01*
X0349935Y0154785D01*
X0348934Y0154785D01*
X0348684Y0155035D01*
X0348684Y0155536D01*
X0348934Y0155786D01*
X0348684Y0156258D02*
X0349685Y0157259D01*
X0349935Y0157259D01*
X0348684Y0157259D02*
X0348684Y0156258D01*
X0349113Y0146605D02*
X0349113Y0146355D01*
X0350114Y0145354D01*
X0350114Y0145104D01*
X0350586Y0145104D02*
X0351587Y0145104D01*
X0350586Y0146105D01*
X0350586Y0146355D01*
X0350836Y0146605D01*
X0351337Y0146605D01*
X0351587Y0146355D01*
X0352059Y0146355D02*
X0352310Y0146605D01*
X0352810Y0146605D01*
X0353060Y0146355D01*
X0353060Y0145354D01*
X0352810Y0145104D01*
X0352310Y0145104D01*
X0352059Y0145354D01*
X0350114Y0146605D02*
X0349113Y0146605D01*
X0349113Y0135345D02*
X0349613Y0135095D01*
X0350114Y0134595D01*
X0349363Y0134595D01*
X0349113Y0134344D01*
X0349113Y0134094D01*
X0349363Y0133844D01*
X0349864Y0133844D01*
X0350114Y0134094D01*
X0350114Y0134595D01*
X0350586Y0133844D02*
X0351587Y0133844D01*
X0351087Y0133844D02*
X0351087Y0135345D01*
X0351587Y0134845D01*
X0352059Y0135095D02*
X0352310Y0135345D01*
X0352810Y0135345D01*
X0353060Y0135095D01*
X0353060Y0134094D01*
X0352810Y0133844D01*
X0352310Y0133844D01*
X0352059Y0134094D01*
X0347298Y0122826D02*
X0346798Y0122826D01*
X0346548Y0122575D01*
X0346075Y0122575D02*
X0345825Y0122826D01*
X0345325Y0122826D01*
X0345074Y0122575D01*
X0345074Y0122325D01*
X0346075Y0121324D01*
X0345074Y0121324D01*
X0344602Y0121574D02*
X0344352Y0121324D01*
X0343851Y0121324D01*
X0343601Y0121574D01*
X0343601Y0121825D01*
X0343851Y0122075D01*
X0344102Y0122075D01*
X0343851Y0122075D02*
X0343601Y0122325D01*
X0343601Y0122575D01*
X0343851Y0122826D01*
X0344352Y0122826D01*
X0344602Y0122575D01*
X0346548Y0121574D02*
X0346798Y0121324D01*
X0347298Y0121324D01*
X0347548Y0121574D01*
X0347548Y0122575D01*
X0347298Y0122826D01*
X0337062Y0135261D02*
X0336562Y0135261D01*
X0336311Y0135511D01*
X0335839Y0135261D02*
X0334838Y0136262D01*
X0334838Y0136512D01*
X0335088Y0136763D01*
X0335589Y0136763D01*
X0335839Y0136512D01*
X0336311Y0136512D02*
X0336562Y0136763D01*
X0337062Y0136763D01*
X0337312Y0136512D01*
X0337312Y0135511D01*
X0337062Y0135261D01*
X0335839Y0135261D02*
X0334838Y0135261D01*
X0334366Y0135261D02*
X0333365Y0136262D01*
X0333365Y0136512D01*
X0333615Y0136763D01*
X0334115Y0136763D01*
X0334366Y0136512D01*
X0334366Y0135261D02*
X0333365Y0135261D01*
X0328530Y0120368D02*
X0328280Y0119867D01*
X0327779Y0119367D01*
X0327779Y0120117D01*
X0327529Y0120368D01*
X0327279Y0120368D01*
X0327029Y0120117D01*
X0327029Y0119617D01*
X0327279Y0119367D01*
X0327779Y0119367D01*
X0327779Y0118894D02*
X0327529Y0118644D01*
X0327529Y0117893D01*
X0327029Y0117893D02*
X0328530Y0117893D01*
X0328530Y0118644D01*
X0328280Y0118894D01*
X0327779Y0118894D01*
X0327529Y0118394D02*
X0327029Y0118894D01*
X0374722Y0118333D02*
X0375722Y0118333D01*
X0374972Y0119084D01*
X0374972Y0117583D01*
X0376195Y0117583D02*
X0377196Y0117583D01*
X0376195Y0118583D01*
X0376195Y0118834D01*
X0376445Y0119084D01*
X0376946Y0119084D01*
X0377196Y0118834D01*
X0377668Y0118834D02*
X0377918Y0119084D01*
X0378419Y0119084D01*
X0378669Y0118834D01*
X0378669Y0117833D01*
X0378419Y0117583D01*
X0377918Y0117583D01*
X0377668Y0117833D01*
X0377423Y0137938D02*
X0377673Y0138189D01*
X0377423Y0137938D02*
X0376922Y0137938D01*
X0376672Y0138189D01*
X0376672Y0138689D01*
X0376922Y0138939D01*
X0377172Y0138939D01*
X0377673Y0138689D01*
X0377673Y0139440D01*
X0376672Y0139440D01*
X0378145Y0139189D02*
X0378395Y0139440D01*
X0378896Y0139440D01*
X0379146Y0139189D01*
X0379618Y0139189D02*
X0379869Y0139440D01*
X0380369Y0139440D01*
X0380619Y0139189D01*
X0380619Y0138189D01*
X0380369Y0137938D01*
X0379869Y0137938D01*
X0379618Y0138189D01*
X0379146Y0137938D02*
X0378145Y0138939D01*
X0378145Y0139189D01*
X0378145Y0137938D02*
X0379146Y0137938D01*
X0249707Y0081789D02*
X0249457Y0081288D01*
X0248957Y0080788D01*
X0248957Y0081539D01*
X0248706Y0081789D01*
X0248456Y0081789D01*
X0248206Y0081539D01*
X0248206Y0081038D01*
X0248456Y0080788D01*
X0248957Y0080788D01*
X0248206Y0080316D02*
X0248206Y0079315D01*
X0248206Y0078842D02*
X0248706Y0078342D01*
X0248706Y0078592D02*
X0248706Y0077841D01*
X0248206Y0077841D02*
X0249707Y0077841D01*
X0249707Y0078592D01*
X0249457Y0078842D01*
X0248957Y0078842D01*
X0248706Y0078592D01*
X0249207Y0079315D02*
X0249707Y0079815D01*
X0248206Y0079815D01*
X0143807Y0237698D02*
X0143807Y0238449D01*
X0143557Y0238699D01*
X0143057Y0238699D01*
X0142806Y0238449D01*
X0142806Y0237698D01*
X0142306Y0237698D02*
X0143807Y0237698D01*
X0142806Y0238199D02*
X0142306Y0238699D01*
X0142306Y0239172D02*
X0142306Y0240172D01*
X0142306Y0240645D02*
X0142306Y0241646D01*
X0142306Y0241145D02*
X0143807Y0241145D01*
X0143307Y0240645D01*
X0143807Y0239672D02*
X0142306Y0239672D01*
X0143307Y0239172D02*
X0143807Y0239672D01*
X0120739Y0240850D02*
X0120739Y0242352D01*
X0119988Y0242352D01*
X0119738Y0242101D01*
X0119738Y0241601D01*
X0119988Y0241351D01*
X0120739Y0241351D01*
X0120239Y0241351D02*
X0119738Y0240850D01*
X0119266Y0241601D02*
X0118265Y0241601D01*
X0118515Y0242352D02*
X0119266Y0241601D01*
X0118515Y0240850D02*
X0118515Y0242352D01*
X0122202Y0265299D02*
X0123203Y0265299D01*
X0122202Y0266300D01*
X0122202Y0266550D01*
X0122452Y0266800D01*
X0122953Y0266800D01*
X0123203Y0266550D01*
X0124176Y0266800D02*
X0124176Y0265299D01*
X0124676Y0265299D02*
X0123675Y0265299D01*
X0124676Y0266300D02*
X0124176Y0266800D01*
X0125148Y0266550D02*
X0125148Y0266050D01*
X0125399Y0265799D01*
X0126149Y0265799D01*
X0126149Y0265299D02*
X0126149Y0266800D01*
X0125399Y0266800D01*
X0125148Y0266550D01*
X0125649Y0265799D02*
X0125148Y0265299D01*
D13*
X0139256Y0241148D03*
X0043232Y0083510D03*
X0030634Y0083510D03*
X0017248Y0083510D03*
X0331579Y0117290D03*
D14*
X0125280Y0269849D03*
X0121343Y0245400D03*
D15*
X0053075Y0120558D02*
X0053075Y0120518D01*
X0025516Y0121306D02*
X0025516Y0121345D01*
D16*
X0031106Y0123274D02*
X0031106Y0129573D01*
X0019925Y0129573D02*
X0019925Y0123274D01*
X0047484Y0122487D02*
X0047484Y0128786D01*
X0058665Y0128786D02*
X0058665Y0122487D01*
D17*
X0058075Y0123038D02*
X0058075Y0128196D01*
X0048035Y0128196D01*
X0048035Y0123038D01*
X0058075Y0123038D01*
X0030516Y0123825D02*
X0030516Y0128983D01*
X0020476Y0128983D01*
X0020476Y0123825D01*
X0030516Y0123825D01*
D18*
X0029945Y0136624D02*
X0029177Y0137391D01*
X0029945Y0136624D02*
X0031479Y0136624D01*
X0032246Y0137391D01*
X0032246Y0140460D01*
X0031479Y0141228D01*
X0029945Y0141228D01*
X0029177Y0140460D01*
X0027643Y0140460D02*
X0026875Y0141228D01*
X0025341Y0141228D01*
X0024573Y0140460D01*
X0024573Y0139693D01*
X0027643Y0136624D01*
X0024573Y0136624D01*
X0033781Y0136624D02*
X0035316Y0136624D01*
X0034548Y0136624D02*
X0034548Y0141228D01*
X0033781Y0141228D02*
X0035316Y0141228D01*
X0052132Y0139673D02*
X0052132Y0138906D01*
X0052900Y0138138D01*
X0052132Y0137371D01*
X0052132Y0136604D01*
X0052900Y0135836D01*
X0054434Y0135836D01*
X0055202Y0136604D01*
X0056736Y0136604D02*
X0057504Y0135836D01*
X0059038Y0135836D01*
X0059806Y0136604D01*
X0059806Y0139673D01*
X0059038Y0140440D01*
X0057504Y0140440D01*
X0056736Y0139673D01*
X0055202Y0139673D02*
X0054434Y0140440D01*
X0052900Y0140440D01*
X0052132Y0139673D01*
X0052900Y0138138D02*
X0053667Y0138138D01*
X0061340Y0135836D02*
X0062875Y0135836D01*
X0062107Y0135836D02*
X0062107Y0140440D01*
X0061340Y0140440D02*
X0062875Y0140440D01*
M02*
