G75*
%MOIN*%
%OFA0B0*%
%FSLAX25Y25*%
%IPPOS*%
%LPD*%
%AMOC8*
5,1,8,0,0,1.08239X$1,22.5*
%
%ADD10C,0.00000*%
%ADD11C,0.00600*%
%ADD12C,0.00100*%
%ADD13C,0.00800*%
%ADD14C,0.00500*%
%ADD15C,0.00400*%
%ADD16C,0.00300*%
%ADD17C,0.03150*%
%ADD18C,0.01000*%
%ADD19C,0.02200*%
%ADD20R,0.01800X0.03000*%
%ADD21R,0.03000X0.01800*%
%ADD22C,0.00060*%
D10*
X0001500Y0017369D02*
X0001500Y0361369D01*
X0411500Y0361369D01*
X0411500Y0017369D01*
X0001500Y0017369D01*
X0016422Y0226699D02*
X0016424Y0226814D01*
X0016430Y0226930D01*
X0016440Y0227045D01*
X0016454Y0227160D01*
X0016472Y0227274D01*
X0016494Y0227387D01*
X0016519Y0227500D01*
X0016549Y0227611D01*
X0016582Y0227722D01*
X0016619Y0227831D01*
X0016660Y0227939D01*
X0016705Y0228046D01*
X0016753Y0228151D01*
X0016805Y0228254D01*
X0016861Y0228355D01*
X0016920Y0228455D01*
X0016982Y0228552D01*
X0017048Y0228647D01*
X0017116Y0228740D01*
X0017188Y0228830D01*
X0017263Y0228918D01*
X0017342Y0229003D01*
X0017423Y0229085D01*
X0017506Y0229165D01*
X0017593Y0229241D01*
X0017682Y0229315D01*
X0017773Y0229385D01*
X0017867Y0229453D01*
X0017963Y0229517D01*
X0018062Y0229577D01*
X0018162Y0229634D01*
X0018264Y0229688D01*
X0018368Y0229738D01*
X0018474Y0229785D01*
X0018581Y0229828D01*
X0018690Y0229867D01*
X0018800Y0229902D01*
X0018911Y0229933D01*
X0019023Y0229961D01*
X0019136Y0229985D01*
X0019250Y0230005D01*
X0019365Y0230021D01*
X0019480Y0230033D01*
X0019595Y0230041D01*
X0019710Y0230045D01*
X0019826Y0230045D01*
X0019941Y0230041D01*
X0020056Y0230033D01*
X0020171Y0230021D01*
X0020286Y0230005D01*
X0020400Y0229985D01*
X0020513Y0229961D01*
X0020625Y0229933D01*
X0020736Y0229902D01*
X0020846Y0229867D01*
X0020955Y0229828D01*
X0021062Y0229785D01*
X0021168Y0229738D01*
X0021272Y0229688D01*
X0021374Y0229634D01*
X0021474Y0229577D01*
X0021573Y0229517D01*
X0021669Y0229453D01*
X0021763Y0229385D01*
X0021854Y0229315D01*
X0021943Y0229241D01*
X0022030Y0229165D01*
X0022113Y0229085D01*
X0022194Y0229003D01*
X0022273Y0228918D01*
X0022348Y0228830D01*
X0022420Y0228740D01*
X0022488Y0228647D01*
X0022554Y0228552D01*
X0022616Y0228455D01*
X0022675Y0228355D01*
X0022731Y0228254D01*
X0022783Y0228151D01*
X0022831Y0228046D01*
X0022876Y0227939D01*
X0022917Y0227831D01*
X0022954Y0227722D01*
X0022987Y0227611D01*
X0023017Y0227500D01*
X0023042Y0227387D01*
X0023064Y0227274D01*
X0023082Y0227160D01*
X0023096Y0227045D01*
X0023106Y0226930D01*
X0023112Y0226814D01*
X0023114Y0226699D01*
X0023112Y0226584D01*
X0023106Y0226468D01*
X0023096Y0226353D01*
X0023082Y0226238D01*
X0023064Y0226124D01*
X0023042Y0226011D01*
X0023017Y0225898D01*
X0022987Y0225787D01*
X0022954Y0225676D01*
X0022917Y0225567D01*
X0022876Y0225459D01*
X0022831Y0225352D01*
X0022783Y0225247D01*
X0022731Y0225144D01*
X0022675Y0225043D01*
X0022616Y0224943D01*
X0022554Y0224846D01*
X0022488Y0224751D01*
X0022420Y0224658D01*
X0022348Y0224568D01*
X0022273Y0224480D01*
X0022194Y0224395D01*
X0022113Y0224313D01*
X0022030Y0224233D01*
X0021943Y0224157D01*
X0021854Y0224083D01*
X0021763Y0224013D01*
X0021669Y0223945D01*
X0021573Y0223881D01*
X0021474Y0223821D01*
X0021374Y0223764D01*
X0021272Y0223710D01*
X0021168Y0223660D01*
X0021062Y0223613D01*
X0020955Y0223570D01*
X0020846Y0223531D01*
X0020736Y0223496D01*
X0020625Y0223465D01*
X0020513Y0223437D01*
X0020400Y0223413D01*
X0020286Y0223393D01*
X0020171Y0223377D01*
X0020056Y0223365D01*
X0019941Y0223357D01*
X0019826Y0223353D01*
X0019710Y0223353D01*
X0019595Y0223357D01*
X0019480Y0223365D01*
X0019365Y0223377D01*
X0019250Y0223393D01*
X0019136Y0223413D01*
X0019023Y0223437D01*
X0018911Y0223465D01*
X0018800Y0223496D01*
X0018690Y0223531D01*
X0018581Y0223570D01*
X0018474Y0223613D01*
X0018368Y0223660D01*
X0018264Y0223710D01*
X0018162Y0223764D01*
X0018062Y0223821D01*
X0017963Y0223881D01*
X0017867Y0223945D01*
X0017773Y0224013D01*
X0017682Y0224083D01*
X0017593Y0224157D01*
X0017506Y0224233D01*
X0017423Y0224313D01*
X0017342Y0224395D01*
X0017263Y0224480D01*
X0017188Y0224568D01*
X0017116Y0224658D01*
X0017048Y0224751D01*
X0016982Y0224846D01*
X0016920Y0224943D01*
X0016861Y0225043D01*
X0016805Y0225144D01*
X0016753Y0225247D01*
X0016705Y0225352D01*
X0016660Y0225459D01*
X0016619Y0225567D01*
X0016582Y0225676D01*
X0016549Y0225787D01*
X0016519Y0225898D01*
X0016494Y0226011D01*
X0016472Y0226124D01*
X0016454Y0226238D01*
X0016440Y0226353D01*
X0016430Y0226468D01*
X0016424Y0226584D01*
X0016422Y0226699D01*
X0037917Y0226699D02*
X0037919Y0226844D01*
X0037925Y0226989D01*
X0037935Y0227134D01*
X0037949Y0227279D01*
X0037967Y0227423D01*
X0037988Y0227566D01*
X0038014Y0227709D01*
X0038043Y0227851D01*
X0038077Y0227993D01*
X0038114Y0228133D01*
X0038155Y0228272D01*
X0038200Y0228410D01*
X0038249Y0228547D01*
X0038301Y0228683D01*
X0038357Y0228817D01*
X0038417Y0228949D01*
X0038480Y0229080D01*
X0038547Y0229208D01*
X0038617Y0229336D01*
X0038691Y0229461D01*
X0038768Y0229584D01*
X0038848Y0229704D01*
X0038932Y0229823D01*
X0039019Y0229939D01*
X0039109Y0230053D01*
X0039202Y0230165D01*
X0039298Y0230273D01*
X0039398Y0230379D01*
X0039499Y0230483D01*
X0039604Y0230583D01*
X0039712Y0230681D01*
X0039822Y0230776D01*
X0039934Y0230867D01*
X0040049Y0230956D01*
X0040167Y0231041D01*
X0040287Y0231123D01*
X0040409Y0231202D01*
X0040533Y0231278D01*
X0040659Y0231350D01*
X0040787Y0231418D01*
X0040917Y0231483D01*
X0041048Y0231545D01*
X0041181Y0231602D01*
X0041316Y0231657D01*
X0041452Y0231707D01*
X0041590Y0231754D01*
X0041728Y0231797D01*
X0041868Y0231836D01*
X0042009Y0231871D01*
X0042151Y0231903D01*
X0042293Y0231930D01*
X0042436Y0231954D01*
X0042580Y0231974D01*
X0042725Y0231990D01*
X0042869Y0232002D01*
X0043014Y0232010D01*
X0043159Y0232014D01*
X0043305Y0232014D01*
X0043450Y0232010D01*
X0043595Y0232002D01*
X0043739Y0231990D01*
X0043884Y0231974D01*
X0044028Y0231954D01*
X0044171Y0231930D01*
X0044313Y0231903D01*
X0044455Y0231871D01*
X0044596Y0231836D01*
X0044736Y0231797D01*
X0044874Y0231754D01*
X0045012Y0231707D01*
X0045148Y0231657D01*
X0045283Y0231602D01*
X0045416Y0231545D01*
X0045547Y0231483D01*
X0045677Y0231418D01*
X0045805Y0231350D01*
X0045931Y0231278D01*
X0046055Y0231202D01*
X0046177Y0231123D01*
X0046297Y0231041D01*
X0046415Y0230956D01*
X0046530Y0230867D01*
X0046642Y0230776D01*
X0046752Y0230681D01*
X0046860Y0230583D01*
X0046965Y0230483D01*
X0047066Y0230379D01*
X0047166Y0230273D01*
X0047262Y0230165D01*
X0047355Y0230053D01*
X0047445Y0229939D01*
X0047532Y0229823D01*
X0047616Y0229704D01*
X0047696Y0229584D01*
X0047773Y0229461D01*
X0047847Y0229336D01*
X0047917Y0229208D01*
X0047984Y0229080D01*
X0048047Y0228949D01*
X0048107Y0228817D01*
X0048163Y0228683D01*
X0048215Y0228547D01*
X0048264Y0228410D01*
X0048309Y0228272D01*
X0048350Y0228133D01*
X0048387Y0227993D01*
X0048421Y0227851D01*
X0048450Y0227709D01*
X0048476Y0227566D01*
X0048497Y0227423D01*
X0048515Y0227279D01*
X0048529Y0227134D01*
X0048539Y0226989D01*
X0048545Y0226844D01*
X0048547Y0226699D01*
X0048545Y0226554D01*
X0048539Y0226409D01*
X0048529Y0226264D01*
X0048515Y0226119D01*
X0048497Y0225975D01*
X0048476Y0225832D01*
X0048450Y0225689D01*
X0048421Y0225547D01*
X0048387Y0225405D01*
X0048350Y0225265D01*
X0048309Y0225126D01*
X0048264Y0224988D01*
X0048215Y0224851D01*
X0048163Y0224715D01*
X0048107Y0224581D01*
X0048047Y0224449D01*
X0047984Y0224318D01*
X0047917Y0224190D01*
X0047847Y0224062D01*
X0047773Y0223937D01*
X0047696Y0223814D01*
X0047616Y0223694D01*
X0047532Y0223575D01*
X0047445Y0223459D01*
X0047355Y0223345D01*
X0047262Y0223233D01*
X0047166Y0223125D01*
X0047066Y0223019D01*
X0046965Y0222915D01*
X0046860Y0222815D01*
X0046752Y0222717D01*
X0046642Y0222622D01*
X0046530Y0222531D01*
X0046415Y0222442D01*
X0046297Y0222357D01*
X0046177Y0222275D01*
X0046055Y0222196D01*
X0045931Y0222120D01*
X0045805Y0222048D01*
X0045677Y0221980D01*
X0045547Y0221915D01*
X0045416Y0221853D01*
X0045283Y0221796D01*
X0045148Y0221741D01*
X0045012Y0221691D01*
X0044874Y0221644D01*
X0044736Y0221601D01*
X0044596Y0221562D01*
X0044455Y0221527D01*
X0044313Y0221495D01*
X0044171Y0221468D01*
X0044028Y0221444D01*
X0043884Y0221424D01*
X0043739Y0221408D01*
X0043595Y0221396D01*
X0043450Y0221388D01*
X0043305Y0221384D01*
X0043159Y0221384D01*
X0043014Y0221388D01*
X0042869Y0221396D01*
X0042725Y0221408D01*
X0042580Y0221424D01*
X0042436Y0221444D01*
X0042293Y0221468D01*
X0042151Y0221495D01*
X0042009Y0221527D01*
X0041868Y0221562D01*
X0041728Y0221601D01*
X0041590Y0221644D01*
X0041452Y0221691D01*
X0041316Y0221741D01*
X0041181Y0221796D01*
X0041048Y0221853D01*
X0040917Y0221915D01*
X0040787Y0221980D01*
X0040659Y0222048D01*
X0040533Y0222120D01*
X0040409Y0222196D01*
X0040287Y0222275D01*
X0040167Y0222357D01*
X0040049Y0222442D01*
X0039934Y0222531D01*
X0039822Y0222622D01*
X0039712Y0222717D01*
X0039604Y0222815D01*
X0039499Y0222915D01*
X0039398Y0223019D01*
X0039298Y0223125D01*
X0039202Y0223233D01*
X0039109Y0223345D01*
X0039019Y0223459D01*
X0038932Y0223575D01*
X0038848Y0223694D01*
X0038768Y0223814D01*
X0038691Y0223937D01*
X0038617Y0224062D01*
X0038547Y0224190D01*
X0038480Y0224318D01*
X0038417Y0224449D01*
X0038357Y0224581D01*
X0038301Y0224715D01*
X0038249Y0224851D01*
X0038200Y0224988D01*
X0038155Y0225126D01*
X0038114Y0225265D01*
X0038077Y0225405D01*
X0038043Y0225547D01*
X0038014Y0225689D01*
X0037988Y0225832D01*
X0037967Y0225975D01*
X0037949Y0226119D01*
X0037935Y0226264D01*
X0037925Y0226409D01*
X0037919Y0226554D01*
X0037917Y0226699D01*
X0037917Y0283786D02*
X0037919Y0283931D01*
X0037925Y0284076D01*
X0037935Y0284221D01*
X0037949Y0284366D01*
X0037967Y0284510D01*
X0037988Y0284653D01*
X0038014Y0284796D01*
X0038043Y0284938D01*
X0038077Y0285080D01*
X0038114Y0285220D01*
X0038155Y0285359D01*
X0038200Y0285497D01*
X0038249Y0285634D01*
X0038301Y0285770D01*
X0038357Y0285904D01*
X0038417Y0286036D01*
X0038480Y0286167D01*
X0038547Y0286295D01*
X0038617Y0286423D01*
X0038691Y0286548D01*
X0038768Y0286671D01*
X0038848Y0286791D01*
X0038932Y0286910D01*
X0039019Y0287026D01*
X0039109Y0287140D01*
X0039202Y0287252D01*
X0039298Y0287360D01*
X0039398Y0287466D01*
X0039499Y0287570D01*
X0039604Y0287670D01*
X0039712Y0287768D01*
X0039822Y0287863D01*
X0039934Y0287954D01*
X0040049Y0288043D01*
X0040167Y0288128D01*
X0040287Y0288210D01*
X0040409Y0288289D01*
X0040533Y0288365D01*
X0040659Y0288437D01*
X0040787Y0288505D01*
X0040917Y0288570D01*
X0041048Y0288632D01*
X0041181Y0288689D01*
X0041316Y0288744D01*
X0041452Y0288794D01*
X0041590Y0288841D01*
X0041728Y0288884D01*
X0041868Y0288923D01*
X0042009Y0288958D01*
X0042151Y0288990D01*
X0042293Y0289017D01*
X0042436Y0289041D01*
X0042580Y0289061D01*
X0042725Y0289077D01*
X0042869Y0289089D01*
X0043014Y0289097D01*
X0043159Y0289101D01*
X0043305Y0289101D01*
X0043450Y0289097D01*
X0043595Y0289089D01*
X0043739Y0289077D01*
X0043884Y0289061D01*
X0044028Y0289041D01*
X0044171Y0289017D01*
X0044313Y0288990D01*
X0044455Y0288958D01*
X0044596Y0288923D01*
X0044736Y0288884D01*
X0044874Y0288841D01*
X0045012Y0288794D01*
X0045148Y0288744D01*
X0045283Y0288689D01*
X0045416Y0288632D01*
X0045547Y0288570D01*
X0045677Y0288505D01*
X0045805Y0288437D01*
X0045931Y0288365D01*
X0046055Y0288289D01*
X0046177Y0288210D01*
X0046297Y0288128D01*
X0046415Y0288043D01*
X0046530Y0287954D01*
X0046642Y0287863D01*
X0046752Y0287768D01*
X0046860Y0287670D01*
X0046965Y0287570D01*
X0047066Y0287466D01*
X0047166Y0287360D01*
X0047262Y0287252D01*
X0047355Y0287140D01*
X0047445Y0287026D01*
X0047532Y0286910D01*
X0047616Y0286791D01*
X0047696Y0286671D01*
X0047773Y0286548D01*
X0047847Y0286423D01*
X0047917Y0286295D01*
X0047984Y0286167D01*
X0048047Y0286036D01*
X0048107Y0285904D01*
X0048163Y0285770D01*
X0048215Y0285634D01*
X0048264Y0285497D01*
X0048309Y0285359D01*
X0048350Y0285220D01*
X0048387Y0285080D01*
X0048421Y0284938D01*
X0048450Y0284796D01*
X0048476Y0284653D01*
X0048497Y0284510D01*
X0048515Y0284366D01*
X0048529Y0284221D01*
X0048539Y0284076D01*
X0048545Y0283931D01*
X0048547Y0283786D01*
X0048545Y0283641D01*
X0048539Y0283496D01*
X0048529Y0283351D01*
X0048515Y0283206D01*
X0048497Y0283062D01*
X0048476Y0282919D01*
X0048450Y0282776D01*
X0048421Y0282634D01*
X0048387Y0282492D01*
X0048350Y0282352D01*
X0048309Y0282213D01*
X0048264Y0282075D01*
X0048215Y0281938D01*
X0048163Y0281802D01*
X0048107Y0281668D01*
X0048047Y0281536D01*
X0047984Y0281405D01*
X0047917Y0281277D01*
X0047847Y0281149D01*
X0047773Y0281024D01*
X0047696Y0280901D01*
X0047616Y0280781D01*
X0047532Y0280662D01*
X0047445Y0280546D01*
X0047355Y0280432D01*
X0047262Y0280320D01*
X0047166Y0280212D01*
X0047066Y0280106D01*
X0046965Y0280002D01*
X0046860Y0279902D01*
X0046752Y0279804D01*
X0046642Y0279709D01*
X0046530Y0279618D01*
X0046415Y0279529D01*
X0046297Y0279444D01*
X0046177Y0279362D01*
X0046055Y0279283D01*
X0045931Y0279207D01*
X0045805Y0279135D01*
X0045677Y0279067D01*
X0045547Y0279002D01*
X0045416Y0278940D01*
X0045283Y0278883D01*
X0045148Y0278828D01*
X0045012Y0278778D01*
X0044874Y0278731D01*
X0044736Y0278688D01*
X0044596Y0278649D01*
X0044455Y0278614D01*
X0044313Y0278582D01*
X0044171Y0278555D01*
X0044028Y0278531D01*
X0043884Y0278511D01*
X0043739Y0278495D01*
X0043595Y0278483D01*
X0043450Y0278475D01*
X0043305Y0278471D01*
X0043159Y0278471D01*
X0043014Y0278475D01*
X0042869Y0278483D01*
X0042725Y0278495D01*
X0042580Y0278511D01*
X0042436Y0278531D01*
X0042293Y0278555D01*
X0042151Y0278582D01*
X0042009Y0278614D01*
X0041868Y0278649D01*
X0041728Y0278688D01*
X0041590Y0278731D01*
X0041452Y0278778D01*
X0041316Y0278828D01*
X0041181Y0278883D01*
X0041048Y0278940D01*
X0040917Y0279002D01*
X0040787Y0279067D01*
X0040659Y0279135D01*
X0040533Y0279207D01*
X0040409Y0279283D01*
X0040287Y0279362D01*
X0040167Y0279444D01*
X0040049Y0279529D01*
X0039934Y0279618D01*
X0039822Y0279709D01*
X0039712Y0279804D01*
X0039604Y0279902D01*
X0039499Y0280002D01*
X0039398Y0280106D01*
X0039298Y0280212D01*
X0039202Y0280320D01*
X0039109Y0280432D01*
X0039019Y0280546D01*
X0038932Y0280662D01*
X0038848Y0280781D01*
X0038768Y0280901D01*
X0038691Y0281024D01*
X0038617Y0281149D01*
X0038547Y0281277D01*
X0038480Y0281405D01*
X0038417Y0281536D01*
X0038357Y0281668D01*
X0038301Y0281802D01*
X0038249Y0281938D01*
X0038200Y0282075D01*
X0038155Y0282213D01*
X0038114Y0282352D01*
X0038077Y0282492D01*
X0038043Y0282634D01*
X0038014Y0282776D01*
X0037988Y0282919D01*
X0037967Y0283062D01*
X0037949Y0283206D01*
X0037935Y0283351D01*
X0037925Y0283496D01*
X0037919Y0283641D01*
X0037917Y0283786D01*
X0016422Y0283786D02*
X0016424Y0283901D01*
X0016430Y0284017D01*
X0016440Y0284132D01*
X0016454Y0284247D01*
X0016472Y0284361D01*
X0016494Y0284474D01*
X0016519Y0284587D01*
X0016549Y0284698D01*
X0016582Y0284809D01*
X0016619Y0284918D01*
X0016660Y0285026D01*
X0016705Y0285133D01*
X0016753Y0285238D01*
X0016805Y0285341D01*
X0016861Y0285442D01*
X0016920Y0285542D01*
X0016982Y0285639D01*
X0017048Y0285734D01*
X0017116Y0285827D01*
X0017188Y0285917D01*
X0017263Y0286005D01*
X0017342Y0286090D01*
X0017423Y0286172D01*
X0017506Y0286252D01*
X0017593Y0286328D01*
X0017682Y0286402D01*
X0017773Y0286472D01*
X0017867Y0286540D01*
X0017963Y0286604D01*
X0018062Y0286664D01*
X0018162Y0286721D01*
X0018264Y0286775D01*
X0018368Y0286825D01*
X0018474Y0286872D01*
X0018581Y0286915D01*
X0018690Y0286954D01*
X0018800Y0286989D01*
X0018911Y0287020D01*
X0019023Y0287048D01*
X0019136Y0287072D01*
X0019250Y0287092D01*
X0019365Y0287108D01*
X0019480Y0287120D01*
X0019595Y0287128D01*
X0019710Y0287132D01*
X0019826Y0287132D01*
X0019941Y0287128D01*
X0020056Y0287120D01*
X0020171Y0287108D01*
X0020286Y0287092D01*
X0020400Y0287072D01*
X0020513Y0287048D01*
X0020625Y0287020D01*
X0020736Y0286989D01*
X0020846Y0286954D01*
X0020955Y0286915D01*
X0021062Y0286872D01*
X0021168Y0286825D01*
X0021272Y0286775D01*
X0021374Y0286721D01*
X0021474Y0286664D01*
X0021573Y0286604D01*
X0021669Y0286540D01*
X0021763Y0286472D01*
X0021854Y0286402D01*
X0021943Y0286328D01*
X0022030Y0286252D01*
X0022113Y0286172D01*
X0022194Y0286090D01*
X0022273Y0286005D01*
X0022348Y0285917D01*
X0022420Y0285827D01*
X0022488Y0285734D01*
X0022554Y0285639D01*
X0022616Y0285542D01*
X0022675Y0285442D01*
X0022731Y0285341D01*
X0022783Y0285238D01*
X0022831Y0285133D01*
X0022876Y0285026D01*
X0022917Y0284918D01*
X0022954Y0284809D01*
X0022987Y0284698D01*
X0023017Y0284587D01*
X0023042Y0284474D01*
X0023064Y0284361D01*
X0023082Y0284247D01*
X0023096Y0284132D01*
X0023106Y0284017D01*
X0023112Y0283901D01*
X0023114Y0283786D01*
X0023112Y0283671D01*
X0023106Y0283555D01*
X0023096Y0283440D01*
X0023082Y0283325D01*
X0023064Y0283211D01*
X0023042Y0283098D01*
X0023017Y0282985D01*
X0022987Y0282874D01*
X0022954Y0282763D01*
X0022917Y0282654D01*
X0022876Y0282546D01*
X0022831Y0282439D01*
X0022783Y0282334D01*
X0022731Y0282231D01*
X0022675Y0282130D01*
X0022616Y0282030D01*
X0022554Y0281933D01*
X0022488Y0281838D01*
X0022420Y0281745D01*
X0022348Y0281655D01*
X0022273Y0281567D01*
X0022194Y0281482D01*
X0022113Y0281400D01*
X0022030Y0281320D01*
X0021943Y0281244D01*
X0021854Y0281170D01*
X0021763Y0281100D01*
X0021669Y0281032D01*
X0021573Y0280968D01*
X0021474Y0280908D01*
X0021374Y0280851D01*
X0021272Y0280797D01*
X0021168Y0280747D01*
X0021062Y0280700D01*
X0020955Y0280657D01*
X0020846Y0280618D01*
X0020736Y0280583D01*
X0020625Y0280552D01*
X0020513Y0280524D01*
X0020400Y0280500D01*
X0020286Y0280480D01*
X0020171Y0280464D01*
X0020056Y0280452D01*
X0019941Y0280444D01*
X0019826Y0280440D01*
X0019710Y0280440D01*
X0019595Y0280444D01*
X0019480Y0280452D01*
X0019365Y0280464D01*
X0019250Y0280480D01*
X0019136Y0280500D01*
X0019023Y0280524D01*
X0018911Y0280552D01*
X0018800Y0280583D01*
X0018690Y0280618D01*
X0018581Y0280657D01*
X0018474Y0280700D01*
X0018368Y0280747D01*
X0018264Y0280797D01*
X0018162Y0280851D01*
X0018062Y0280908D01*
X0017963Y0280968D01*
X0017867Y0281032D01*
X0017773Y0281100D01*
X0017682Y0281170D01*
X0017593Y0281244D01*
X0017506Y0281320D01*
X0017423Y0281400D01*
X0017342Y0281482D01*
X0017263Y0281567D01*
X0017188Y0281655D01*
X0017116Y0281745D01*
X0017048Y0281838D01*
X0016982Y0281933D01*
X0016920Y0282030D01*
X0016861Y0282130D01*
X0016805Y0282231D01*
X0016753Y0282334D01*
X0016705Y0282439D01*
X0016660Y0282546D01*
X0016619Y0282654D01*
X0016582Y0282763D01*
X0016549Y0282874D01*
X0016519Y0282985D01*
X0016494Y0283098D01*
X0016472Y0283211D01*
X0016454Y0283325D01*
X0016440Y0283440D01*
X0016430Y0283555D01*
X0016424Y0283671D01*
X0016422Y0283786D01*
X0165250Y0347369D02*
X0165252Y0347527D01*
X0165258Y0347684D01*
X0165268Y0347842D01*
X0165282Y0347999D01*
X0165300Y0348155D01*
X0165321Y0348312D01*
X0165347Y0348467D01*
X0165377Y0348622D01*
X0165410Y0348776D01*
X0165448Y0348929D01*
X0165489Y0349082D01*
X0165534Y0349233D01*
X0165583Y0349383D01*
X0165636Y0349531D01*
X0165692Y0349679D01*
X0165753Y0349824D01*
X0165816Y0349969D01*
X0165884Y0350111D01*
X0165955Y0350252D01*
X0166029Y0350391D01*
X0166107Y0350528D01*
X0166189Y0350663D01*
X0166273Y0350796D01*
X0166362Y0350927D01*
X0166453Y0351055D01*
X0166548Y0351182D01*
X0166645Y0351305D01*
X0166746Y0351427D01*
X0166850Y0351545D01*
X0166957Y0351661D01*
X0167067Y0351774D01*
X0167179Y0351885D01*
X0167295Y0351992D01*
X0167413Y0352097D01*
X0167533Y0352199D01*
X0167656Y0352297D01*
X0167782Y0352393D01*
X0167910Y0352485D01*
X0168040Y0352574D01*
X0168172Y0352660D01*
X0168307Y0352742D01*
X0168444Y0352821D01*
X0168582Y0352896D01*
X0168722Y0352968D01*
X0168865Y0353036D01*
X0169008Y0353101D01*
X0169154Y0353162D01*
X0169301Y0353219D01*
X0169449Y0353273D01*
X0169599Y0353323D01*
X0169749Y0353369D01*
X0169901Y0353411D01*
X0170054Y0353450D01*
X0170208Y0353484D01*
X0170363Y0353515D01*
X0170518Y0353541D01*
X0170674Y0353564D01*
X0170831Y0353583D01*
X0170988Y0353598D01*
X0171145Y0353609D01*
X0171303Y0353616D01*
X0171461Y0353619D01*
X0171618Y0353618D01*
X0171776Y0353613D01*
X0171933Y0353604D01*
X0172091Y0353591D01*
X0172247Y0353574D01*
X0172404Y0353553D01*
X0172559Y0353529D01*
X0172714Y0353500D01*
X0172869Y0353467D01*
X0173022Y0353431D01*
X0173175Y0353390D01*
X0173326Y0353346D01*
X0173476Y0353298D01*
X0173625Y0353247D01*
X0173773Y0353191D01*
X0173919Y0353132D01*
X0174064Y0353069D01*
X0174207Y0353002D01*
X0174348Y0352932D01*
X0174487Y0352859D01*
X0174625Y0352782D01*
X0174761Y0352701D01*
X0174894Y0352617D01*
X0175025Y0352530D01*
X0175154Y0352439D01*
X0175281Y0352345D01*
X0175406Y0352248D01*
X0175527Y0352148D01*
X0175647Y0352045D01*
X0175763Y0351939D01*
X0175877Y0351830D01*
X0175989Y0351718D01*
X0176097Y0351604D01*
X0176202Y0351486D01*
X0176305Y0351366D01*
X0176404Y0351244D01*
X0176500Y0351119D01*
X0176593Y0350991D01*
X0176683Y0350862D01*
X0176769Y0350730D01*
X0176853Y0350596D01*
X0176932Y0350460D01*
X0177009Y0350322D01*
X0177081Y0350182D01*
X0177150Y0350040D01*
X0177216Y0349897D01*
X0177278Y0349752D01*
X0177336Y0349605D01*
X0177391Y0349457D01*
X0177442Y0349308D01*
X0177489Y0349157D01*
X0177532Y0349006D01*
X0177571Y0348853D01*
X0177607Y0348699D01*
X0177638Y0348545D01*
X0177666Y0348390D01*
X0177690Y0348234D01*
X0177710Y0348077D01*
X0177726Y0347920D01*
X0177738Y0347763D01*
X0177746Y0347606D01*
X0177750Y0347448D01*
X0177750Y0347290D01*
X0177746Y0347132D01*
X0177738Y0346975D01*
X0177726Y0346818D01*
X0177710Y0346661D01*
X0177690Y0346504D01*
X0177666Y0346348D01*
X0177638Y0346193D01*
X0177607Y0346039D01*
X0177571Y0345885D01*
X0177532Y0345732D01*
X0177489Y0345581D01*
X0177442Y0345430D01*
X0177391Y0345281D01*
X0177336Y0345133D01*
X0177278Y0344986D01*
X0177216Y0344841D01*
X0177150Y0344698D01*
X0177081Y0344556D01*
X0177009Y0344416D01*
X0176932Y0344278D01*
X0176853Y0344142D01*
X0176769Y0344008D01*
X0176683Y0343876D01*
X0176593Y0343747D01*
X0176500Y0343619D01*
X0176404Y0343494D01*
X0176305Y0343372D01*
X0176202Y0343252D01*
X0176097Y0343134D01*
X0175989Y0343020D01*
X0175877Y0342908D01*
X0175763Y0342799D01*
X0175647Y0342693D01*
X0175527Y0342590D01*
X0175406Y0342490D01*
X0175281Y0342393D01*
X0175154Y0342299D01*
X0175025Y0342208D01*
X0174894Y0342121D01*
X0174761Y0342037D01*
X0174625Y0341956D01*
X0174487Y0341879D01*
X0174348Y0341806D01*
X0174207Y0341736D01*
X0174064Y0341669D01*
X0173919Y0341606D01*
X0173773Y0341547D01*
X0173625Y0341491D01*
X0173476Y0341440D01*
X0173326Y0341392D01*
X0173175Y0341348D01*
X0173022Y0341307D01*
X0172869Y0341271D01*
X0172714Y0341238D01*
X0172559Y0341209D01*
X0172404Y0341185D01*
X0172247Y0341164D01*
X0172091Y0341147D01*
X0171933Y0341134D01*
X0171776Y0341125D01*
X0171618Y0341120D01*
X0171461Y0341119D01*
X0171303Y0341122D01*
X0171145Y0341129D01*
X0170988Y0341140D01*
X0170831Y0341155D01*
X0170674Y0341174D01*
X0170518Y0341197D01*
X0170363Y0341223D01*
X0170208Y0341254D01*
X0170054Y0341288D01*
X0169901Y0341327D01*
X0169749Y0341369D01*
X0169599Y0341415D01*
X0169449Y0341465D01*
X0169301Y0341519D01*
X0169154Y0341576D01*
X0169008Y0341637D01*
X0168865Y0341702D01*
X0168722Y0341770D01*
X0168582Y0341842D01*
X0168444Y0341917D01*
X0168307Y0341996D01*
X0168172Y0342078D01*
X0168040Y0342164D01*
X0167910Y0342253D01*
X0167782Y0342345D01*
X0167656Y0342441D01*
X0167533Y0342539D01*
X0167413Y0342641D01*
X0167295Y0342746D01*
X0167179Y0342853D01*
X0167067Y0342964D01*
X0166957Y0343077D01*
X0166850Y0343193D01*
X0166746Y0343311D01*
X0166645Y0343433D01*
X0166548Y0343556D01*
X0166453Y0343683D01*
X0166362Y0343811D01*
X0166273Y0343942D01*
X0166189Y0344075D01*
X0166107Y0344210D01*
X0166029Y0344347D01*
X0165955Y0344486D01*
X0165884Y0344627D01*
X0165816Y0344769D01*
X0165753Y0344914D01*
X0165692Y0345059D01*
X0165636Y0345207D01*
X0165583Y0345355D01*
X0165534Y0345505D01*
X0165489Y0345656D01*
X0165448Y0345809D01*
X0165410Y0345962D01*
X0165377Y0346116D01*
X0165347Y0346271D01*
X0165321Y0346426D01*
X0165300Y0346583D01*
X0165282Y0346739D01*
X0165268Y0346896D01*
X0165258Y0347054D01*
X0165252Y0347211D01*
X0165250Y0347369D01*
X0375250Y0347369D02*
X0375252Y0347527D01*
X0375258Y0347684D01*
X0375268Y0347842D01*
X0375282Y0347999D01*
X0375300Y0348155D01*
X0375321Y0348312D01*
X0375347Y0348467D01*
X0375377Y0348622D01*
X0375410Y0348776D01*
X0375448Y0348929D01*
X0375489Y0349082D01*
X0375534Y0349233D01*
X0375583Y0349383D01*
X0375636Y0349531D01*
X0375692Y0349679D01*
X0375753Y0349824D01*
X0375816Y0349969D01*
X0375884Y0350111D01*
X0375955Y0350252D01*
X0376029Y0350391D01*
X0376107Y0350528D01*
X0376189Y0350663D01*
X0376273Y0350796D01*
X0376362Y0350927D01*
X0376453Y0351055D01*
X0376548Y0351182D01*
X0376645Y0351305D01*
X0376746Y0351427D01*
X0376850Y0351545D01*
X0376957Y0351661D01*
X0377067Y0351774D01*
X0377179Y0351885D01*
X0377295Y0351992D01*
X0377413Y0352097D01*
X0377533Y0352199D01*
X0377656Y0352297D01*
X0377782Y0352393D01*
X0377910Y0352485D01*
X0378040Y0352574D01*
X0378172Y0352660D01*
X0378307Y0352742D01*
X0378444Y0352821D01*
X0378582Y0352896D01*
X0378722Y0352968D01*
X0378865Y0353036D01*
X0379008Y0353101D01*
X0379154Y0353162D01*
X0379301Y0353219D01*
X0379449Y0353273D01*
X0379599Y0353323D01*
X0379749Y0353369D01*
X0379901Y0353411D01*
X0380054Y0353450D01*
X0380208Y0353484D01*
X0380363Y0353515D01*
X0380518Y0353541D01*
X0380674Y0353564D01*
X0380831Y0353583D01*
X0380988Y0353598D01*
X0381145Y0353609D01*
X0381303Y0353616D01*
X0381461Y0353619D01*
X0381618Y0353618D01*
X0381776Y0353613D01*
X0381933Y0353604D01*
X0382091Y0353591D01*
X0382247Y0353574D01*
X0382404Y0353553D01*
X0382559Y0353529D01*
X0382714Y0353500D01*
X0382869Y0353467D01*
X0383022Y0353431D01*
X0383175Y0353390D01*
X0383326Y0353346D01*
X0383476Y0353298D01*
X0383625Y0353247D01*
X0383773Y0353191D01*
X0383919Y0353132D01*
X0384064Y0353069D01*
X0384207Y0353002D01*
X0384348Y0352932D01*
X0384487Y0352859D01*
X0384625Y0352782D01*
X0384761Y0352701D01*
X0384894Y0352617D01*
X0385025Y0352530D01*
X0385154Y0352439D01*
X0385281Y0352345D01*
X0385406Y0352248D01*
X0385527Y0352148D01*
X0385647Y0352045D01*
X0385763Y0351939D01*
X0385877Y0351830D01*
X0385989Y0351718D01*
X0386097Y0351604D01*
X0386202Y0351486D01*
X0386305Y0351366D01*
X0386404Y0351244D01*
X0386500Y0351119D01*
X0386593Y0350991D01*
X0386683Y0350862D01*
X0386769Y0350730D01*
X0386853Y0350596D01*
X0386932Y0350460D01*
X0387009Y0350322D01*
X0387081Y0350182D01*
X0387150Y0350040D01*
X0387216Y0349897D01*
X0387278Y0349752D01*
X0387336Y0349605D01*
X0387391Y0349457D01*
X0387442Y0349308D01*
X0387489Y0349157D01*
X0387532Y0349006D01*
X0387571Y0348853D01*
X0387607Y0348699D01*
X0387638Y0348545D01*
X0387666Y0348390D01*
X0387690Y0348234D01*
X0387710Y0348077D01*
X0387726Y0347920D01*
X0387738Y0347763D01*
X0387746Y0347606D01*
X0387750Y0347448D01*
X0387750Y0347290D01*
X0387746Y0347132D01*
X0387738Y0346975D01*
X0387726Y0346818D01*
X0387710Y0346661D01*
X0387690Y0346504D01*
X0387666Y0346348D01*
X0387638Y0346193D01*
X0387607Y0346039D01*
X0387571Y0345885D01*
X0387532Y0345732D01*
X0387489Y0345581D01*
X0387442Y0345430D01*
X0387391Y0345281D01*
X0387336Y0345133D01*
X0387278Y0344986D01*
X0387216Y0344841D01*
X0387150Y0344698D01*
X0387081Y0344556D01*
X0387009Y0344416D01*
X0386932Y0344278D01*
X0386853Y0344142D01*
X0386769Y0344008D01*
X0386683Y0343876D01*
X0386593Y0343747D01*
X0386500Y0343619D01*
X0386404Y0343494D01*
X0386305Y0343372D01*
X0386202Y0343252D01*
X0386097Y0343134D01*
X0385989Y0343020D01*
X0385877Y0342908D01*
X0385763Y0342799D01*
X0385647Y0342693D01*
X0385527Y0342590D01*
X0385406Y0342490D01*
X0385281Y0342393D01*
X0385154Y0342299D01*
X0385025Y0342208D01*
X0384894Y0342121D01*
X0384761Y0342037D01*
X0384625Y0341956D01*
X0384487Y0341879D01*
X0384348Y0341806D01*
X0384207Y0341736D01*
X0384064Y0341669D01*
X0383919Y0341606D01*
X0383773Y0341547D01*
X0383625Y0341491D01*
X0383476Y0341440D01*
X0383326Y0341392D01*
X0383175Y0341348D01*
X0383022Y0341307D01*
X0382869Y0341271D01*
X0382714Y0341238D01*
X0382559Y0341209D01*
X0382404Y0341185D01*
X0382247Y0341164D01*
X0382091Y0341147D01*
X0381933Y0341134D01*
X0381776Y0341125D01*
X0381618Y0341120D01*
X0381461Y0341119D01*
X0381303Y0341122D01*
X0381145Y0341129D01*
X0380988Y0341140D01*
X0380831Y0341155D01*
X0380674Y0341174D01*
X0380518Y0341197D01*
X0380363Y0341223D01*
X0380208Y0341254D01*
X0380054Y0341288D01*
X0379901Y0341327D01*
X0379749Y0341369D01*
X0379599Y0341415D01*
X0379449Y0341465D01*
X0379301Y0341519D01*
X0379154Y0341576D01*
X0379008Y0341637D01*
X0378865Y0341702D01*
X0378722Y0341770D01*
X0378582Y0341842D01*
X0378444Y0341917D01*
X0378307Y0341996D01*
X0378172Y0342078D01*
X0378040Y0342164D01*
X0377910Y0342253D01*
X0377782Y0342345D01*
X0377656Y0342441D01*
X0377533Y0342539D01*
X0377413Y0342641D01*
X0377295Y0342746D01*
X0377179Y0342853D01*
X0377067Y0342964D01*
X0376957Y0343077D01*
X0376850Y0343193D01*
X0376746Y0343311D01*
X0376645Y0343433D01*
X0376548Y0343556D01*
X0376453Y0343683D01*
X0376362Y0343811D01*
X0376273Y0343942D01*
X0376189Y0344075D01*
X0376107Y0344210D01*
X0376029Y0344347D01*
X0375955Y0344486D01*
X0375884Y0344627D01*
X0375816Y0344769D01*
X0375753Y0344914D01*
X0375692Y0345059D01*
X0375636Y0345207D01*
X0375583Y0345355D01*
X0375534Y0345505D01*
X0375489Y0345656D01*
X0375448Y0345809D01*
X0375410Y0345962D01*
X0375377Y0346116D01*
X0375347Y0346271D01*
X0375321Y0346426D01*
X0375300Y0346583D01*
X0375282Y0346739D01*
X0375268Y0346896D01*
X0375258Y0347054D01*
X0375252Y0347211D01*
X0375250Y0347369D01*
X0375250Y0037369D02*
X0375252Y0037527D01*
X0375258Y0037684D01*
X0375268Y0037842D01*
X0375282Y0037999D01*
X0375300Y0038155D01*
X0375321Y0038312D01*
X0375347Y0038467D01*
X0375377Y0038622D01*
X0375410Y0038776D01*
X0375448Y0038929D01*
X0375489Y0039082D01*
X0375534Y0039233D01*
X0375583Y0039383D01*
X0375636Y0039531D01*
X0375692Y0039679D01*
X0375753Y0039824D01*
X0375816Y0039969D01*
X0375884Y0040111D01*
X0375955Y0040252D01*
X0376029Y0040391D01*
X0376107Y0040528D01*
X0376189Y0040663D01*
X0376273Y0040796D01*
X0376362Y0040927D01*
X0376453Y0041055D01*
X0376548Y0041182D01*
X0376645Y0041305D01*
X0376746Y0041427D01*
X0376850Y0041545D01*
X0376957Y0041661D01*
X0377067Y0041774D01*
X0377179Y0041885D01*
X0377295Y0041992D01*
X0377413Y0042097D01*
X0377533Y0042199D01*
X0377656Y0042297D01*
X0377782Y0042393D01*
X0377910Y0042485D01*
X0378040Y0042574D01*
X0378172Y0042660D01*
X0378307Y0042742D01*
X0378444Y0042821D01*
X0378582Y0042896D01*
X0378722Y0042968D01*
X0378865Y0043036D01*
X0379008Y0043101D01*
X0379154Y0043162D01*
X0379301Y0043219D01*
X0379449Y0043273D01*
X0379599Y0043323D01*
X0379749Y0043369D01*
X0379901Y0043411D01*
X0380054Y0043450D01*
X0380208Y0043484D01*
X0380363Y0043515D01*
X0380518Y0043541D01*
X0380674Y0043564D01*
X0380831Y0043583D01*
X0380988Y0043598D01*
X0381145Y0043609D01*
X0381303Y0043616D01*
X0381461Y0043619D01*
X0381618Y0043618D01*
X0381776Y0043613D01*
X0381933Y0043604D01*
X0382091Y0043591D01*
X0382247Y0043574D01*
X0382404Y0043553D01*
X0382559Y0043529D01*
X0382714Y0043500D01*
X0382869Y0043467D01*
X0383022Y0043431D01*
X0383175Y0043390D01*
X0383326Y0043346D01*
X0383476Y0043298D01*
X0383625Y0043247D01*
X0383773Y0043191D01*
X0383919Y0043132D01*
X0384064Y0043069D01*
X0384207Y0043002D01*
X0384348Y0042932D01*
X0384487Y0042859D01*
X0384625Y0042782D01*
X0384761Y0042701D01*
X0384894Y0042617D01*
X0385025Y0042530D01*
X0385154Y0042439D01*
X0385281Y0042345D01*
X0385406Y0042248D01*
X0385527Y0042148D01*
X0385647Y0042045D01*
X0385763Y0041939D01*
X0385877Y0041830D01*
X0385989Y0041718D01*
X0386097Y0041604D01*
X0386202Y0041486D01*
X0386305Y0041366D01*
X0386404Y0041244D01*
X0386500Y0041119D01*
X0386593Y0040991D01*
X0386683Y0040862D01*
X0386769Y0040730D01*
X0386853Y0040596D01*
X0386932Y0040460D01*
X0387009Y0040322D01*
X0387081Y0040182D01*
X0387150Y0040040D01*
X0387216Y0039897D01*
X0387278Y0039752D01*
X0387336Y0039605D01*
X0387391Y0039457D01*
X0387442Y0039308D01*
X0387489Y0039157D01*
X0387532Y0039006D01*
X0387571Y0038853D01*
X0387607Y0038699D01*
X0387638Y0038545D01*
X0387666Y0038390D01*
X0387690Y0038234D01*
X0387710Y0038077D01*
X0387726Y0037920D01*
X0387738Y0037763D01*
X0387746Y0037606D01*
X0387750Y0037448D01*
X0387750Y0037290D01*
X0387746Y0037132D01*
X0387738Y0036975D01*
X0387726Y0036818D01*
X0387710Y0036661D01*
X0387690Y0036504D01*
X0387666Y0036348D01*
X0387638Y0036193D01*
X0387607Y0036039D01*
X0387571Y0035885D01*
X0387532Y0035732D01*
X0387489Y0035581D01*
X0387442Y0035430D01*
X0387391Y0035281D01*
X0387336Y0035133D01*
X0387278Y0034986D01*
X0387216Y0034841D01*
X0387150Y0034698D01*
X0387081Y0034556D01*
X0387009Y0034416D01*
X0386932Y0034278D01*
X0386853Y0034142D01*
X0386769Y0034008D01*
X0386683Y0033876D01*
X0386593Y0033747D01*
X0386500Y0033619D01*
X0386404Y0033494D01*
X0386305Y0033372D01*
X0386202Y0033252D01*
X0386097Y0033134D01*
X0385989Y0033020D01*
X0385877Y0032908D01*
X0385763Y0032799D01*
X0385647Y0032693D01*
X0385527Y0032590D01*
X0385406Y0032490D01*
X0385281Y0032393D01*
X0385154Y0032299D01*
X0385025Y0032208D01*
X0384894Y0032121D01*
X0384761Y0032037D01*
X0384625Y0031956D01*
X0384487Y0031879D01*
X0384348Y0031806D01*
X0384207Y0031736D01*
X0384064Y0031669D01*
X0383919Y0031606D01*
X0383773Y0031547D01*
X0383625Y0031491D01*
X0383476Y0031440D01*
X0383326Y0031392D01*
X0383175Y0031348D01*
X0383022Y0031307D01*
X0382869Y0031271D01*
X0382714Y0031238D01*
X0382559Y0031209D01*
X0382404Y0031185D01*
X0382247Y0031164D01*
X0382091Y0031147D01*
X0381933Y0031134D01*
X0381776Y0031125D01*
X0381618Y0031120D01*
X0381461Y0031119D01*
X0381303Y0031122D01*
X0381145Y0031129D01*
X0380988Y0031140D01*
X0380831Y0031155D01*
X0380674Y0031174D01*
X0380518Y0031197D01*
X0380363Y0031223D01*
X0380208Y0031254D01*
X0380054Y0031288D01*
X0379901Y0031327D01*
X0379749Y0031369D01*
X0379599Y0031415D01*
X0379449Y0031465D01*
X0379301Y0031519D01*
X0379154Y0031576D01*
X0379008Y0031637D01*
X0378865Y0031702D01*
X0378722Y0031770D01*
X0378582Y0031842D01*
X0378444Y0031917D01*
X0378307Y0031996D01*
X0378172Y0032078D01*
X0378040Y0032164D01*
X0377910Y0032253D01*
X0377782Y0032345D01*
X0377656Y0032441D01*
X0377533Y0032539D01*
X0377413Y0032641D01*
X0377295Y0032746D01*
X0377179Y0032853D01*
X0377067Y0032964D01*
X0376957Y0033077D01*
X0376850Y0033193D01*
X0376746Y0033311D01*
X0376645Y0033433D01*
X0376548Y0033556D01*
X0376453Y0033683D01*
X0376362Y0033811D01*
X0376273Y0033942D01*
X0376189Y0034075D01*
X0376107Y0034210D01*
X0376029Y0034347D01*
X0375955Y0034486D01*
X0375884Y0034627D01*
X0375816Y0034769D01*
X0375753Y0034914D01*
X0375692Y0035059D01*
X0375636Y0035207D01*
X0375583Y0035355D01*
X0375534Y0035505D01*
X0375489Y0035656D01*
X0375448Y0035809D01*
X0375410Y0035962D01*
X0375377Y0036116D01*
X0375347Y0036271D01*
X0375321Y0036426D01*
X0375300Y0036583D01*
X0375282Y0036739D01*
X0375268Y0036896D01*
X0375258Y0037054D01*
X0375252Y0037211D01*
X0375250Y0037369D01*
D11*
X0326262Y0154724D02*
X0326696Y0155158D01*
X0326696Y0156025D01*
X0326262Y0156459D01*
X0324094Y0156459D01*
X0324528Y0157670D02*
X0324094Y0158104D01*
X0324094Y0158971D01*
X0324528Y0159405D01*
X0324961Y0159405D01*
X0326696Y0157670D01*
X0326696Y0159405D01*
X0326262Y0154724D02*
X0324094Y0154724D01*
X0265296Y0198510D02*
X0226264Y0237543D01*
X0187231Y0198510D01*
X0226264Y0159478D01*
X0265296Y0198510D01*
X0193172Y0199359D02*
X0193122Y0199406D01*
X0193069Y0199450D01*
X0193014Y0199491D01*
X0192957Y0199529D01*
X0192898Y0199563D01*
X0192837Y0199594D01*
X0192774Y0199622D01*
X0192710Y0199646D01*
X0192645Y0199666D01*
X0192578Y0199683D01*
X0192511Y0199695D01*
X0192443Y0199704D01*
X0192374Y0199709D01*
X0192306Y0199710D01*
X0192237Y0199707D01*
X0192169Y0199700D01*
X0192102Y0199689D01*
X0192035Y0199675D01*
X0191969Y0199656D01*
X0191904Y0199634D01*
X0191840Y0199609D01*
X0191778Y0199579D01*
X0191718Y0199546D01*
X0191660Y0199510D01*
X0191604Y0199471D01*
X0191550Y0199428D01*
X0191499Y0199382D01*
X0191451Y0199334D01*
X0191405Y0199283D01*
X0191362Y0199229D01*
X0191323Y0199173D01*
X0191287Y0199115D01*
X0191254Y0199055D01*
X0191224Y0198993D01*
X0191199Y0198929D01*
X0191177Y0198864D01*
X0191158Y0198798D01*
X0191144Y0198731D01*
X0191133Y0198664D01*
X0191126Y0198596D01*
X0191123Y0198527D01*
X0191124Y0198459D01*
X0191129Y0198390D01*
X0191138Y0198322D01*
X0191150Y0198255D01*
X0191167Y0198188D01*
X0191187Y0198123D01*
X0191211Y0198059D01*
X0191239Y0197996D01*
X0191270Y0197935D01*
X0191304Y0197876D01*
X0191342Y0197819D01*
X0191383Y0197764D01*
X0191427Y0197711D01*
X0191474Y0197661D01*
X0191524Y0197614D01*
X0191577Y0197570D01*
X0191632Y0197529D01*
X0191689Y0197491D01*
X0191748Y0197457D01*
X0191809Y0197426D01*
X0191872Y0197398D01*
X0191936Y0197374D01*
X0192001Y0197354D01*
X0192068Y0197337D01*
X0192135Y0197325D01*
X0192203Y0197316D01*
X0192272Y0197311D01*
X0192340Y0197310D01*
X0192409Y0197313D01*
X0192477Y0197320D01*
X0192544Y0197331D01*
X0192611Y0197345D01*
X0192677Y0197364D01*
X0192742Y0197386D01*
X0192806Y0197411D01*
X0192868Y0197441D01*
X0192928Y0197474D01*
X0192986Y0197510D01*
X0193042Y0197549D01*
X0193096Y0197592D01*
X0193147Y0197638D01*
X0193195Y0197686D01*
X0193241Y0197737D01*
X0193284Y0197791D01*
X0193323Y0197847D01*
X0193359Y0197905D01*
X0193392Y0197965D01*
X0193422Y0198027D01*
X0193447Y0198091D01*
X0193469Y0198156D01*
X0193488Y0198222D01*
X0193502Y0198289D01*
X0193513Y0198356D01*
X0193520Y0198424D01*
X0193523Y0198493D01*
X0193522Y0198561D01*
X0193517Y0198630D01*
X0193508Y0198698D01*
X0193496Y0198765D01*
X0193479Y0198832D01*
X0193459Y0198897D01*
X0193435Y0198961D01*
X0193407Y0199024D01*
X0193376Y0199085D01*
X0193342Y0199144D01*
X0193304Y0199201D01*
X0193263Y0199256D01*
X0193219Y0199309D01*
X0193172Y0199359D01*
X0158490Y0223343D02*
X0158490Y0227243D01*
X0156990Y0227243D01*
X0156990Y0223343D01*
X0158490Y0223343D01*
X0155890Y0223343D02*
X0155890Y0227243D01*
X0154390Y0227243D01*
X0154390Y0223343D01*
X0155890Y0223343D01*
X0153290Y0223343D02*
X0153290Y0227243D01*
X0151790Y0227243D01*
X0151790Y0223343D01*
X0153290Y0223343D01*
X0150790Y0223343D02*
X0150790Y0227243D01*
X0149290Y0227243D01*
X0149290Y0223343D01*
X0150790Y0223343D01*
X0148190Y0223343D02*
X0148190Y0227243D01*
X0146690Y0227243D01*
X0146690Y0223343D01*
X0148190Y0223343D01*
X0145690Y0223343D02*
X0145690Y0227243D01*
X0144190Y0227243D01*
X0144190Y0223343D01*
X0145690Y0223343D01*
X0143090Y0223343D02*
X0143090Y0227243D01*
X0141590Y0227243D01*
X0141590Y0223343D01*
X0143090Y0223343D01*
X0140490Y0223343D02*
X0140490Y0227243D01*
X0138990Y0227243D01*
X0138990Y0223343D01*
X0140490Y0223343D01*
X0137990Y0223343D02*
X0137990Y0227243D01*
X0136490Y0227243D01*
X0136490Y0223343D01*
X0137990Y0223343D01*
X0135390Y0223343D02*
X0135390Y0227243D01*
X0133890Y0227243D01*
X0133890Y0223343D01*
X0135390Y0223343D01*
X0132890Y0223343D02*
X0132890Y0227243D01*
X0131390Y0227243D01*
X0131390Y0223343D01*
X0132890Y0223343D01*
X0130290Y0223343D02*
X0130290Y0227243D01*
X0128790Y0227243D01*
X0128790Y0223343D01*
X0130290Y0223343D01*
X0127790Y0223343D02*
X0127790Y0227243D01*
X0126290Y0227243D01*
X0126290Y0223343D01*
X0127790Y0223343D01*
X0125190Y0223343D02*
X0125190Y0227243D01*
X0123690Y0227243D01*
X0123690Y0223343D01*
X0125190Y0223343D01*
X0122590Y0223343D02*
X0122590Y0227243D01*
X0121090Y0227243D01*
X0121090Y0223343D01*
X0122590Y0223343D01*
X0120090Y0223343D02*
X0120090Y0227243D01*
X0118590Y0227243D01*
X0118590Y0223343D01*
X0120090Y0223343D01*
X0117490Y0223343D02*
X0117490Y0227243D01*
X0115990Y0227243D01*
X0115990Y0223343D01*
X0117490Y0223343D01*
X0114990Y0223343D02*
X0114990Y0227243D01*
X0113490Y0227243D01*
X0113490Y0223343D01*
X0114990Y0223343D01*
X0112390Y0223343D02*
X0112390Y0227243D01*
X0110890Y0227243D01*
X0110890Y0223343D01*
X0112390Y0223343D01*
X0109790Y0223343D02*
X0109790Y0227243D01*
X0108290Y0227243D01*
X0108290Y0223343D01*
X0109790Y0223343D01*
X0105390Y0227243D02*
X0161390Y0227243D01*
X0161390Y0283243D01*
X0105390Y0283243D01*
X0105390Y0227243D01*
X0105390Y0230143D02*
X0101490Y0230143D01*
X0101490Y0231643D01*
X0105390Y0231643D01*
X0105390Y0230143D01*
X0105390Y0232743D02*
X0101490Y0232743D01*
X0101490Y0234243D01*
X0105390Y0234243D01*
X0105390Y0232743D01*
X0105390Y0235343D02*
X0101490Y0235343D01*
X0101490Y0236843D01*
X0105390Y0236843D01*
X0105390Y0235343D01*
X0105390Y0237843D02*
X0101490Y0237843D01*
X0101490Y0239343D01*
X0105390Y0239343D01*
X0105390Y0237843D01*
X0105390Y0240443D02*
X0101490Y0240443D01*
X0101490Y0241943D01*
X0105390Y0241943D01*
X0105390Y0240443D01*
X0105390Y0242943D02*
X0101490Y0242943D01*
X0101490Y0244443D01*
X0105390Y0244443D01*
X0105390Y0242943D01*
X0105390Y0245543D02*
X0101490Y0245543D01*
X0101490Y0247043D01*
X0105390Y0247043D01*
X0105390Y0245543D01*
X0105390Y0248143D02*
X0101490Y0248143D01*
X0101490Y0249643D01*
X0105390Y0249643D01*
X0105390Y0248143D01*
X0105390Y0250643D02*
X0101490Y0250643D01*
X0101490Y0252143D01*
X0105390Y0252143D01*
X0105390Y0250643D01*
X0105390Y0253243D02*
X0101490Y0253243D01*
X0101490Y0254743D01*
X0105390Y0254743D01*
X0105390Y0253243D01*
X0105390Y0255743D02*
X0101490Y0255743D01*
X0101490Y0257243D01*
X0105390Y0257243D01*
X0105390Y0255743D01*
X0105390Y0258343D02*
X0101490Y0258343D01*
X0101490Y0259843D01*
X0105390Y0259843D01*
X0105390Y0258343D01*
X0105390Y0260843D02*
X0101490Y0260843D01*
X0101490Y0262343D01*
X0105390Y0262343D01*
X0105390Y0260843D01*
X0105390Y0263443D02*
X0101490Y0263443D01*
X0101490Y0264943D01*
X0105390Y0264943D01*
X0105390Y0263443D01*
X0105390Y0266043D02*
X0101490Y0266043D01*
X0101490Y0267543D01*
X0105390Y0267543D01*
X0105390Y0266043D01*
X0105390Y0268543D02*
X0101490Y0268543D01*
X0101490Y0270043D01*
X0105390Y0270043D01*
X0105390Y0268543D01*
X0105390Y0271143D02*
X0101490Y0271143D01*
X0101490Y0272643D01*
X0105390Y0272643D01*
X0105390Y0271143D01*
X0105390Y0273643D02*
X0101490Y0273643D01*
X0101490Y0275143D01*
X0105390Y0275143D01*
X0105390Y0273643D01*
X0105390Y0276243D02*
X0101490Y0276243D01*
X0101490Y0277743D01*
X0105390Y0277743D01*
X0105390Y0276243D01*
X0105390Y0278843D02*
X0101490Y0278843D01*
X0101490Y0280343D01*
X0105390Y0280343D01*
X0105390Y0278843D01*
X0108290Y0283243D02*
X0108290Y0287143D01*
X0109790Y0287143D01*
X0109790Y0283243D01*
X0108290Y0283243D01*
X0110890Y0283243D02*
X0110890Y0287143D01*
X0112390Y0287143D01*
X0112390Y0283243D01*
X0110890Y0283243D01*
X0113490Y0283243D02*
X0113490Y0287143D01*
X0114990Y0287143D01*
X0114990Y0283243D01*
X0113490Y0283243D01*
X0115990Y0283243D02*
X0115990Y0287143D01*
X0117490Y0287143D01*
X0117490Y0283243D01*
X0115990Y0283243D01*
X0118590Y0283243D02*
X0118590Y0287143D01*
X0120090Y0287143D01*
X0120090Y0283243D01*
X0118590Y0283243D01*
X0121090Y0283243D02*
X0121090Y0287143D01*
X0122590Y0287143D01*
X0122590Y0283243D01*
X0121090Y0283243D01*
X0123690Y0283243D02*
X0123690Y0287143D01*
X0125190Y0287143D01*
X0125190Y0283243D01*
X0123690Y0283243D01*
X0126290Y0283243D02*
X0126290Y0287143D01*
X0127790Y0287143D01*
X0127790Y0283243D01*
X0126290Y0283243D01*
X0128790Y0283243D02*
X0128790Y0287143D01*
X0130290Y0287143D01*
X0130290Y0283243D01*
X0128790Y0283243D01*
X0131390Y0283243D02*
X0131390Y0287143D01*
X0132890Y0287143D01*
X0132890Y0283243D01*
X0131390Y0283243D01*
X0133890Y0283243D02*
X0133890Y0287143D01*
X0135390Y0287143D01*
X0135390Y0283243D01*
X0133890Y0283243D01*
X0136490Y0283243D02*
X0136490Y0287143D01*
X0137990Y0287143D01*
X0137990Y0283243D01*
X0136490Y0283243D01*
X0138990Y0283243D02*
X0138990Y0287143D01*
X0140490Y0287143D01*
X0140490Y0283243D01*
X0138990Y0283243D01*
X0141590Y0283243D02*
X0141590Y0287143D01*
X0143090Y0287143D01*
X0143090Y0283243D01*
X0141590Y0283243D01*
X0144190Y0283243D02*
X0144190Y0287143D01*
X0145690Y0287143D01*
X0145690Y0283243D01*
X0144190Y0283243D01*
X0146690Y0283243D02*
X0146690Y0287143D01*
X0148190Y0287143D01*
X0148190Y0283243D01*
X0146690Y0283243D01*
X0149290Y0283243D02*
X0149290Y0287143D01*
X0150790Y0287143D01*
X0150790Y0283243D01*
X0149290Y0283243D01*
X0151790Y0283243D02*
X0151790Y0287143D01*
X0153290Y0287143D01*
X0153290Y0283243D01*
X0151790Y0283243D01*
X0154390Y0283243D02*
X0154390Y0287143D01*
X0155890Y0287143D01*
X0155890Y0283243D01*
X0154390Y0283243D01*
X0156390Y0283243D02*
X0161390Y0278243D01*
X0161390Y0277743D02*
X0165290Y0277743D01*
X0165290Y0276243D01*
X0161390Y0276243D01*
X0161390Y0277743D01*
X0161390Y0278843D02*
X0165290Y0278843D01*
X0165290Y0280343D01*
X0161390Y0280343D01*
X0161390Y0278843D01*
X0161390Y0275143D02*
X0165290Y0275143D01*
X0165290Y0273643D01*
X0161390Y0273643D01*
X0161390Y0275143D01*
X0161390Y0272643D02*
X0165290Y0272643D01*
X0165290Y0271143D01*
X0161390Y0271143D01*
X0161390Y0272643D01*
X0161390Y0270043D02*
X0165290Y0270043D01*
X0165290Y0268543D01*
X0161390Y0268543D01*
X0161390Y0270043D01*
X0161390Y0267543D02*
X0165290Y0267543D01*
X0165290Y0266043D01*
X0161390Y0266043D01*
X0161390Y0267543D01*
X0161390Y0264943D02*
X0165290Y0264943D01*
X0165290Y0263443D01*
X0161390Y0263443D01*
X0161390Y0264943D01*
X0161390Y0262343D02*
X0165290Y0262343D01*
X0165290Y0260843D01*
X0161390Y0260843D01*
X0161390Y0262343D01*
X0161390Y0259843D02*
X0165290Y0259843D01*
X0165290Y0258343D01*
X0161390Y0258343D01*
X0161390Y0259843D01*
X0161390Y0257243D02*
X0165290Y0257243D01*
X0165290Y0255743D01*
X0161390Y0255743D01*
X0161390Y0257243D01*
X0161390Y0254743D02*
X0165290Y0254743D01*
X0165290Y0253243D01*
X0161390Y0253243D01*
X0161390Y0254743D01*
X0161390Y0252143D02*
X0165290Y0252143D01*
X0165290Y0250643D01*
X0161390Y0250643D01*
X0161390Y0252143D01*
X0161390Y0249643D02*
X0165290Y0249643D01*
X0165290Y0248143D01*
X0161390Y0248143D01*
X0161390Y0249643D01*
X0161390Y0247043D02*
X0165290Y0247043D01*
X0165290Y0245543D01*
X0161390Y0245543D01*
X0161390Y0247043D01*
X0161390Y0244443D02*
X0165290Y0244443D01*
X0165290Y0242943D01*
X0161390Y0242943D01*
X0161390Y0244443D01*
X0161390Y0241943D02*
X0165290Y0241943D01*
X0165290Y0240443D01*
X0161390Y0240443D01*
X0161390Y0241943D01*
X0161390Y0239343D02*
X0165290Y0239343D01*
X0165290Y0237843D01*
X0161390Y0237843D01*
X0161390Y0239343D01*
X0161390Y0236843D02*
X0165290Y0236843D01*
X0165290Y0235343D01*
X0161390Y0235343D01*
X0161390Y0236843D01*
X0161390Y0234243D02*
X0165290Y0234243D01*
X0165290Y0232743D01*
X0161390Y0232743D01*
X0161390Y0234243D01*
X0161390Y0231643D02*
X0165290Y0231643D01*
X0165290Y0230143D01*
X0161390Y0230143D01*
X0161390Y0231643D01*
X0158490Y0283243D02*
X0158490Y0287143D01*
X0156990Y0287143D01*
X0156990Y0283243D01*
X0158490Y0283243D01*
X0182509Y0350740D02*
X0186779Y0350740D01*
X0188954Y0351807D02*
X0190022Y0350740D01*
X0192157Y0350740D01*
X0193224Y0351807D01*
X0195400Y0350740D02*
X0199670Y0350740D01*
X0197535Y0353942D02*
X0195400Y0353942D01*
X0193224Y0356077D02*
X0192157Y0357145D01*
X0190022Y0357145D01*
X0188954Y0356077D01*
X0188954Y0351807D01*
X0184644Y0353942D02*
X0182509Y0353942D01*
X0182509Y0350740D02*
X0182509Y0357145D01*
X0186779Y0357145D01*
X0195400Y0357145D02*
X0195400Y0350740D01*
X0201845Y0353942D02*
X0206115Y0353942D01*
X0208291Y0351807D02*
X0208291Y0350740D01*
X0208291Y0351807D02*
X0212561Y0356077D01*
X0212561Y0357145D01*
X0208291Y0357145D01*
X0205048Y0357145D02*
X0201845Y0353942D01*
X0199670Y0357145D02*
X0195400Y0357145D01*
X0205048Y0357145D02*
X0205048Y0350740D01*
X0214736Y0350740D02*
X0214736Y0351807D01*
X0219006Y0356077D01*
X0219006Y0357145D01*
X0214736Y0357145D01*
X0227627Y0356077D02*
X0227627Y0351807D01*
X0228695Y0350740D01*
X0230830Y0350740D01*
X0231897Y0351807D01*
X0231897Y0353942D01*
X0229762Y0353942D01*
X0227627Y0356077D02*
X0228695Y0357145D01*
X0230830Y0357145D01*
X0231897Y0356077D01*
X0234073Y0355010D02*
X0234073Y0350740D01*
X0234073Y0352875D02*
X0236208Y0355010D01*
X0237275Y0355010D01*
X0239444Y0353942D02*
X0239444Y0351807D01*
X0240511Y0350740D01*
X0242647Y0350740D01*
X0243714Y0351807D01*
X0243714Y0353942D01*
X0242647Y0355010D01*
X0240511Y0355010D01*
X0239444Y0353942D01*
X0245889Y0355010D02*
X0245889Y0351807D01*
X0246957Y0350740D01*
X0250160Y0350740D01*
X0250160Y0355010D01*
X0252335Y0355010D02*
X0252335Y0348604D01*
X0252335Y0350740D02*
X0255538Y0350740D01*
X0256605Y0351807D01*
X0256605Y0353942D01*
X0255538Y0355010D01*
X0252335Y0355010D01*
X0265226Y0355010D02*
X0267361Y0357145D01*
X0267361Y0350740D01*
X0265226Y0350740D02*
X0269496Y0350740D01*
X0271671Y0350740D02*
X0275942Y0355010D01*
X0275942Y0356077D01*
X0274874Y0357145D01*
X0272739Y0357145D01*
X0271671Y0356077D01*
X0271671Y0350740D02*
X0275942Y0350740D01*
X0277391Y0353268D02*
X0279526Y0351133D01*
X0281661Y0353268D01*
X0281661Y0357539D01*
X0283836Y0355404D02*
X0285971Y0357539D01*
X0285971Y0351133D01*
X0283836Y0351133D02*
X0288106Y0351133D01*
X0290282Y0351133D02*
X0290282Y0352201D01*
X0291349Y0352201D01*
X0291349Y0351133D01*
X0290282Y0351133D01*
X0293504Y0352201D02*
X0297775Y0356471D01*
X0297775Y0352201D01*
X0296707Y0351133D01*
X0294572Y0351133D01*
X0293504Y0352201D01*
X0293504Y0356471D01*
X0294572Y0357539D01*
X0296707Y0357539D01*
X0297775Y0356471D01*
X0297401Y0343759D02*
X0296333Y0342692D01*
X0297401Y0343759D02*
X0299536Y0343759D01*
X0300604Y0342692D01*
X0300604Y0341624D01*
X0299536Y0340557D01*
X0300604Y0339489D01*
X0300604Y0338421D01*
X0299536Y0337354D01*
X0297401Y0337354D01*
X0296333Y0338421D01*
X0294158Y0337354D02*
X0289888Y0337354D01*
X0292023Y0337354D02*
X0292023Y0343759D01*
X0289888Y0341624D01*
X0287713Y0343759D02*
X0283442Y0337354D01*
X0281267Y0338421D02*
X0280200Y0337354D01*
X0278064Y0337354D01*
X0276997Y0338421D01*
X0279132Y0340557D02*
X0280200Y0340557D01*
X0281267Y0339489D01*
X0281267Y0338421D01*
X0280200Y0340557D02*
X0281267Y0341624D01*
X0281267Y0342692D01*
X0280200Y0343759D01*
X0278064Y0343759D01*
X0276997Y0342692D01*
X0277391Y0353268D02*
X0277391Y0357539D01*
X0298468Y0340557D02*
X0299536Y0340557D01*
X0302779Y0337354D02*
X0307049Y0343759D01*
X0309224Y0342692D02*
X0310292Y0343759D01*
X0312427Y0343759D01*
X0313495Y0342692D01*
X0313495Y0341624D01*
X0309224Y0337354D01*
X0313495Y0337354D01*
X0315670Y0338421D02*
X0319940Y0342692D01*
X0319940Y0338421D01*
X0318873Y0337354D01*
X0316737Y0337354D01*
X0315670Y0338421D01*
X0315670Y0342692D01*
X0316737Y0343759D01*
X0318873Y0343759D01*
X0319940Y0342692D01*
X0322115Y0341624D02*
X0324250Y0343759D01*
X0324250Y0337354D01*
X0322115Y0337354D02*
X0326386Y0337354D01*
X0328561Y0338421D02*
X0329628Y0337354D01*
X0331764Y0337354D01*
X0332831Y0338421D01*
X0332831Y0340557D01*
X0331764Y0341624D01*
X0330696Y0341624D01*
X0328561Y0340557D01*
X0328561Y0343759D01*
X0332831Y0343759D01*
X0171933Y0133747D02*
X0162209Y0133747D01*
X0162209Y0133746D02*
X0162147Y0133744D01*
X0162086Y0133738D01*
X0162025Y0133729D01*
X0161964Y0133715D01*
X0161905Y0133698D01*
X0161847Y0133677D01*
X0161790Y0133652D01*
X0161735Y0133624D01*
X0161682Y0133593D01*
X0161631Y0133558D01*
X0161582Y0133520D01*
X0161535Y0133479D01*
X0161492Y0133436D01*
X0161451Y0133389D01*
X0161413Y0133340D01*
X0161378Y0133289D01*
X0161347Y0133236D01*
X0161319Y0133181D01*
X0161294Y0133124D01*
X0161273Y0133066D01*
X0161256Y0133007D01*
X0161242Y0132946D01*
X0161233Y0132885D01*
X0161227Y0132824D01*
X0161225Y0132762D01*
X0161224Y0132802D02*
X0161224Y0123117D01*
X0162209Y0122093D02*
X0171894Y0122093D01*
X0172917Y0123117D02*
X0172917Y0132802D01*
X0172917Y0132762D02*
X0172915Y0132824D01*
X0172909Y0132885D01*
X0172900Y0132946D01*
X0172886Y0133007D01*
X0172869Y0133066D01*
X0172848Y0133124D01*
X0172823Y0133181D01*
X0172795Y0133236D01*
X0172764Y0133289D01*
X0172729Y0133340D01*
X0172691Y0133389D01*
X0172650Y0133436D01*
X0172607Y0133479D01*
X0172560Y0133520D01*
X0172511Y0133558D01*
X0172460Y0133593D01*
X0172407Y0133624D01*
X0172352Y0133652D01*
X0172295Y0133677D01*
X0172237Y0133698D01*
X0172178Y0133715D01*
X0172117Y0133729D01*
X0172056Y0133738D01*
X0171995Y0133744D01*
X0171933Y0133746D01*
D12*
X0169655Y0118121D02*
X0169655Y0116120D01*
X0169405Y0116370D02*
X0169905Y0116370D01*
X0170156Y0116620D01*
X0170156Y0116870D01*
X0169905Y0117121D01*
X0169405Y0117121D01*
X0169155Y0117371D01*
X0169155Y0117621D01*
X0169405Y0117871D01*
X0169905Y0117871D01*
X0170156Y0117621D01*
X0170628Y0117871D02*
X0171629Y0117871D01*
X0171629Y0117621D01*
X0170628Y0116620D01*
X0170628Y0116370D01*
X0169405Y0116370D02*
X0169155Y0116620D01*
X0168682Y0116620D02*
X0168682Y0117871D01*
X0167681Y0117871D02*
X0167681Y0116620D01*
X0167932Y0116370D01*
X0168432Y0116370D01*
X0168682Y0116620D01*
X0172539Y0108811D02*
X0172789Y0108311D01*
X0173290Y0107810D01*
X0173290Y0108561D01*
X0173540Y0108811D01*
X0173790Y0108811D01*
X0174041Y0108561D01*
X0174041Y0108060D01*
X0173790Y0107810D01*
X0173290Y0107810D01*
X0173290Y0107338D02*
X0173290Y0106337D01*
X0172539Y0107088D01*
X0174041Y0107088D01*
X0173790Y0105864D02*
X0174041Y0105614D01*
X0174041Y0105114D01*
X0173790Y0104864D01*
X0172789Y0104864D01*
X0172539Y0105114D01*
X0172539Y0105614D01*
X0172789Y0105864D01*
X0150423Y0093967D02*
X0149422Y0093967D01*
X0149422Y0093217D01*
X0149922Y0093467D01*
X0150172Y0093467D01*
X0150423Y0093217D01*
X0150423Y0092716D01*
X0150172Y0092466D01*
X0149672Y0092466D01*
X0149422Y0092716D01*
X0148949Y0092466D02*
X0147948Y0092466D01*
X0147476Y0092466D02*
X0146976Y0092966D01*
X0147226Y0092966D02*
X0146475Y0092966D01*
X0146475Y0092466D02*
X0146475Y0093967D01*
X0147226Y0093967D01*
X0147476Y0093717D01*
X0147476Y0093217D01*
X0147226Y0092966D01*
X0147948Y0093467D02*
X0148449Y0093967D01*
X0148449Y0092466D01*
X0133493Y0093217D02*
X0132493Y0093217D01*
X0133243Y0093967D01*
X0133243Y0092466D01*
X0132020Y0093217D02*
X0131019Y0093217D01*
X0131770Y0093967D01*
X0131770Y0092466D01*
X0130547Y0092716D02*
X0130297Y0092466D01*
X0129796Y0092466D01*
X0129546Y0092716D01*
X0129546Y0093717D01*
X0129796Y0093967D01*
X0130297Y0093967D01*
X0130547Y0093717D01*
X0117397Y0064541D02*
X0118398Y0063540D01*
X0118648Y0063540D01*
X0118398Y0063068D02*
X0118648Y0062817D01*
X0118648Y0062317D01*
X0118398Y0062067D01*
X0117397Y0062067D01*
X0117147Y0062317D01*
X0117147Y0062817D01*
X0117397Y0063068D01*
X0117147Y0063540D02*
X0117147Y0064541D01*
X0117397Y0064541D01*
X0069436Y0039094D02*
X0067935Y0039094D01*
X0068685Y0038343D01*
X0068685Y0039344D01*
X0068185Y0037871D02*
X0067935Y0037620D01*
X0067935Y0037120D01*
X0068185Y0036870D01*
X0069186Y0036870D01*
X0069436Y0037120D01*
X0069436Y0037620D01*
X0069186Y0037871D01*
X0173457Y0025312D02*
X0174207Y0024561D01*
X0174207Y0025562D01*
X0173457Y0025312D02*
X0174958Y0025312D01*
X0174708Y0024089D02*
X0173457Y0024089D01*
X0173457Y0023088D02*
X0174708Y0023088D01*
X0174958Y0023338D01*
X0174958Y0023839D01*
X0174708Y0024089D01*
X0211292Y0067663D02*
X0211793Y0067663D01*
X0212043Y0067913D01*
X0212515Y0067913D02*
X0212515Y0068163D01*
X0212766Y0068413D01*
X0213266Y0068413D01*
X0213516Y0068163D01*
X0213516Y0067913D01*
X0213266Y0067663D01*
X0212766Y0067663D01*
X0212515Y0067913D01*
X0212766Y0068413D02*
X0212515Y0068664D01*
X0212515Y0068914D01*
X0212766Y0069164D01*
X0213266Y0069164D01*
X0213516Y0068914D01*
X0213516Y0068664D01*
X0213266Y0068413D01*
X0212043Y0068914D02*
X0211793Y0069164D01*
X0211292Y0069164D01*
X0211042Y0068914D01*
X0211042Y0067913D01*
X0211292Y0067663D01*
X0226596Y0077773D02*
X0226846Y0077523D01*
X0227847Y0077523D01*
X0228097Y0077773D01*
X0228097Y0078273D01*
X0227847Y0078523D01*
X0228097Y0078996D02*
X0228097Y0079997D01*
X0228097Y0079496D02*
X0226596Y0079496D01*
X0227096Y0078996D01*
X0226846Y0078523D02*
X0226596Y0078273D01*
X0226596Y0077773D01*
X0226846Y0080469D02*
X0226596Y0080719D01*
X0226596Y0081220D01*
X0226846Y0081470D01*
X0227847Y0080469D01*
X0228097Y0080719D01*
X0228097Y0081220D01*
X0227847Y0081470D01*
X0226846Y0081470D01*
X0226846Y0080469D02*
X0227847Y0080469D01*
X0214318Y0084466D02*
X0214318Y0084966D01*
X0214068Y0085216D01*
X0214318Y0085689D02*
X0214318Y0086690D01*
X0214318Y0087162D02*
X0214318Y0088163D01*
X0214318Y0087662D02*
X0212816Y0087662D01*
X0213317Y0087162D01*
X0212816Y0086189D02*
X0214318Y0086189D01*
X0213317Y0085689D02*
X0212816Y0086189D01*
X0213067Y0085216D02*
X0212816Y0084966D01*
X0212816Y0084466D01*
X0213067Y0084216D01*
X0214068Y0084216D01*
X0214318Y0084466D01*
X0194755Y0074452D02*
X0194755Y0073952D01*
X0194505Y0073701D01*
X0194755Y0073229D02*
X0194254Y0072729D01*
X0194254Y0072979D02*
X0194254Y0072228D01*
X0194755Y0072228D02*
X0193253Y0072228D01*
X0193253Y0072979D01*
X0193504Y0073229D01*
X0194004Y0073229D01*
X0194254Y0072979D01*
X0193504Y0073701D02*
X0193253Y0073952D01*
X0193253Y0074452D01*
X0193504Y0074702D01*
X0193754Y0074702D01*
X0194004Y0074452D01*
X0194254Y0074702D01*
X0194505Y0074702D01*
X0194755Y0074452D01*
X0194004Y0074452D02*
X0194004Y0074202D01*
X0214229Y0115260D02*
X0214229Y0116761D01*
X0214980Y0116761D01*
X0215230Y0116511D01*
X0215230Y0116010D01*
X0214980Y0115760D01*
X0214229Y0115760D01*
X0214730Y0115760D02*
X0215230Y0115260D01*
X0215703Y0115260D02*
X0215703Y0115510D01*
X0216704Y0116511D01*
X0216704Y0116761D01*
X0215703Y0116761D01*
X0295609Y0143700D02*
X0295859Y0143450D01*
X0296360Y0143450D01*
X0296610Y0143700D01*
X0297082Y0143450D02*
X0298083Y0143450D01*
X0297583Y0143450D02*
X0297583Y0144952D01*
X0297082Y0144451D01*
X0296610Y0144701D02*
X0296360Y0144952D01*
X0295859Y0144952D01*
X0295609Y0144701D01*
X0295609Y0143700D01*
X0298556Y0144201D02*
X0299556Y0144201D01*
X0299306Y0144952D02*
X0298556Y0144201D01*
X0299306Y0143450D02*
X0299306Y0144952D01*
X0327573Y0235535D02*
X0328074Y0235535D01*
X0328324Y0235785D01*
X0328796Y0235785D02*
X0329047Y0235535D01*
X0329547Y0235535D01*
X0329797Y0235785D01*
X0329797Y0236036D01*
X0329547Y0236286D01*
X0329297Y0236286D01*
X0329547Y0236286D02*
X0329797Y0236536D01*
X0329797Y0236786D01*
X0329547Y0237037D01*
X0329047Y0237037D01*
X0328796Y0236786D01*
X0328324Y0236786D02*
X0328074Y0237037D01*
X0327573Y0237037D01*
X0327323Y0236786D01*
X0327323Y0235785D01*
X0327573Y0235535D01*
X0330270Y0236286D02*
X0331270Y0236286D01*
X0331020Y0237037D02*
X0330270Y0236286D01*
X0331020Y0235535D02*
X0331020Y0237037D01*
X0379513Y0286283D02*
X0379513Y0287034D01*
X0379764Y0287284D01*
X0380264Y0287284D01*
X0380514Y0287034D01*
X0380514Y0286283D01*
X0381015Y0286283D02*
X0379513Y0286283D01*
X0380514Y0286784D02*
X0381015Y0287284D01*
X0381015Y0287756D02*
X0380014Y0288757D01*
X0379764Y0288757D01*
X0379513Y0288507D01*
X0379513Y0288007D01*
X0379764Y0287756D01*
X0381015Y0287756D02*
X0381015Y0288757D01*
X0393214Y0288507D02*
X0393464Y0288757D01*
X0393715Y0288757D01*
X0393965Y0288507D01*
X0394215Y0288757D01*
X0394465Y0288757D01*
X0394715Y0288507D01*
X0394715Y0288007D01*
X0394465Y0287756D01*
X0394715Y0287284D02*
X0394715Y0286283D01*
X0394715Y0285811D02*
X0394215Y0285310D01*
X0394215Y0285561D02*
X0394215Y0284810D01*
X0394715Y0284810D02*
X0393214Y0284810D01*
X0393214Y0285561D01*
X0393464Y0285811D01*
X0393965Y0285811D01*
X0394215Y0285561D01*
X0393715Y0286283D02*
X0393214Y0286784D01*
X0394715Y0286784D01*
X0393464Y0287756D02*
X0393214Y0288007D01*
X0393214Y0288507D01*
X0393965Y0288507D02*
X0393965Y0288257D01*
X0269808Y0237702D02*
X0269808Y0237348D01*
X0269631Y0237171D01*
X0269277Y0237171D01*
X0268923Y0237525D01*
X0268923Y0237879D01*
X0269100Y0238056D01*
X0269454Y0238056D01*
X0269808Y0237702D01*
X0269277Y0237171D02*
X0269277Y0236817D01*
X0269100Y0236640D01*
X0268746Y0236640D01*
X0268393Y0236994D01*
X0268393Y0237348D01*
X0268570Y0237525D01*
X0268923Y0237525D01*
X0268235Y0237859D02*
X0268059Y0237682D01*
X0267705Y0237682D01*
X0267351Y0238036D01*
X0267351Y0238390D01*
X0267017Y0238724D02*
X0266663Y0238724D01*
X0266309Y0239078D01*
X0266309Y0239432D01*
X0267017Y0240139D01*
X0267371Y0240139D01*
X0267725Y0239785D01*
X0267725Y0239432D01*
X0268059Y0239097D02*
X0268412Y0239097D01*
X0268766Y0238744D01*
X0268766Y0238390D01*
X0268589Y0238213D01*
X0268235Y0238213D01*
X0268235Y0237859D01*
X0268235Y0238213D02*
X0268059Y0238390D01*
X0260832Y0246088D02*
X0259416Y0246088D01*
X0259416Y0245734D01*
X0259770Y0245380D01*
X0260124Y0245380D01*
X0260832Y0246088D01*
X0260832Y0246442D01*
X0260478Y0246796D01*
X0260124Y0246796D01*
X0259416Y0246088D01*
X0258905Y0246245D02*
X0258198Y0246953D01*
X0257864Y0247287D02*
X0257863Y0247995D01*
X0258040Y0247818D02*
X0257510Y0248349D01*
X0257156Y0247995D02*
X0258217Y0249056D01*
X0258748Y0248526D01*
X0258748Y0248172D01*
X0258394Y0247818D01*
X0258040Y0247818D01*
X0258905Y0247661D02*
X0259613Y0247661D01*
X0258551Y0246599D01*
X0242038Y0254110D02*
X0241684Y0253756D01*
X0241330Y0253756D01*
X0240996Y0253422D02*
X0240996Y0253068D01*
X0240642Y0252714D01*
X0240288Y0252714D01*
X0239954Y0252380D02*
X0239954Y0252026D01*
X0239600Y0251672D01*
X0239247Y0251672D01*
X0238539Y0252380D01*
X0238539Y0252734D01*
X0238893Y0253088D01*
X0239247Y0253088D01*
X0239581Y0253422D02*
X0239581Y0253776D01*
X0239934Y0254129D01*
X0240288Y0254129D01*
X0240465Y0253952D01*
X0240465Y0253599D01*
X0240819Y0253599D01*
X0240996Y0253422D01*
X0240465Y0253599D02*
X0240288Y0253422D01*
X0240799Y0254287D02*
X0241153Y0254287D01*
X0241684Y0254817D01*
X0242038Y0254463D02*
X0241330Y0255171D01*
X0240976Y0255171D01*
X0240622Y0254817D01*
X0240622Y0254463D01*
X0240799Y0254287D01*
X0242038Y0254110D02*
X0242038Y0254463D01*
X0249070Y0295686D02*
X0249804Y0295686D01*
X0249437Y0295686D02*
X0249437Y0296787D01*
X0249070Y0296420D01*
X0249047Y0325108D02*
X0250048Y0326109D01*
X0250048Y0326359D01*
X0249798Y0326609D01*
X0249297Y0326609D01*
X0249047Y0326359D01*
X0248574Y0326359D02*
X0248574Y0325858D01*
X0248324Y0325608D01*
X0247574Y0325608D01*
X0248074Y0325608D02*
X0248574Y0325108D01*
X0249047Y0325108D02*
X0250048Y0325108D01*
X0250520Y0325358D02*
X0250770Y0325108D01*
X0251271Y0325108D01*
X0251521Y0325358D01*
X0251521Y0325608D01*
X0251271Y0325858D01*
X0251021Y0325858D01*
X0251271Y0325858D02*
X0251521Y0326109D01*
X0251521Y0326359D01*
X0251271Y0326609D01*
X0250770Y0326609D01*
X0250520Y0326359D01*
X0248574Y0326359D02*
X0248324Y0326609D01*
X0247574Y0326609D01*
X0247574Y0325108D01*
X0126840Y0205371D02*
X0126840Y0205120D01*
X0126590Y0204870D01*
X0126089Y0204870D01*
X0125839Y0205120D01*
X0125839Y0205371D01*
X0126089Y0205621D01*
X0126590Y0205621D01*
X0126840Y0205371D01*
X0126590Y0204870D02*
X0126840Y0204620D01*
X0126840Y0204370D01*
X0126590Y0204120D01*
X0126089Y0204120D01*
X0125839Y0204370D01*
X0125839Y0204620D01*
X0126089Y0204870D01*
X0125367Y0204870D02*
X0124366Y0204870D01*
X0125116Y0205621D01*
X0125116Y0204120D01*
X0123893Y0204370D02*
X0123643Y0204120D01*
X0123143Y0204120D01*
X0122893Y0204370D01*
X0122893Y0205371D01*
X0123143Y0205621D01*
X0123643Y0205621D01*
X0123893Y0205371D01*
X0113869Y0200487D02*
X0112868Y0199486D01*
X0113118Y0199236D01*
X0113619Y0199236D01*
X0113869Y0199486D01*
X0113869Y0200487D01*
X0113619Y0200737D01*
X0113118Y0200737D01*
X0112868Y0200487D01*
X0112868Y0199486D01*
X0112396Y0199987D02*
X0111395Y0199987D01*
X0112145Y0200737D01*
X0112145Y0199236D01*
X0110922Y0199486D02*
X0110672Y0199236D01*
X0110172Y0199236D01*
X0109922Y0199486D01*
X0109922Y0200487D01*
X0110172Y0200737D01*
X0110672Y0200737D01*
X0110922Y0200487D01*
X0111409Y0190501D02*
X0111159Y0190251D01*
X0111159Y0189250D01*
X0111409Y0189000D01*
X0111909Y0189000D01*
X0112159Y0189250D01*
X0112632Y0189250D02*
X0112882Y0189000D01*
X0113382Y0189000D01*
X0113633Y0189250D01*
X0113633Y0189500D01*
X0113382Y0189750D01*
X0113132Y0189750D01*
X0113382Y0189750D02*
X0113633Y0190001D01*
X0113633Y0190251D01*
X0113382Y0190501D01*
X0112882Y0190501D01*
X0112632Y0190251D01*
X0112159Y0190251D02*
X0111909Y0190501D01*
X0111409Y0190501D01*
X0111369Y0180580D02*
X0111119Y0180330D01*
X0111119Y0179329D01*
X0111369Y0179079D01*
X0111870Y0179079D01*
X0112120Y0179329D01*
X0112592Y0179329D02*
X0112843Y0179079D01*
X0113343Y0179079D01*
X0113593Y0179329D01*
X0113593Y0179829D01*
X0113343Y0180079D01*
X0113093Y0180079D01*
X0112592Y0179829D01*
X0112592Y0180580D01*
X0113593Y0180580D01*
X0112120Y0180330D02*
X0111870Y0180580D01*
X0111369Y0180580D01*
X0112067Y0170619D02*
X0111316Y0169869D01*
X0112317Y0169869D01*
X0112789Y0170119D02*
X0113290Y0170619D01*
X0113290Y0169118D01*
X0113790Y0169118D02*
X0112789Y0169118D01*
X0112067Y0169118D02*
X0112067Y0170619D01*
X0110844Y0170369D02*
X0110593Y0170619D01*
X0110093Y0170619D01*
X0109843Y0170369D01*
X0109843Y0169368D01*
X0110093Y0169118D01*
X0110593Y0169118D01*
X0110844Y0169368D01*
X0111566Y0160462D02*
X0111316Y0160212D01*
X0111316Y0159211D01*
X0111566Y0158960D01*
X0112067Y0158960D01*
X0112317Y0159211D01*
X0112789Y0158960D02*
X0113790Y0159961D01*
X0113790Y0160212D01*
X0113540Y0160462D01*
X0113040Y0160462D01*
X0112789Y0160212D01*
X0112317Y0160212D02*
X0112067Y0160462D01*
X0111566Y0160462D01*
X0112789Y0158960D02*
X0113790Y0158960D01*
X0113593Y0150304D02*
X0113093Y0150054D01*
X0112592Y0149554D01*
X0113343Y0149554D01*
X0113593Y0149303D01*
X0113593Y0149053D01*
X0113343Y0148803D01*
X0112843Y0148803D01*
X0112592Y0149053D01*
X0112592Y0149554D01*
X0112120Y0150054D02*
X0111870Y0150304D01*
X0111369Y0150304D01*
X0111119Y0150054D01*
X0111119Y0149053D01*
X0111369Y0148803D01*
X0111870Y0148803D01*
X0112120Y0149053D01*
X0111752Y0140383D02*
X0111251Y0140383D01*
X0111001Y0140133D01*
X0111001Y0139132D01*
X0111251Y0138882D01*
X0111752Y0138882D01*
X0112002Y0139132D01*
X0112474Y0138882D02*
X0113475Y0138882D01*
X0112975Y0138882D02*
X0112975Y0140383D01*
X0112474Y0139883D01*
X0112002Y0140133D02*
X0111752Y0140383D01*
X0134310Y0153568D02*
X0134310Y0155070D01*
X0135060Y0155070D01*
X0135311Y0154819D01*
X0135311Y0154319D01*
X0135060Y0154069D01*
X0134310Y0154069D01*
X0134810Y0154069D02*
X0135311Y0153568D01*
X0135783Y0153568D02*
X0136784Y0154569D01*
X0136784Y0154819D01*
X0136534Y0155070D01*
X0136033Y0155070D01*
X0135783Y0154819D01*
X0135783Y0153568D02*
X0136784Y0153568D01*
X0137256Y0153568D02*
X0138257Y0154569D01*
X0138257Y0154819D01*
X0138007Y0155070D01*
X0137507Y0155070D01*
X0137256Y0154819D01*
X0137256Y0153568D02*
X0138257Y0153568D01*
X0137470Y0165025D02*
X0136469Y0165025D01*
X0135997Y0165025D02*
X0134996Y0165025D01*
X0135997Y0166026D01*
X0135997Y0166276D01*
X0135746Y0166526D01*
X0135246Y0166526D01*
X0134996Y0166276D01*
X0134523Y0166276D02*
X0134523Y0165776D01*
X0134273Y0165525D01*
X0133522Y0165525D01*
X0133522Y0165025D02*
X0133522Y0166526D01*
X0134273Y0166526D01*
X0134523Y0166276D01*
X0134023Y0165525D02*
X0134523Y0165025D01*
X0136469Y0166026D02*
X0136969Y0166526D01*
X0136969Y0165025D01*
X0136710Y0170496D02*
X0137711Y0171497D01*
X0137711Y0171747D01*
X0137460Y0171997D01*
X0136960Y0171997D01*
X0136710Y0171747D01*
X0136237Y0171747D02*
X0136237Y0171247D01*
X0135987Y0170996D01*
X0135237Y0170996D01*
X0135737Y0170996D02*
X0136237Y0170496D01*
X0136710Y0170496D02*
X0137711Y0170496D01*
X0138183Y0170746D02*
X0138433Y0170496D01*
X0138934Y0170496D01*
X0139184Y0170746D01*
X0139184Y0171747D01*
X0138183Y0170746D01*
X0138183Y0171747D01*
X0138433Y0171997D01*
X0138934Y0171997D01*
X0139184Y0171747D01*
X0136237Y0171747D02*
X0135987Y0171997D01*
X0135237Y0171997D01*
X0135237Y0170496D01*
X0134857Y0190655D02*
X0135108Y0190905D01*
X0135108Y0191906D01*
X0134857Y0192156D01*
X0134357Y0192156D01*
X0134107Y0191906D01*
X0134107Y0191656D01*
X0134357Y0191406D01*
X0135108Y0191406D01*
X0134857Y0190655D02*
X0134357Y0190655D01*
X0134107Y0190905D01*
X0133634Y0191406D02*
X0132633Y0191406D01*
X0133384Y0192156D01*
X0133384Y0190655D01*
X0132161Y0190905D02*
X0131911Y0190655D01*
X0131410Y0190655D01*
X0131160Y0190905D01*
X0131160Y0191906D01*
X0131410Y0192156D01*
X0131911Y0192156D01*
X0132161Y0191906D01*
X0086796Y0172968D02*
X0086546Y0172968D01*
X0085545Y0173968D01*
X0085295Y0173968D01*
X0085295Y0172968D01*
X0085545Y0172495D02*
X0085796Y0172495D01*
X0086046Y0172245D01*
X0086296Y0172495D01*
X0086546Y0172495D01*
X0086796Y0172245D01*
X0086796Y0171745D01*
X0086546Y0171494D01*
X0086546Y0171022D02*
X0086796Y0170772D01*
X0086796Y0170271D01*
X0086546Y0170021D01*
X0085545Y0170021D01*
X0085295Y0170271D01*
X0085295Y0170772D01*
X0085545Y0171022D01*
X0085545Y0171494D02*
X0085295Y0171745D01*
X0085295Y0172245D01*
X0085545Y0172495D01*
X0086046Y0172245D02*
X0086046Y0171995D01*
X0077138Y0167103D02*
X0077138Y0166102D01*
X0076888Y0165852D01*
X0076388Y0165852D01*
X0076137Y0166102D01*
X0075665Y0165852D02*
X0075165Y0166352D01*
X0075415Y0166352D02*
X0074664Y0166352D01*
X0074664Y0165852D02*
X0074664Y0167353D01*
X0075415Y0167353D01*
X0075665Y0167103D01*
X0075665Y0166602D01*
X0075415Y0166352D01*
X0076137Y0166853D02*
X0076388Y0166602D01*
X0077138Y0166602D01*
X0077138Y0167103D02*
X0076888Y0167353D01*
X0076388Y0167353D01*
X0076137Y0167103D01*
X0076137Y0166853D01*
X0065798Y0168778D02*
X0065548Y0168527D01*
X0065047Y0168527D01*
X0064797Y0168778D01*
X0064797Y0169028D01*
X0065047Y0169278D01*
X0065548Y0169278D01*
X0065798Y0169028D01*
X0065798Y0168778D01*
X0065548Y0169278D02*
X0065798Y0169528D01*
X0065798Y0169778D01*
X0065548Y0170029D01*
X0065047Y0170029D01*
X0064797Y0169778D01*
X0064797Y0169528D01*
X0065047Y0169278D01*
X0064325Y0169278D02*
X0064075Y0169028D01*
X0063324Y0169028D01*
X0063824Y0169028D02*
X0064325Y0168527D01*
X0064325Y0169278D02*
X0064325Y0169778D01*
X0064075Y0170029D01*
X0063324Y0170029D01*
X0063324Y0168527D01*
X0050050Y0166156D02*
X0049049Y0165156D01*
X0049299Y0164905D01*
X0049800Y0164905D01*
X0050050Y0165156D01*
X0050050Y0166156D01*
X0049800Y0166407D01*
X0049299Y0166407D01*
X0049049Y0166156D01*
X0049049Y0165156D01*
X0048577Y0165156D02*
X0048327Y0164905D01*
X0047826Y0164905D01*
X0047576Y0165156D01*
X0047104Y0165156D02*
X0046853Y0164905D01*
X0046353Y0164905D01*
X0046103Y0165156D01*
X0046103Y0166156D01*
X0046353Y0166407D01*
X0046853Y0166407D01*
X0047104Y0166156D01*
X0047576Y0166156D02*
X0047826Y0166407D01*
X0048327Y0166407D01*
X0048577Y0166156D01*
X0048577Y0165906D01*
X0048327Y0165656D01*
X0048577Y0165406D01*
X0048577Y0165156D01*
X0048327Y0165656D02*
X0048076Y0165656D01*
X0047945Y0183801D02*
X0049196Y0183801D01*
X0049446Y0184051D01*
X0049446Y0184551D01*
X0049196Y0184801D01*
X0047945Y0184801D01*
X0047945Y0185274D02*
X0048695Y0185274D01*
X0048445Y0185774D01*
X0048445Y0186025D01*
X0048695Y0186275D01*
X0049196Y0186275D01*
X0049446Y0186025D01*
X0049446Y0185524D01*
X0049196Y0185274D01*
X0047945Y0185274D02*
X0047945Y0186275D01*
X0069955Y0195927D02*
X0069955Y0196677D01*
X0070205Y0196927D01*
X0071206Y0196927D01*
X0071456Y0196677D01*
X0071456Y0195927D01*
X0069955Y0195927D01*
X0070455Y0197400D02*
X0069955Y0197900D01*
X0071456Y0197900D01*
X0071456Y0197400D02*
X0071456Y0198401D01*
X0021257Y0194919D02*
X0020256Y0194919D01*
X0020756Y0194919D02*
X0020756Y0196420D01*
X0020256Y0195920D01*
X0019783Y0196170D02*
X0019533Y0196420D01*
X0019033Y0196420D01*
X0018783Y0196170D01*
X0018783Y0195169D01*
X0019033Y0194919D01*
X0019533Y0194919D01*
X0019783Y0195169D01*
X0018301Y0194919D02*
X0017800Y0194919D01*
X0018051Y0194919D02*
X0018051Y0196420D01*
X0018301Y0196420D02*
X0017800Y0196420D01*
X0083720Y0273525D02*
X0083720Y0274276D01*
X0083971Y0274526D01*
X0084471Y0274526D01*
X0084721Y0274276D01*
X0084721Y0273525D01*
X0084721Y0274025D02*
X0085222Y0274526D01*
X0085222Y0274998D02*
X0085222Y0275999D01*
X0085222Y0275499D02*
X0083720Y0275499D01*
X0084221Y0274998D01*
X0083720Y0273525D02*
X0085222Y0273525D01*
X0067226Y0289309D02*
X0065724Y0289309D01*
X0065724Y0290059D01*
X0065975Y0290309D01*
X0066475Y0290309D01*
X0066725Y0290059D01*
X0066725Y0289309D01*
X0066725Y0289809D02*
X0067226Y0290309D01*
X0066975Y0290782D02*
X0067226Y0291032D01*
X0067226Y0291532D01*
X0066975Y0291783D01*
X0066475Y0291783D01*
X0066225Y0291532D01*
X0066225Y0291282D01*
X0066475Y0290782D01*
X0065724Y0290782D01*
X0065724Y0291783D01*
X0055100Y0301513D02*
X0053598Y0301513D01*
X0053598Y0302264D01*
X0053849Y0302514D01*
X0054349Y0302514D01*
X0054599Y0302264D01*
X0054599Y0301513D01*
X0054599Y0302014D02*
X0055100Y0302514D01*
X0055100Y0302986D02*
X0055100Y0303987D01*
X0055100Y0303487D02*
X0053598Y0303487D01*
X0054099Y0302986D01*
X0054349Y0304460D02*
X0054349Y0305461D01*
X0055100Y0305210D02*
X0053598Y0305210D01*
X0054349Y0304460D01*
D13*
X0047819Y0309908D02*
X0047819Y0339810D01*
X0009335Y0339810D01*
X0009335Y0332723D01*
X0018882Y0332723D01*
X0018882Y0316995D01*
X0009335Y0316995D01*
X0009335Y0309908D01*
X0047819Y0309908D01*
X0064020Y0331345D02*
X0064020Y0350243D01*
X0069138Y0350243D01*
X0069138Y0353196D01*
X0086854Y0353196D01*
X0086854Y0350243D01*
X0091972Y0350243D01*
X0091972Y0331345D01*
X0009335Y0332723D02*
X0009335Y0316995D01*
X0072445Y0200046D02*
X0074256Y0200046D01*
X0075176Y0198825D01*
X0076067Y0200046D02*
X0074256Y0200046D01*
X0074156Y0199985D02*
X0073396Y0198825D01*
X0059687Y0192851D02*
X0056306Y0192851D01*
X0054806Y0188307D02*
X0054806Y0186194D01*
X0056306Y0181651D02*
X0059687Y0181651D01*
X0042353Y0185672D02*
X0042353Y0198672D01*
X0016553Y0198672D01*
X0016553Y0185672D01*
X0042353Y0185672D01*
X0136500Y0058018D02*
X0136500Y0019534D01*
X0143587Y0019534D01*
X0143587Y0029081D01*
X0159315Y0029081D01*
X0159315Y0019534D01*
X0166402Y0019534D01*
X0166402Y0058018D01*
X0136500Y0058018D01*
X0143587Y0019534D02*
X0159315Y0019534D01*
X0243665Y0020951D02*
X0243665Y0017014D01*
X0247602Y0017014D01*
X0293272Y0017014D02*
X0297209Y0017014D01*
X0297209Y0020951D01*
X0358354Y0089306D02*
X0375354Y0089306D01*
X0378854Y0097306D02*
X0378854Y0105235D01*
X0375354Y0113306D02*
X0358354Y0113306D01*
X0354854Y0105353D02*
X0354854Y0097306D01*
X0359854Y0101306D02*
X0359856Y0101478D01*
X0359862Y0101649D01*
X0359873Y0101821D01*
X0359888Y0101992D01*
X0359907Y0102163D01*
X0359930Y0102333D01*
X0359957Y0102503D01*
X0359989Y0102672D01*
X0360024Y0102840D01*
X0360064Y0103007D01*
X0360108Y0103173D01*
X0360155Y0103338D01*
X0360207Y0103502D01*
X0360263Y0103664D01*
X0360323Y0103825D01*
X0360387Y0103985D01*
X0360455Y0104143D01*
X0360526Y0104299D01*
X0360601Y0104453D01*
X0360681Y0104606D01*
X0360763Y0104756D01*
X0360850Y0104905D01*
X0360940Y0105051D01*
X0361034Y0105195D01*
X0361131Y0105337D01*
X0361232Y0105476D01*
X0361336Y0105613D01*
X0361443Y0105747D01*
X0361554Y0105878D01*
X0361667Y0106007D01*
X0361784Y0106133D01*
X0361904Y0106256D01*
X0362027Y0106376D01*
X0362153Y0106493D01*
X0362282Y0106606D01*
X0362413Y0106717D01*
X0362547Y0106824D01*
X0362684Y0106928D01*
X0362823Y0107029D01*
X0362965Y0107126D01*
X0363109Y0107220D01*
X0363255Y0107310D01*
X0363404Y0107397D01*
X0363554Y0107479D01*
X0363707Y0107559D01*
X0363861Y0107634D01*
X0364017Y0107705D01*
X0364175Y0107773D01*
X0364335Y0107837D01*
X0364496Y0107897D01*
X0364658Y0107953D01*
X0364822Y0108005D01*
X0364987Y0108052D01*
X0365153Y0108096D01*
X0365320Y0108136D01*
X0365488Y0108171D01*
X0365657Y0108203D01*
X0365827Y0108230D01*
X0365997Y0108253D01*
X0366168Y0108272D01*
X0366339Y0108287D01*
X0366511Y0108298D01*
X0366682Y0108304D01*
X0366854Y0108306D01*
X0367026Y0108304D01*
X0367197Y0108298D01*
X0367369Y0108287D01*
X0367540Y0108272D01*
X0367711Y0108253D01*
X0367881Y0108230D01*
X0368051Y0108203D01*
X0368220Y0108171D01*
X0368388Y0108136D01*
X0368555Y0108096D01*
X0368721Y0108052D01*
X0368886Y0108005D01*
X0369050Y0107953D01*
X0369212Y0107897D01*
X0369373Y0107837D01*
X0369533Y0107773D01*
X0369691Y0107705D01*
X0369847Y0107634D01*
X0370001Y0107559D01*
X0370154Y0107479D01*
X0370304Y0107397D01*
X0370453Y0107310D01*
X0370599Y0107220D01*
X0370743Y0107126D01*
X0370885Y0107029D01*
X0371024Y0106928D01*
X0371161Y0106824D01*
X0371295Y0106717D01*
X0371426Y0106606D01*
X0371555Y0106493D01*
X0371681Y0106376D01*
X0371804Y0106256D01*
X0371924Y0106133D01*
X0372041Y0106007D01*
X0372154Y0105878D01*
X0372265Y0105747D01*
X0372372Y0105613D01*
X0372476Y0105476D01*
X0372577Y0105337D01*
X0372674Y0105195D01*
X0372768Y0105051D01*
X0372858Y0104905D01*
X0372945Y0104756D01*
X0373027Y0104606D01*
X0373107Y0104453D01*
X0373182Y0104299D01*
X0373253Y0104143D01*
X0373321Y0103985D01*
X0373385Y0103825D01*
X0373445Y0103664D01*
X0373501Y0103502D01*
X0373553Y0103338D01*
X0373600Y0103173D01*
X0373644Y0103007D01*
X0373684Y0102840D01*
X0373719Y0102672D01*
X0373751Y0102503D01*
X0373778Y0102333D01*
X0373801Y0102163D01*
X0373820Y0101992D01*
X0373835Y0101821D01*
X0373846Y0101649D01*
X0373852Y0101478D01*
X0373854Y0101306D01*
X0373852Y0101134D01*
X0373846Y0100963D01*
X0373835Y0100791D01*
X0373820Y0100620D01*
X0373801Y0100449D01*
X0373778Y0100279D01*
X0373751Y0100109D01*
X0373719Y0099940D01*
X0373684Y0099772D01*
X0373644Y0099605D01*
X0373600Y0099439D01*
X0373553Y0099274D01*
X0373501Y0099110D01*
X0373445Y0098948D01*
X0373385Y0098787D01*
X0373321Y0098627D01*
X0373253Y0098469D01*
X0373182Y0098313D01*
X0373107Y0098159D01*
X0373027Y0098006D01*
X0372945Y0097856D01*
X0372858Y0097707D01*
X0372768Y0097561D01*
X0372674Y0097417D01*
X0372577Y0097275D01*
X0372476Y0097136D01*
X0372372Y0096999D01*
X0372265Y0096865D01*
X0372154Y0096734D01*
X0372041Y0096605D01*
X0371924Y0096479D01*
X0371804Y0096356D01*
X0371681Y0096236D01*
X0371555Y0096119D01*
X0371426Y0096006D01*
X0371295Y0095895D01*
X0371161Y0095788D01*
X0371024Y0095684D01*
X0370885Y0095583D01*
X0370743Y0095486D01*
X0370599Y0095392D01*
X0370453Y0095302D01*
X0370304Y0095215D01*
X0370154Y0095133D01*
X0370001Y0095053D01*
X0369847Y0094978D01*
X0369691Y0094907D01*
X0369533Y0094839D01*
X0369373Y0094775D01*
X0369212Y0094715D01*
X0369050Y0094659D01*
X0368886Y0094607D01*
X0368721Y0094560D01*
X0368555Y0094516D01*
X0368388Y0094476D01*
X0368220Y0094441D01*
X0368051Y0094409D01*
X0367881Y0094382D01*
X0367711Y0094359D01*
X0367540Y0094340D01*
X0367369Y0094325D01*
X0367197Y0094314D01*
X0367026Y0094308D01*
X0366854Y0094306D01*
X0366682Y0094308D01*
X0366511Y0094314D01*
X0366339Y0094325D01*
X0366168Y0094340D01*
X0365997Y0094359D01*
X0365827Y0094382D01*
X0365657Y0094409D01*
X0365488Y0094441D01*
X0365320Y0094476D01*
X0365153Y0094516D01*
X0364987Y0094560D01*
X0364822Y0094607D01*
X0364658Y0094659D01*
X0364496Y0094715D01*
X0364335Y0094775D01*
X0364175Y0094839D01*
X0364017Y0094907D01*
X0363861Y0094978D01*
X0363707Y0095053D01*
X0363554Y0095133D01*
X0363404Y0095215D01*
X0363255Y0095302D01*
X0363109Y0095392D01*
X0362965Y0095486D01*
X0362823Y0095583D01*
X0362684Y0095684D01*
X0362547Y0095788D01*
X0362413Y0095895D01*
X0362282Y0096006D01*
X0362153Y0096119D01*
X0362027Y0096236D01*
X0361904Y0096356D01*
X0361784Y0096479D01*
X0361667Y0096605D01*
X0361554Y0096734D01*
X0361443Y0096865D01*
X0361336Y0096999D01*
X0361232Y0097136D01*
X0361131Y0097275D01*
X0361034Y0097417D01*
X0360940Y0097561D01*
X0360850Y0097707D01*
X0360763Y0097856D01*
X0360681Y0098006D01*
X0360601Y0098159D01*
X0360526Y0098313D01*
X0360455Y0098469D01*
X0360387Y0098627D01*
X0360323Y0098787D01*
X0360263Y0098948D01*
X0360207Y0099110D01*
X0360155Y0099274D01*
X0360108Y0099439D01*
X0360064Y0099605D01*
X0360024Y0099772D01*
X0359989Y0099940D01*
X0359957Y0100109D01*
X0359930Y0100279D01*
X0359907Y0100449D01*
X0359888Y0100620D01*
X0359873Y0100791D01*
X0359862Y0100963D01*
X0359856Y0101134D01*
X0359854Y0101306D01*
X0358265Y0146981D02*
X0333154Y0146981D01*
X0325280Y0146981D01*
X0319065Y0146981D01*
X0319065Y0233662D01*
X0358265Y0233662D01*
X0358265Y0146981D01*
X0333154Y0146981D02*
X0333152Y0147105D01*
X0333146Y0147228D01*
X0333137Y0147352D01*
X0333123Y0147474D01*
X0333106Y0147597D01*
X0333084Y0147719D01*
X0333059Y0147840D01*
X0333030Y0147960D01*
X0332998Y0148079D01*
X0332961Y0148198D01*
X0332921Y0148315D01*
X0332878Y0148430D01*
X0332830Y0148545D01*
X0332779Y0148657D01*
X0332725Y0148768D01*
X0332667Y0148878D01*
X0332606Y0148985D01*
X0332541Y0149091D01*
X0332473Y0149194D01*
X0332402Y0149295D01*
X0332328Y0149394D01*
X0332251Y0149491D01*
X0332170Y0149585D01*
X0332087Y0149676D01*
X0332001Y0149765D01*
X0331912Y0149851D01*
X0331821Y0149934D01*
X0331727Y0150015D01*
X0331630Y0150092D01*
X0331531Y0150166D01*
X0331430Y0150237D01*
X0331327Y0150305D01*
X0331221Y0150370D01*
X0331114Y0150431D01*
X0331004Y0150489D01*
X0330893Y0150543D01*
X0330781Y0150594D01*
X0330666Y0150642D01*
X0330551Y0150685D01*
X0330434Y0150725D01*
X0330315Y0150762D01*
X0330196Y0150794D01*
X0330076Y0150823D01*
X0329955Y0150848D01*
X0329833Y0150870D01*
X0329710Y0150887D01*
X0329588Y0150901D01*
X0329464Y0150910D01*
X0329341Y0150916D01*
X0329217Y0150918D01*
X0329093Y0150916D01*
X0328970Y0150910D01*
X0328846Y0150901D01*
X0328724Y0150887D01*
X0328601Y0150870D01*
X0328479Y0150848D01*
X0328358Y0150823D01*
X0328238Y0150794D01*
X0328119Y0150762D01*
X0328000Y0150725D01*
X0327883Y0150685D01*
X0327768Y0150642D01*
X0327653Y0150594D01*
X0327541Y0150543D01*
X0327430Y0150489D01*
X0327320Y0150431D01*
X0327213Y0150370D01*
X0327107Y0150305D01*
X0327004Y0150237D01*
X0326903Y0150166D01*
X0326804Y0150092D01*
X0326707Y0150015D01*
X0326613Y0149934D01*
X0326522Y0149851D01*
X0326433Y0149765D01*
X0326347Y0149676D01*
X0326264Y0149585D01*
X0326183Y0149491D01*
X0326106Y0149394D01*
X0326032Y0149295D01*
X0325961Y0149194D01*
X0325893Y0149091D01*
X0325828Y0148985D01*
X0325767Y0148878D01*
X0325709Y0148768D01*
X0325655Y0148657D01*
X0325604Y0148545D01*
X0325556Y0148430D01*
X0325513Y0148315D01*
X0325473Y0148198D01*
X0325436Y0148079D01*
X0325404Y0147960D01*
X0325375Y0147840D01*
X0325350Y0147719D01*
X0325328Y0147597D01*
X0325311Y0147474D01*
X0325297Y0147352D01*
X0325288Y0147228D01*
X0325282Y0147105D01*
X0325280Y0146981D01*
X0325791Y0295046D02*
X0248232Y0295046D01*
X0248232Y0300951D01*
X0248232Y0300952D02*
X0248305Y0300988D01*
X0248376Y0301029D01*
X0248446Y0301072D01*
X0248513Y0301119D01*
X0248578Y0301169D01*
X0248640Y0301222D01*
X0248700Y0301277D01*
X0248757Y0301336D01*
X0248812Y0301397D01*
X0248863Y0301461D01*
X0248912Y0301527D01*
X0248957Y0301595D01*
X0248999Y0301665D01*
X0249038Y0301737D01*
X0249074Y0301811D01*
X0249105Y0301886D01*
X0249134Y0301963D01*
X0249158Y0302041D01*
X0249179Y0302120D01*
X0249196Y0302200D01*
X0249210Y0302281D01*
X0249219Y0302362D01*
X0249225Y0302444D01*
X0249227Y0302526D01*
X0249225Y0302608D01*
X0249219Y0302690D01*
X0249210Y0302771D01*
X0249196Y0302852D01*
X0249179Y0302932D01*
X0249158Y0303011D01*
X0249134Y0303089D01*
X0249105Y0303166D01*
X0249074Y0303241D01*
X0249038Y0303315D01*
X0248999Y0303387D01*
X0248957Y0303457D01*
X0248912Y0303525D01*
X0248863Y0303591D01*
X0248812Y0303655D01*
X0248757Y0303716D01*
X0248700Y0303775D01*
X0248640Y0303830D01*
X0248578Y0303883D01*
X0248513Y0303933D01*
X0248446Y0303980D01*
X0248376Y0304023D01*
X0248305Y0304064D01*
X0248232Y0304100D01*
X0248232Y0304101D02*
X0248232Y0310007D01*
X0325791Y0310007D01*
X0325791Y0304101D01*
X0325791Y0304100D02*
X0325718Y0304064D01*
X0325647Y0304023D01*
X0325577Y0303980D01*
X0325510Y0303933D01*
X0325445Y0303883D01*
X0325383Y0303830D01*
X0325323Y0303775D01*
X0325266Y0303716D01*
X0325211Y0303655D01*
X0325160Y0303591D01*
X0325111Y0303525D01*
X0325066Y0303457D01*
X0325024Y0303387D01*
X0324985Y0303315D01*
X0324949Y0303241D01*
X0324918Y0303166D01*
X0324889Y0303089D01*
X0324865Y0303011D01*
X0324844Y0302932D01*
X0324827Y0302852D01*
X0324813Y0302771D01*
X0324804Y0302690D01*
X0324798Y0302608D01*
X0324796Y0302526D01*
X0324798Y0302444D01*
X0324804Y0302362D01*
X0324813Y0302281D01*
X0324827Y0302200D01*
X0324844Y0302120D01*
X0324865Y0302041D01*
X0324889Y0301963D01*
X0324918Y0301886D01*
X0324949Y0301811D01*
X0324985Y0301737D01*
X0325024Y0301665D01*
X0325066Y0301595D01*
X0325111Y0301527D01*
X0325160Y0301461D01*
X0325211Y0301397D01*
X0325266Y0301336D01*
X0325323Y0301277D01*
X0325383Y0301222D01*
X0325445Y0301169D01*
X0325510Y0301119D01*
X0325577Y0301072D01*
X0325647Y0301029D01*
X0325718Y0300988D01*
X0325791Y0300952D01*
X0325791Y0300951D02*
X0325791Y0295046D01*
X0355969Y0295479D02*
X0355969Y0325381D01*
X0394453Y0325381D01*
X0394453Y0318294D01*
X0384906Y0318294D01*
X0384906Y0302566D01*
X0394453Y0302566D01*
X0394453Y0318294D01*
X0394453Y0302566D02*
X0394453Y0295479D01*
X0355969Y0295479D01*
X0217346Y0298707D02*
X0217346Y0311542D01*
X0193154Y0311542D01*
X0193154Y0298707D01*
X0217346Y0298707D01*
X0046638Y0051384D02*
X0008154Y0051384D01*
X0008154Y0044298D01*
X0017701Y0044298D01*
X0017701Y0028570D01*
X0008154Y0028570D01*
X0008154Y0021483D01*
X0046638Y0021483D01*
X0046638Y0051384D01*
X0008154Y0044298D02*
X0008154Y0028570D01*
D14*
X0008256Y0053869D02*
X0100256Y0053869D01*
X0100256Y0080869D01*
X0008256Y0080869D01*
X0008256Y0053869D01*
X0007996Y0085932D02*
X0095004Y0085932D01*
X0095004Y0135420D01*
X0007996Y0135420D01*
X0007996Y0085932D01*
X0120398Y0102408D02*
X0122760Y0100046D01*
X0130634Y0100046D01*
X0132996Y0102408D01*
X0132996Y0126030D01*
X0120398Y0126030D01*
X0120398Y0102408D01*
X0138508Y0111070D02*
X0140870Y0108707D01*
X0148744Y0108707D01*
X0151106Y0111070D01*
X0151106Y0134692D01*
X0138508Y0134692D01*
X0138508Y0111070D01*
X0201854Y0110636D02*
X0201854Y0102762D01*
X0204217Y0100400D01*
X0227839Y0100400D01*
X0227839Y0112999D01*
X0204217Y0112999D01*
X0201854Y0110636D01*
X0243665Y0119377D02*
X0243665Y0034731D01*
X0297209Y0034731D02*
X0297209Y0119377D01*
X0311500Y0082211D02*
X0311500Y0025518D01*
X0315437Y0025518D01*
X0313075Y0024495D02*
X0313077Y0024360D01*
X0313083Y0024225D01*
X0313092Y0024091D01*
X0313106Y0023957D01*
X0313123Y0023823D01*
X0313144Y0023689D01*
X0313169Y0023557D01*
X0313198Y0023425D01*
X0313230Y0023294D01*
X0313266Y0023164D01*
X0313306Y0023035D01*
X0313350Y0022908D01*
X0313397Y0022781D01*
X0313448Y0022656D01*
X0313502Y0022533D01*
X0313560Y0022411D01*
X0313621Y0022290D01*
X0313686Y0022172D01*
X0313754Y0022056D01*
X0313825Y0021941D01*
X0313899Y0021829D01*
X0313977Y0021718D01*
X0314058Y0021610D01*
X0314142Y0021505D01*
X0314229Y0021401D01*
X0314319Y0021301D01*
X0314411Y0021203D01*
X0314507Y0021107D01*
X0314605Y0021015D01*
X0314705Y0020925D01*
X0314809Y0020838D01*
X0314914Y0020754D01*
X0315022Y0020673D01*
X0315133Y0020595D01*
X0315245Y0020521D01*
X0315360Y0020450D01*
X0315476Y0020382D01*
X0315594Y0020317D01*
X0315715Y0020256D01*
X0315837Y0020198D01*
X0315960Y0020144D01*
X0316085Y0020093D01*
X0316212Y0020046D01*
X0316339Y0020002D01*
X0316468Y0019962D01*
X0316598Y0019926D01*
X0316729Y0019894D01*
X0316861Y0019865D01*
X0316993Y0019840D01*
X0317127Y0019819D01*
X0317261Y0019802D01*
X0317395Y0019788D01*
X0317529Y0019779D01*
X0317664Y0019773D01*
X0317799Y0019771D01*
X0317799Y0019770D02*
X0354020Y0019770D01*
X0354019Y0016226D02*
X0354154Y0016217D01*
X0354290Y0016212D01*
X0354425Y0016210D01*
X0354560Y0016212D01*
X0354696Y0016218D01*
X0354831Y0016228D01*
X0354965Y0016242D01*
X0355100Y0016260D01*
X0355233Y0016282D01*
X0355366Y0016307D01*
X0355499Y0016336D01*
X0355630Y0016369D01*
X0355760Y0016405D01*
X0355889Y0016446D01*
X0356018Y0016490D01*
X0356144Y0016537D01*
X0356270Y0016589D01*
X0356393Y0016643D01*
X0356516Y0016702D01*
X0356636Y0016764D01*
X0356755Y0016829D01*
X0356872Y0016897D01*
X0356986Y0016969D01*
X0357099Y0017044D01*
X0357209Y0017123D01*
X0357318Y0017204D01*
X0357423Y0017288D01*
X0357527Y0017376D01*
X0357628Y0017466D01*
X0357726Y0017559D01*
X0357821Y0017655D01*
X0357914Y0017754D01*
X0358004Y0017855D01*
X0358091Y0017959D01*
X0358175Y0018065D01*
X0358256Y0018174D01*
X0358333Y0018285D01*
X0358408Y0018398D01*
X0358479Y0018513D01*
X0358547Y0018630D01*
X0358612Y0018749D01*
X0358673Y0018870D01*
X0358731Y0018992D01*
X0358785Y0019117D01*
X0358835Y0019242D01*
X0358882Y0019369D01*
X0358926Y0019497D01*
X0358965Y0019627D01*
X0359001Y0019757D01*
X0359034Y0019889D01*
X0359062Y0020021D01*
X0359087Y0020154D01*
X0359107Y0020288D01*
X0359124Y0020423D01*
X0359138Y0020557D01*
X0362681Y0022762D02*
X0362679Y0022919D01*
X0362673Y0023076D01*
X0362663Y0023233D01*
X0362650Y0023389D01*
X0362632Y0023545D01*
X0362611Y0023701D01*
X0362585Y0023856D01*
X0362556Y0024010D01*
X0362523Y0024164D01*
X0362486Y0024316D01*
X0362446Y0024468D01*
X0362401Y0024619D01*
X0362353Y0024768D01*
X0362301Y0024916D01*
X0362246Y0025063D01*
X0362186Y0025209D01*
X0362124Y0025353D01*
X0362057Y0025495D01*
X0361987Y0025636D01*
X0361914Y0025775D01*
X0361837Y0025912D01*
X0361757Y0026047D01*
X0361673Y0026179D01*
X0361586Y0026310D01*
X0361496Y0026439D01*
X0361403Y0026565D01*
X0361307Y0026689D01*
X0361207Y0026811D01*
X0361105Y0026930D01*
X0360999Y0027046D01*
X0360891Y0027160D01*
X0360780Y0027271D01*
X0360666Y0027379D01*
X0360550Y0027485D01*
X0360431Y0027587D01*
X0360309Y0027687D01*
X0360185Y0027783D01*
X0360059Y0027876D01*
X0359930Y0027966D01*
X0359799Y0028053D01*
X0359667Y0028137D01*
X0359532Y0028217D01*
X0359395Y0028294D01*
X0359256Y0028367D01*
X0359115Y0028437D01*
X0358973Y0028504D01*
X0358829Y0028566D01*
X0358683Y0028626D01*
X0358536Y0028681D01*
X0358388Y0028733D01*
X0358239Y0028781D01*
X0358088Y0028826D01*
X0357936Y0028866D01*
X0357784Y0028903D01*
X0357630Y0028936D01*
X0357476Y0028965D01*
X0357321Y0028991D01*
X0357165Y0029012D01*
X0357009Y0029030D01*
X0356853Y0029043D01*
X0356696Y0029053D01*
X0356539Y0029059D01*
X0356382Y0029061D01*
X0356382Y0029062D02*
X0318193Y0029062D01*
X0318193Y0029061D02*
X0318084Y0029046D01*
X0317975Y0029026D01*
X0317866Y0029003D01*
X0317759Y0028976D01*
X0317652Y0028945D01*
X0317547Y0028911D01*
X0317443Y0028873D01*
X0317340Y0028831D01*
X0317239Y0028786D01*
X0317140Y0028737D01*
X0317042Y0028685D01*
X0316946Y0028629D01*
X0316853Y0028570D01*
X0316761Y0028508D01*
X0316671Y0028443D01*
X0316584Y0028374D01*
X0316499Y0028303D01*
X0316417Y0028229D01*
X0316338Y0028151D01*
X0316261Y0028072D01*
X0316187Y0027989D01*
X0316116Y0027904D01*
X0316048Y0027817D01*
X0315983Y0027727D01*
X0315921Y0027635D01*
X0315863Y0027541D01*
X0315808Y0027445D01*
X0315756Y0027347D01*
X0315707Y0027247D01*
X0315663Y0027146D01*
X0315621Y0027043D01*
X0315584Y0026939D01*
X0315550Y0026833D01*
X0315519Y0026727D01*
X0315493Y0026619D01*
X0315470Y0026511D01*
X0315451Y0026402D01*
X0315436Y0026292D01*
X0315424Y0026182D01*
X0315417Y0026071D01*
X0315413Y0025960D01*
X0315414Y0025850D01*
X0315418Y0025739D01*
X0315426Y0025628D01*
X0315438Y0025518D01*
X0313075Y0020951D02*
X0313077Y0020816D01*
X0313083Y0020681D01*
X0313092Y0020547D01*
X0313106Y0020413D01*
X0313123Y0020279D01*
X0313144Y0020145D01*
X0313169Y0020013D01*
X0313198Y0019881D01*
X0313230Y0019750D01*
X0313266Y0019620D01*
X0313306Y0019491D01*
X0313350Y0019364D01*
X0313397Y0019237D01*
X0313448Y0019112D01*
X0313502Y0018989D01*
X0313560Y0018867D01*
X0313621Y0018746D01*
X0313686Y0018628D01*
X0313754Y0018512D01*
X0313825Y0018397D01*
X0313899Y0018285D01*
X0313977Y0018174D01*
X0314058Y0018066D01*
X0314142Y0017961D01*
X0314229Y0017857D01*
X0314319Y0017757D01*
X0314411Y0017659D01*
X0314507Y0017563D01*
X0314605Y0017471D01*
X0314705Y0017381D01*
X0314809Y0017294D01*
X0314914Y0017210D01*
X0315022Y0017129D01*
X0315133Y0017051D01*
X0315245Y0016977D01*
X0315360Y0016906D01*
X0315476Y0016838D01*
X0315594Y0016773D01*
X0315715Y0016712D01*
X0315837Y0016654D01*
X0315960Y0016600D01*
X0316085Y0016549D01*
X0316212Y0016502D01*
X0316339Y0016458D01*
X0316468Y0016418D01*
X0316598Y0016382D01*
X0316729Y0016350D01*
X0316861Y0016321D01*
X0316993Y0016296D01*
X0317127Y0016275D01*
X0317261Y0016258D01*
X0317395Y0016244D01*
X0317529Y0016235D01*
X0317664Y0016229D01*
X0317799Y0016227D01*
X0354020Y0016227D01*
X0354019Y0019770D02*
X0354154Y0019761D01*
X0354290Y0019756D01*
X0354425Y0019754D01*
X0354560Y0019756D01*
X0354696Y0019762D01*
X0354831Y0019772D01*
X0354965Y0019786D01*
X0355100Y0019804D01*
X0355233Y0019826D01*
X0355366Y0019851D01*
X0355499Y0019880D01*
X0355630Y0019913D01*
X0355760Y0019949D01*
X0355889Y0019990D01*
X0356018Y0020034D01*
X0356144Y0020081D01*
X0356270Y0020133D01*
X0356393Y0020187D01*
X0356516Y0020246D01*
X0356636Y0020308D01*
X0356755Y0020373D01*
X0356872Y0020441D01*
X0356986Y0020513D01*
X0357099Y0020588D01*
X0357209Y0020667D01*
X0357318Y0020748D01*
X0357423Y0020832D01*
X0357527Y0020920D01*
X0357628Y0021010D01*
X0357726Y0021103D01*
X0357821Y0021199D01*
X0357914Y0021298D01*
X0358004Y0021399D01*
X0358091Y0021503D01*
X0358175Y0021609D01*
X0358256Y0021718D01*
X0358333Y0021829D01*
X0358408Y0021942D01*
X0358479Y0022057D01*
X0358547Y0022174D01*
X0358612Y0022293D01*
X0358673Y0022414D01*
X0358731Y0022536D01*
X0358785Y0022661D01*
X0358835Y0022786D01*
X0358882Y0022913D01*
X0358926Y0023041D01*
X0358965Y0023171D01*
X0359001Y0023301D01*
X0359034Y0023433D01*
X0359062Y0023565D01*
X0359087Y0023698D01*
X0359107Y0023832D01*
X0359124Y0023967D01*
X0359138Y0024101D01*
X0362681Y0022762D02*
X0366618Y0022762D01*
X0366618Y0082211D01*
X0311500Y0082211D01*
X0357104Y0117306D02*
X0357855Y0116556D01*
X0359356Y0116556D01*
X0360107Y0117306D01*
X0360107Y0118057D01*
X0359356Y0118808D01*
X0357855Y0118808D01*
X0357104Y0119558D01*
X0357104Y0120309D01*
X0357855Y0121060D01*
X0359356Y0121060D01*
X0360107Y0120309D01*
X0361708Y0119558D02*
X0363210Y0121060D01*
X0363210Y0116556D01*
X0364711Y0116556D02*
X0361708Y0116556D01*
X0257684Y0225240D02*
X0258535Y0226058D01*
X0257684Y0225240D02*
X0244034Y0239424D01*
X0244885Y0240243D01*
X0252261Y0247340D02*
X0253112Y0248159D01*
X0266761Y0233975D01*
X0265910Y0233156D01*
X0313075Y0005991D02*
X0313077Y0005856D01*
X0313083Y0005721D01*
X0313092Y0005587D01*
X0313106Y0005453D01*
X0313123Y0005319D01*
X0313144Y0005185D01*
X0313169Y0005053D01*
X0313198Y0004921D01*
X0313230Y0004790D01*
X0313266Y0004660D01*
X0313306Y0004531D01*
X0313350Y0004404D01*
X0313397Y0004277D01*
X0313448Y0004152D01*
X0313502Y0004029D01*
X0313560Y0003907D01*
X0313621Y0003786D01*
X0313686Y0003668D01*
X0313754Y0003552D01*
X0313825Y0003437D01*
X0313899Y0003325D01*
X0313977Y0003214D01*
X0314058Y0003106D01*
X0314142Y0003001D01*
X0314229Y0002897D01*
X0314319Y0002797D01*
X0314411Y0002699D01*
X0314507Y0002603D01*
X0314605Y0002511D01*
X0314705Y0002421D01*
X0314809Y0002334D01*
X0314914Y0002250D01*
X0315022Y0002169D01*
X0315133Y0002091D01*
X0315245Y0002017D01*
X0315360Y0001946D01*
X0315476Y0001878D01*
X0315594Y0001813D01*
X0315715Y0001752D01*
X0315837Y0001694D01*
X0315960Y0001640D01*
X0316085Y0001589D01*
X0316212Y0001542D01*
X0316339Y0001498D01*
X0316468Y0001458D01*
X0316598Y0001422D01*
X0316729Y0001390D01*
X0316861Y0001361D01*
X0316993Y0001336D01*
X0317127Y0001315D01*
X0317261Y0001298D01*
X0317395Y0001284D01*
X0317529Y0001275D01*
X0317664Y0001269D01*
X0317799Y0001267D01*
X0317799Y0001266D02*
X0354020Y0001266D01*
X0354019Y0001266D02*
X0354154Y0001257D01*
X0354290Y0001252D01*
X0354425Y0001250D01*
X0354560Y0001252D01*
X0354696Y0001258D01*
X0354831Y0001268D01*
X0354965Y0001282D01*
X0355100Y0001300D01*
X0355233Y0001322D01*
X0355366Y0001347D01*
X0355499Y0001376D01*
X0355630Y0001409D01*
X0355760Y0001445D01*
X0355889Y0001486D01*
X0356018Y0001530D01*
X0356144Y0001577D01*
X0356270Y0001629D01*
X0356393Y0001683D01*
X0356516Y0001742D01*
X0356636Y0001804D01*
X0356755Y0001869D01*
X0356872Y0001937D01*
X0356986Y0002009D01*
X0357099Y0002084D01*
X0357209Y0002163D01*
X0357318Y0002244D01*
X0357423Y0002328D01*
X0357527Y0002416D01*
X0357628Y0002506D01*
X0357726Y0002599D01*
X0357821Y0002695D01*
X0357914Y0002794D01*
X0358004Y0002895D01*
X0358091Y0002999D01*
X0358175Y0003105D01*
X0358256Y0003214D01*
X0358333Y0003325D01*
X0358408Y0003438D01*
X0358479Y0003553D01*
X0358547Y0003670D01*
X0358612Y0003789D01*
X0358673Y0003910D01*
X0358731Y0004032D01*
X0358785Y0004157D01*
X0358835Y0004282D01*
X0358882Y0004409D01*
X0358926Y0004537D01*
X0358965Y0004667D01*
X0359001Y0004797D01*
X0359034Y0004929D01*
X0359062Y0005061D01*
X0359087Y0005194D01*
X0359107Y0005328D01*
X0359124Y0005463D01*
X0359138Y0005597D01*
D15*
X0338544Y0067057D02*
X0335475Y0067057D01*
X0338544Y0070126D01*
X0338544Y0070894D01*
X0337777Y0071661D01*
X0336242Y0071661D01*
X0335475Y0070894D01*
X0333940Y0070894D02*
X0333173Y0071661D01*
X0331638Y0071661D01*
X0330871Y0070894D01*
X0330871Y0070126D01*
X0331638Y0069359D01*
X0333173Y0069359D01*
X0333940Y0068592D01*
X0333940Y0067824D01*
X0333173Y0067057D01*
X0331638Y0067057D01*
X0330871Y0067824D01*
X0329336Y0067824D02*
X0329336Y0071661D01*
X0326267Y0071661D02*
X0326267Y0067824D01*
X0327034Y0067057D01*
X0328569Y0067057D01*
X0329336Y0067824D01*
X0332405Y0066290D02*
X0332405Y0072428D01*
X0281004Y0075958D02*
X0274866Y0075958D01*
X0275633Y0075191D02*
X0275633Y0076726D01*
X0276400Y0077493D01*
X0277168Y0079028D02*
X0275633Y0080562D01*
X0280237Y0080562D01*
X0280237Y0079028D02*
X0280237Y0082097D01*
X0279470Y0077493D02*
X0278702Y0077493D01*
X0277935Y0076726D01*
X0277935Y0075191D01*
X0277168Y0074424D01*
X0276400Y0074424D01*
X0275633Y0075191D01*
X0275633Y0072889D02*
X0279470Y0072889D01*
X0280237Y0072122D01*
X0280237Y0070587D01*
X0279470Y0069820D01*
X0275633Y0069820D01*
X0279470Y0074424D02*
X0280237Y0075191D01*
X0280237Y0076726D01*
X0279470Y0077493D01*
X0265237Y0076726D02*
X0265237Y0075191D01*
X0264470Y0074424D01*
X0262935Y0074424D02*
X0262168Y0075958D01*
X0262168Y0076726D01*
X0262935Y0077493D01*
X0264470Y0077493D01*
X0265237Y0076726D01*
X0265237Y0079028D02*
X0262168Y0082097D01*
X0261400Y0082097D01*
X0260633Y0081330D01*
X0260633Y0079795D01*
X0261400Y0079028D01*
X0260633Y0077493D02*
X0260633Y0074424D01*
X0262935Y0074424D01*
X0262935Y0072889D02*
X0262935Y0069820D01*
X0265237Y0068285D02*
X0260633Y0068285D01*
X0260633Y0065216D02*
X0265237Y0068285D01*
X0265237Y0065216D02*
X0260633Y0065216D01*
X0261400Y0063681D02*
X0262935Y0063681D01*
X0263702Y0062914D01*
X0263702Y0060612D01*
X0263702Y0062147D02*
X0265237Y0063681D01*
X0265237Y0060612D02*
X0260633Y0060612D01*
X0260633Y0062914D01*
X0261400Y0063681D01*
X0262935Y0059077D02*
X0262935Y0056008D01*
X0262935Y0054473D02*
X0262935Y0051404D01*
X0265237Y0051404D02*
X0260633Y0051404D01*
X0260633Y0049869D02*
X0260633Y0046800D01*
X0260633Y0048335D02*
X0265237Y0048335D01*
X0264470Y0045266D02*
X0261400Y0045266D01*
X0260633Y0044498D01*
X0260633Y0042964D01*
X0261400Y0042196D01*
X0264470Y0042196D01*
X0265237Y0042964D01*
X0265237Y0044498D01*
X0264470Y0045266D01*
X0264470Y0040662D02*
X0261400Y0040662D01*
X0260633Y0039894D01*
X0260633Y0038360D01*
X0261400Y0037592D01*
X0264470Y0037592D01*
X0265237Y0038360D01*
X0265237Y0039894D01*
X0264470Y0040662D01*
X0260633Y0036058D02*
X0260633Y0032988D01*
X0260633Y0031454D02*
X0260633Y0028384D01*
X0265237Y0028384D01*
X0265237Y0031454D01*
X0262935Y0029919D02*
X0262935Y0028384D01*
X0264470Y0026850D02*
X0260633Y0026850D01*
X0260633Y0023781D02*
X0264470Y0023781D01*
X0265237Y0024548D01*
X0265237Y0026083D01*
X0264470Y0026850D01*
X0265237Y0022246D02*
X0265237Y0019177D01*
X0260633Y0019177D01*
X0261400Y0017642D02*
X0262168Y0017642D01*
X0262935Y0016875D01*
X0262935Y0014573D01*
X0262935Y0016875D02*
X0263702Y0017642D01*
X0264470Y0017642D01*
X0265237Y0016875D01*
X0265237Y0014573D01*
X0260633Y0014573D01*
X0260633Y0016875D01*
X0261400Y0017642D01*
X0260633Y0034523D02*
X0265237Y0034523D01*
X0265237Y0054473D02*
X0260633Y0054473D01*
X0265237Y0079028D02*
X0265237Y0082097D01*
X0135574Y0057941D02*
X0135574Y0057173D01*
X0134807Y0056406D01*
X0133272Y0056406D01*
X0132505Y0057173D01*
X0132505Y0057941D01*
X0133272Y0058708D01*
X0134807Y0058708D01*
X0135574Y0057941D01*
X0134807Y0056406D02*
X0135574Y0055639D01*
X0135574Y0054871D01*
X0134807Y0054104D01*
X0133272Y0054104D01*
X0132505Y0054871D01*
X0132505Y0055639D01*
X0133272Y0056406D01*
X0130970Y0054104D02*
X0127901Y0058708D01*
X0130970Y0058708D02*
X0127901Y0054104D01*
X0083961Y0062569D02*
X0080891Y0062569D01*
X0080891Y0063336D01*
X0083961Y0066405D01*
X0083961Y0067173D01*
X0080891Y0067173D01*
X0079357Y0067173D02*
X0076287Y0062569D01*
X0074753Y0063336D02*
X0073985Y0062569D01*
X0072451Y0062569D01*
X0071683Y0063336D01*
X0074753Y0066405D01*
X0074753Y0063336D01*
X0074753Y0066405D02*
X0073985Y0067173D01*
X0072451Y0067173D01*
X0071683Y0066405D01*
X0071683Y0063336D01*
X0070149Y0062569D02*
X0070149Y0065638D01*
X0068614Y0067173D01*
X0067079Y0065638D01*
X0067079Y0062569D01*
X0065545Y0063336D02*
X0064777Y0062569D01*
X0063243Y0062569D01*
X0062476Y0063336D01*
X0060941Y0063336D02*
X0060941Y0066405D01*
X0057872Y0063336D01*
X0058639Y0062569D01*
X0060174Y0062569D01*
X0060941Y0063336D01*
X0060941Y0066405D02*
X0060174Y0067173D01*
X0058639Y0067173D01*
X0057872Y0066405D01*
X0057872Y0063336D01*
X0056337Y0063336D02*
X0056337Y0066405D01*
X0053268Y0063336D01*
X0054035Y0062569D01*
X0055570Y0062569D01*
X0056337Y0063336D01*
X0053268Y0063336D02*
X0053268Y0066405D01*
X0054035Y0067173D01*
X0055570Y0067173D01*
X0056337Y0066405D01*
X0051733Y0067173D02*
X0051733Y0062569D01*
X0051733Y0064871D02*
X0048664Y0064871D01*
X0048664Y0062569D02*
X0048664Y0067173D01*
X0047129Y0067173D02*
X0044060Y0062569D01*
X0042525Y0062569D02*
X0042525Y0065638D01*
X0040991Y0067173D01*
X0039456Y0065638D01*
X0039456Y0062569D01*
X0039456Y0064871D02*
X0042525Y0064871D01*
X0044060Y0067173D02*
X0047129Y0062569D01*
X0045594Y0071801D02*
X0045594Y0077940D01*
X0044827Y0077173D02*
X0046362Y0077173D01*
X0047129Y0076405D01*
X0046362Y0074871D02*
X0044827Y0074871D01*
X0044060Y0075638D01*
X0044060Y0076405D01*
X0044827Y0077173D01*
X0042525Y0077173D02*
X0042525Y0073336D01*
X0041758Y0072569D01*
X0040223Y0072569D01*
X0039456Y0073336D01*
X0039456Y0077173D01*
X0044060Y0073336D02*
X0044827Y0072569D01*
X0046362Y0072569D01*
X0047129Y0073336D01*
X0047129Y0074103D01*
X0046362Y0074871D01*
X0048664Y0074871D02*
X0050198Y0075638D01*
X0050966Y0075638D01*
X0051733Y0074871D01*
X0051733Y0073336D01*
X0050966Y0072569D01*
X0049431Y0072569D01*
X0048664Y0073336D01*
X0048664Y0074871D02*
X0048664Y0077173D01*
X0051733Y0077173D01*
X0062476Y0066405D02*
X0063243Y0067173D01*
X0064777Y0067173D01*
X0065545Y0066405D01*
X0065545Y0065638D01*
X0064777Y0064871D01*
X0065545Y0064103D01*
X0065545Y0063336D01*
X0064777Y0064871D02*
X0064010Y0064871D01*
X0067079Y0064871D02*
X0070149Y0064871D01*
X0076287Y0067173D02*
X0079357Y0062569D01*
X0054851Y0036267D02*
X0052549Y0033965D01*
X0055618Y0033965D01*
X0054851Y0031663D02*
X0054851Y0036267D01*
X0051014Y0036267D02*
X0047945Y0031663D01*
X0051014Y0031663D02*
X0047945Y0036267D01*
X0048008Y0095521D02*
X0048008Y0100125D01*
X0045706Y0097823D01*
X0048776Y0097823D01*
X0050310Y0096289D02*
X0053379Y0099358D01*
X0053379Y0096289D01*
X0052612Y0095521D01*
X0051077Y0095521D01*
X0050310Y0096289D01*
X0050310Y0099358D01*
X0051077Y0100125D01*
X0052612Y0100125D01*
X0053379Y0099358D01*
X0054914Y0100125D02*
X0054914Y0097823D01*
X0056449Y0098591D01*
X0057216Y0098591D01*
X0057983Y0097823D01*
X0057983Y0096289D01*
X0057216Y0095521D01*
X0055681Y0095521D01*
X0054914Y0096289D01*
X0054914Y0100125D02*
X0057983Y0100125D01*
X0059518Y0099358D02*
X0060285Y0100125D01*
X0061820Y0100125D01*
X0062587Y0099358D01*
X0059518Y0096289D01*
X0060285Y0095521D01*
X0061820Y0095521D01*
X0062587Y0096289D01*
X0062587Y0099358D01*
X0064122Y0099358D02*
X0064122Y0096289D01*
X0064889Y0095521D01*
X0066424Y0095521D01*
X0067191Y0096289D01*
X0067191Y0099358D02*
X0066424Y0100125D01*
X0064889Y0100125D01*
X0064122Y0099358D01*
X0059518Y0099358D02*
X0059518Y0096289D01*
X0058879Y0102214D02*
X0058879Y0106818D01*
X0056577Y0104516D01*
X0059646Y0104516D01*
X0055042Y0103749D02*
X0054275Y0104516D01*
X0052741Y0104516D01*
X0051973Y0105284D01*
X0051973Y0106051D01*
X0052741Y0106818D01*
X0054275Y0106818D01*
X0055042Y0106051D01*
X0053508Y0107586D02*
X0053508Y0101447D01*
X0052741Y0102214D02*
X0054275Y0102214D01*
X0055042Y0102982D01*
X0055042Y0103749D01*
X0052741Y0102214D02*
X0051973Y0102982D01*
X0050439Y0102982D02*
X0050439Y0106818D01*
X0047369Y0106818D02*
X0047369Y0102982D01*
X0048137Y0102214D01*
X0049671Y0102214D01*
X0050439Y0102982D01*
X0044172Y0099358D02*
X0044172Y0096289D01*
X0043404Y0095521D01*
X0041870Y0095521D01*
X0041102Y0096289D01*
X0044172Y0099358D01*
X0043404Y0100125D01*
X0041870Y0100125D01*
X0041102Y0099358D01*
X0041102Y0096289D01*
X0039568Y0095521D02*
X0039568Y0100125D01*
X0036498Y0100125D02*
X0036498Y0095521D01*
X0033429Y0095521D02*
X0033429Y0100125D01*
X0031894Y0100125D02*
X0034964Y0100125D01*
X0036498Y0100125D02*
X0039568Y0095521D01*
X0030360Y0097823D02*
X0029593Y0097056D01*
X0027291Y0097056D01*
X0027291Y0095521D02*
X0027291Y0100125D01*
X0029593Y0100125D01*
X0030360Y0099358D01*
X0030360Y0097823D01*
X0037315Y0302372D02*
X0040384Y0306976D01*
X0041919Y0306208D02*
X0042686Y0306976D01*
X0044221Y0306976D01*
X0044988Y0306208D01*
X0044988Y0305441D01*
X0044221Y0304674D01*
X0044988Y0303907D01*
X0044988Y0303139D01*
X0044221Y0302372D01*
X0042686Y0302372D01*
X0041919Y0303139D01*
X0040384Y0302372D02*
X0037315Y0306976D01*
X0043454Y0304674D02*
X0044221Y0304674D01*
X0095909Y0340054D02*
X0100513Y0343123D01*
X0099745Y0344658D02*
X0100513Y0345425D01*
X0100513Y0346960D01*
X0099745Y0347727D01*
X0098211Y0347727D01*
X0097443Y0346960D01*
X0097443Y0346192D01*
X0098211Y0344658D01*
X0095909Y0344658D01*
X0095909Y0347727D01*
X0095909Y0343123D02*
X0100513Y0340054D01*
X0112409Y0350285D02*
X0114811Y0353888D01*
X0116092Y0353888D02*
X0118494Y0353888D01*
X0118494Y0353288D01*
X0116092Y0350886D01*
X0116092Y0350285D01*
X0114811Y0350285D02*
X0112409Y0353888D01*
X0220436Y0314755D02*
X0225040Y0314755D01*
X0225040Y0313221D02*
X0225040Y0316290D01*
X0221971Y0313221D02*
X0220436Y0314755D01*
X0220436Y0311686D02*
X0225040Y0308617D01*
X0225040Y0311686D02*
X0220436Y0308617D01*
X0282802Y0312136D02*
X0285872Y0316740D01*
X0287406Y0314438D02*
X0288941Y0315972D01*
X0290476Y0316740D01*
X0289708Y0314438D02*
X0287406Y0314438D01*
X0287406Y0312903D01*
X0288174Y0312136D01*
X0289708Y0312136D01*
X0290476Y0312903D01*
X0290476Y0313670D01*
X0289708Y0314438D01*
X0285872Y0312136D02*
X0282802Y0316740D01*
X0357665Y0312842D02*
X0360734Y0308238D01*
X0362268Y0308238D02*
X0365338Y0311307D01*
X0365338Y0312075D01*
X0364570Y0312842D01*
X0363036Y0312842D01*
X0362268Y0312075D01*
X0360734Y0312842D02*
X0357665Y0308238D01*
X0362268Y0308238D02*
X0365338Y0308238D01*
D16*
X0224960Y0194992D02*
X0224960Y0193883D01*
X0223851Y0192774D01*
X0222742Y0192774D01*
X0221704Y0191736D02*
X0218932Y0194508D01*
X0220525Y0194992D02*
X0220525Y0196101D01*
X0221634Y0197209D01*
X0222742Y0197209D01*
X0223297Y0196655D01*
X0223297Y0195546D01*
X0224405Y0195546D01*
X0224960Y0194992D01*
X0223297Y0195546D02*
X0222742Y0194992D01*
X0221704Y0191736D02*
X0221704Y0190628D01*
X0220596Y0189519D01*
X0219487Y0189519D01*
X0216715Y0192291D01*
X0130744Y0260221D02*
X0126040Y0260221D01*
X0126040Y0261789D02*
X0126040Y0258653D01*
X0129176Y0261789D02*
X0130744Y0260221D01*
X0130744Y0263257D02*
X0126824Y0263257D01*
X0126040Y0264041D01*
X0126040Y0265609D01*
X0126824Y0266393D01*
X0130744Y0266393D01*
X0158924Y0290057D02*
X0162060Y0293193D01*
X0160492Y0293193D02*
X0160492Y0290057D01*
X0162060Y0290057D02*
X0158924Y0293193D01*
X0158924Y0291625D02*
X0162060Y0291625D01*
D17*
X0355988Y0149377D03*
D18*
X0214650Y0039849D02*
X0214650Y0032762D01*
X0214650Y0039849D02*
X0205594Y0039849D01*
X0191421Y0039849D02*
X0182366Y0039849D01*
X0182366Y0032762D01*
X0182366Y0023314D02*
X0182366Y0020558D01*
X0214650Y0020558D02*
X0214650Y0023314D01*
X0168330Y0125361D02*
X0168332Y0125432D01*
X0168338Y0125503D01*
X0168348Y0125574D01*
X0168362Y0125643D01*
X0168379Y0125712D01*
X0168401Y0125780D01*
X0168426Y0125847D01*
X0168455Y0125912D01*
X0168487Y0125975D01*
X0168523Y0126037D01*
X0168562Y0126096D01*
X0168605Y0126153D01*
X0168650Y0126208D01*
X0168699Y0126260D01*
X0168750Y0126309D01*
X0168804Y0126355D01*
X0168861Y0126399D01*
X0168919Y0126439D01*
X0168980Y0126475D01*
X0169043Y0126509D01*
X0169108Y0126538D01*
X0169174Y0126564D01*
X0169242Y0126587D01*
X0169310Y0126605D01*
X0169380Y0126620D01*
X0169450Y0126631D01*
X0169521Y0126638D01*
X0169592Y0126641D01*
X0169663Y0126640D01*
X0169734Y0126635D01*
X0169805Y0126626D01*
X0169875Y0126613D01*
X0169944Y0126597D01*
X0170012Y0126576D01*
X0170079Y0126552D01*
X0170145Y0126524D01*
X0170208Y0126492D01*
X0170270Y0126457D01*
X0170330Y0126419D01*
X0170388Y0126377D01*
X0170443Y0126333D01*
X0170496Y0126285D01*
X0170546Y0126234D01*
X0170593Y0126181D01*
X0170637Y0126125D01*
X0170678Y0126067D01*
X0170716Y0126006D01*
X0170750Y0125944D01*
X0170780Y0125879D01*
X0170807Y0125814D01*
X0170831Y0125746D01*
X0170850Y0125678D01*
X0170866Y0125609D01*
X0170878Y0125538D01*
X0170886Y0125468D01*
X0170890Y0125397D01*
X0170890Y0125325D01*
X0170886Y0125254D01*
X0170878Y0125184D01*
X0170866Y0125113D01*
X0170850Y0125044D01*
X0170831Y0124976D01*
X0170807Y0124908D01*
X0170780Y0124843D01*
X0170750Y0124778D01*
X0170716Y0124716D01*
X0170678Y0124655D01*
X0170637Y0124597D01*
X0170593Y0124541D01*
X0170546Y0124488D01*
X0170496Y0124437D01*
X0170443Y0124389D01*
X0170388Y0124345D01*
X0170330Y0124303D01*
X0170270Y0124265D01*
X0170208Y0124230D01*
X0170145Y0124198D01*
X0170079Y0124170D01*
X0170012Y0124146D01*
X0169944Y0124125D01*
X0169875Y0124109D01*
X0169805Y0124096D01*
X0169734Y0124087D01*
X0169663Y0124082D01*
X0169592Y0124081D01*
X0169521Y0124084D01*
X0169450Y0124091D01*
X0169380Y0124102D01*
X0169310Y0124117D01*
X0169242Y0124135D01*
X0169174Y0124158D01*
X0169108Y0124184D01*
X0169043Y0124213D01*
X0168980Y0124247D01*
X0168919Y0124283D01*
X0168861Y0124323D01*
X0168804Y0124367D01*
X0168750Y0124413D01*
X0168699Y0124462D01*
X0168650Y0124514D01*
X0168605Y0124569D01*
X0168562Y0124626D01*
X0168523Y0124685D01*
X0168487Y0124747D01*
X0168455Y0124810D01*
X0168426Y0124875D01*
X0168401Y0124942D01*
X0168379Y0125010D01*
X0168362Y0125079D01*
X0168348Y0125148D01*
X0168338Y0125219D01*
X0168332Y0125290D01*
X0168330Y0125361D01*
X0152209Y0322585D02*
X0112209Y0322585D01*
X0112209Y0340085D01*
X0152209Y0340085D01*
X0152209Y0322585D01*
X0152209Y0340085D02*
X0152209Y0347585D01*
X0112209Y0347585D01*
X0112209Y0340085D01*
D19*
X0243935Y0251863D02*
X0244105Y0251693D01*
X0269880Y0241772D02*
X0270049Y0241942D01*
X0328193Y0240205D02*
X0328193Y0239965D01*
X0299059Y0140520D02*
X0299059Y0140280D01*
X0223667Y0078392D02*
X0223427Y0078392D01*
X0209888Y0085085D02*
X0209648Y0085085D01*
X0214492Y0064733D02*
X0214492Y0064493D01*
X0177211Y0108314D02*
X0176970Y0108314D01*
X0132996Y0089536D02*
X0132996Y0089296D01*
X0114219Y0061463D02*
X0113978Y0061463D01*
X0065006Y0036266D02*
X0064766Y0036266D01*
X0110398Y0143312D02*
X0110398Y0143552D01*
X0110516Y0153233D02*
X0110516Y0153473D01*
X0110713Y0163390D02*
X0110713Y0163631D01*
X0110713Y0173548D02*
X0110713Y0173788D01*
X0110516Y0183509D02*
X0110516Y0183749D01*
X0110555Y0193430D02*
X0110555Y0193670D01*
X0110791Y0203666D02*
X0110791Y0203906D01*
X0126343Y0201190D02*
X0126343Y0200949D01*
X0134610Y0187725D02*
X0134610Y0187485D01*
X0089967Y0173471D02*
X0089726Y0173471D01*
X0046972Y0169575D02*
X0046972Y0169335D01*
D20*
X0062720Y0173077D03*
X0078114Y0162802D03*
X0136106Y0175046D03*
X0136972Y0161975D03*
X0137760Y0150518D03*
X0149925Y0089416D03*
X0213626Y0119810D03*
G36*
X0261412Y0252294D02*
X0262685Y0251021D01*
X0260564Y0248900D01*
X0259291Y0250173D01*
X0261412Y0252294D01*
G37*
D21*
X0088272Y0276975D03*
D22*
X0160956Y0123048D02*
X0161496Y0123048D01*
X0161496Y0123047D02*
X0161500Y0122994D01*
X0161508Y0122942D01*
X0161520Y0122890D01*
X0161536Y0122839D01*
X0161555Y0122790D01*
X0161578Y0122742D01*
X0161605Y0122696D01*
X0161635Y0122652D01*
X0161668Y0122611D01*
X0161704Y0122572D01*
X0161743Y0122536D01*
X0161784Y0122503D01*
X0161828Y0122473D01*
X0161874Y0122446D01*
X0161922Y0122423D01*
X0161971Y0122404D01*
X0162022Y0122388D01*
X0162074Y0122376D01*
X0162126Y0122368D01*
X0162179Y0122364D01*
X0162180Y0121824D01*
X0162179Y0121823D01*
X0162111Y0121827D01*
X0162043Y0121834D01*
X0161976Y0121845D01*
X0161909Y0121859D01*
X0161843Y0121877D01*
X0161779Y0121899D01*
X0161715Y0121924D01*
X0161653Y0121953D01*
X0161593Y0121985D01*
X0161535Y0122020D01*
X0161478Y0122058D01*
X0161424Y0122099D01*
X0161372Y0122143D01*
X0161322Y0122190D01*
X0161275Y0122240D01*
X0161231Y0122292D01*
X0161190Y0122346D01*
X0161152Y0122403D01*
X0161117Y0122461D01*
X0161085Y0122521D01*
X0161056Y0122583D01*
X0161031Y0122647D01*
X0161009Y0122711D01*
X0160991Y0122777D01*
X0160977Y0122844D01*
X0160966Y0122911D01*
X0160959Y0122979D01*
X0160955Y0123047D01*
X0161011Y0123047D01*
X0161015Y0122980D01*
X0161022Y0122913D01*
X0161033Y0122846D01*
X0161048Y0122780D01*
X0161067Y0122715D01*
X0161089Y0122652D01*
X0161115Y0122589D01*
X0161144Y0122528D01*
X0161177Y0122469D01*
X0161212Y0122412D01*
X0161251Y0122357D01*
X0161293Y0122304D01*
X0161338Y0122254D01*
X0161386Y0122206D01*
X0161436Y0122161D01*
X0161489Y0122119D01*
X0161544Y0122080D01*
X0161601Y0122045D01*
X0161660Y0122012D01*
X0161721Y0121983D01*
X0161784Y0121957D01*
X0161847Y0121935D01*
X0161912Y0121916D01*
X0161978Y0121901D01*
X0162045Y0121890D01*
X0162112Y0121883D01*
X0162179Y0121879D01*
X0162179Y0121935D01*
X0162112Y0121939D01*
X0162046Y0121947D01*
X0161980Y0121958D01*
X0161916Y0121973D01*
X0161852Y0121992D01*
X0161789Y0122015D01*
X0161728Y0122041D01*
X0161668Y0122071D01*
X0161610Y0122105D01*
X0161555Y0122141D01*
X0161501Y0122181D01*
X0161450Y0122224D01*
X0161401Y0122269D01*
X0161356Y0122318D01*
X0161313Y0122369D01*
X0161273Y0122423D01*
X0161237Y0122478D01*
X0161203Y0122536D01*
X0161173Y0122596D01*
X0161147Y0122657D01*
X0161124Y0122720D01*
X0161105Y0122784D01*
X0161090Y0122848D01*
X0161079Y0122914D01*
X0161071Y0122980D01*
X0161067Y0123047D01*
X0161123Y0123047D01*
X0161127Y0122984D01*
X0161134Y0122921D01*
X0161145Y0122859D01*
X0161160Y0122797D01*
X0161178Y0122736D01*
X0161199Y0122677D01*
X0161224Y0122619D01*
X0161253Y0122562D01*
X0161284Y0122507D01*
X0161319Y0122454D01*
X0161357Y0122404D01*
X0161398Y0122355D01*
X0161441Y0122309D01*
X0161487Y0122266D01*
X0161536Y0122225D01*
X0161586Y0122187D01*
X0161639Y0122152D01*
X0161694Y0122121D01*
X0161751Y0122092D01*
X0161809Y0122067D01*
X0161868Y0122046D01*
X0161929Y0122028D01*
X0161991Y0122013D01*
X0162053Y0122002D01*
X0162116Y0121995D01*
X0162179Y0121991D01*
X0162179Y0122047D01*
X0162117Y0122051D01*
X0162055Y0122059D01*
X0161994Y0122070D01*
X0161933Y0122085D01*
X0161874Y0122103D01*
X0161815Y0122125D01*
X0161759Y0122151D01*
X0161703Y0122180D01*
X0161650Y0122212D01*
X0161599Y0122247D01*
X0161550Y0122286D01*
X0161503Y0122327D01*
X0161459Y0122371D01*
X0161418Y0122418D01*
X0161379Y0122467D01*
X0161344Y0122518D01*
X0161312Y0122571D01*
X0161283Y0122627D01*
X0161257Y0122683D01*
X0161235Y0122742D01*
X0161217Y0122801D01*
X0161202Y0122862D01*
X0161191Y0122923D01*
X0161183Y0122985D01*
X0161179Y0123047D01*
X0161235Y0123047D01*
X0161239Y0122986D01*
X0161247Y0122925D01*
X0161258Y0122865D01*
X0161274Y0122806D01*
X0161292Y0122747D01*
X0161315Y0122690D01*
X0161341Y0122635D01*
X0161371Y0122581D01*
X0161403Y0122530D01*
X0161439Y0122480D01*
X0161478Y0122433D01*
X0161520Y0122388D01*
X0161565Y0122346D01*
X0161612Y0122307D01*
X0161662Y0122271D01*
X0161713Y0122239D01*
X0161767Y0122209D01*
X0161822Y0122183D01*
X0161879Y0122160D01*
X0161938Y0122142D01*
X0161997Y0122126D01*
X0162057Y0122115D01*
X0162118Y0122107D01*
X0162179Y0122103D01*
X0162179Y0122159D01*
X0162122Y0122163D01*
X0162064Y0122170D01*
X0162008Y0122181D01*
X0161952Y0122196D01*
X0161897Y0122214D01*
X0161844Y0122235D01*
X0161792Y0122259D01*
X0161741Y0122287D01*
X0161693Y0122318D01*
X0161646Y0122352D01*
X0161602Y0122388D01*
X0161560Y0122428D01*
X0161520Y0122470D01*
X0161484Y0122514D01*
X0161450Y0122561D01*
X0161419Y0122609D01*
X0161391Y0122660D01*
X0161367Y0122712D01*
X0161346Y0122765D01*
X0161328Y0122820D01*
X0161313Y0122876D01*
X0161302Y0122932D01*
X0161295Y0122990D01*
X0161291Y0123047D01*
X0161348Y0123047D01*
X0161351Y0122991D01*
X0161359Y0122935D01*
X0161370Y0122880D01*
X0161384Y0122826D01*
X0161403Y0122772D01*
X0161424Y0122720D01*
X0161449Y0122670D01*
X0161477Y0122621D01*
X0161509Y0122575D01*
X0161543Y0122530D01*
X0161580Y0122488D01*
X0161620Y0122448D01*
X0161662Y0122411D01*
X0161707Y0122377D01*
X0161753Y0122345D01*
X0161802Y0122317D01*
X0161852Y0122292D01*
X0161904Y0122271D01*
X0161958Y0122252D01*
X0162012Y0122238D01*
X0162067Y0122227D01*
X0162123Y0122219D01*
X0162179Y0122216D01*
X0162179Y0122272D01*
X0162124Y0122275D01*
X0162070Y0122283D01*
X0162016Y0122294D01*
X0161964Y0122309D01*
X0161912Y0122328D01*
X0161862Y0122350D01*
X0161813Y0122375D01*
X0161766Y0122403D01*
X0161722Y0122435D01*
X0161679Y0122470D01*
X0161639Y0122507D01*
X0161602Y0122547D01*
X0161567Y0122590D01*
X0161535Y0122634D01*
X0161507Y0122681D01*
X0161482Y0122730D01*
X0161460Y0122780D01*
X0161441Y0122832D01*
X0161426Y0122884D01*
X0161415Y0122938D01*
X0161407Y0122992D01*
X0161404Y0123047D01*
X0161460Y0123047D01*
X0161464Y0122994D01*
X0161471Y0122941D01*
X0161483Y0122889D01*
X0161498Y0122838D01*
X0161517Y0122788D01*
X0161539Y0122740D01*
X0161565Y0122693D01*
X0161593Y0122649D01*
X0161625Y0122606D01*
X0161660Y0122566D01*
X0161698Y0122528D01*
X0161738Y0122493D01*
X0161781Y0122461D01*
X0161825Y0122433D01*
X0161872Y0122407D01*
X0161920Y0122385D01*
X0161970Y0122366D01*
X0162021Y0122351D01*
X0162073Y0122339D01*
X0162126Y0122332D01*
X0162179Y0122328D01*
X0171962Y0121824D02*
X0171962Y0122364D01*
X0171963Y0122364D02*
X0172016Y0122368D01*
X0172068Y0122376D01*
X0172120Y0122388D01*
X0172171Y0122404D01*
X0172220Y0122423D01*
X0172268Y0122446D01*
X0172314Y0122473D01*
X0172358Y0122503D01*
X0172399Y0122536D01*
X0172438Y0122572D01*
X0172474Y0122611D01*
X0172507Y0122652D01*
X0172537Y0122696D01*
X0172564Y0122742D01*
X0172587Y0122790D01*
X0172606Y0122839D01*
X0172622Y0122890D01*
X0172634Y0122942D01*
X0172642Y0122994D01*
X0172646Y0123047D01*
X0173186Y0123048D01*
X0173187Y0123047D01*
X0173183Y0122979D01*
X0173176Y0122911D01*
X0173165Y0122844D01*
X0173151Y0122777D01*
X0173133Y0122711D01*
X0173111Y0122647D01*
X0173086Y0122583D01*
X0173057Y0122521D01*
X0173025Y0122461D01*
X0172990Y0122403D01*
X0172952Y0122346D01*
X0172911Y0122292D01*
X0172867Y0122240D01*
X0172820Y0122190D01*
X0172770Y0122143D01*
X0172718Y0122099D01*
X0172664Y0122058D01*
X0172607Y0122020D01*
X0172549Y0121985D01*
X0172489Y0121953D01*
X0172427Y0121924D01*
X0172363Y0121899D01*
X0172299Y0121877D01*
X0172233Y0121859D01*
X0172166Y0121845D01*
X0172099Y0121834D01*
X0172031Y0121827D01*
X0171963Y0121823D01*
X0171963Y0121879D01*
X0172030Y0121883D01*
X0172097Y0121890D01*
X0172164Y0121901D01*
X0172230Y0121916D01*
X0172295Y0121935D01*
X0172358Y0121957D01*
X0172421Y0121983D01*
X0172482Y0122012D01*
X0172541Y0122045D01*
X0172598Y0122080D01*
X0172653Y0122119D01*
X0172706Y0122161D01*
X0172756Y0122206D01*
X0172804Y0122254D01*
X0172849Y0122304D01*
X0172891Y0122357D01*
X0172930Y0122412D01*
X0172965Y0122469D01*
X0172998Y0122528D01*
X0173027Y0122589D01*
X0173053Y0122652D01*
X0173075Y0122715D01*
X0173094Y0122780D01*
X0173109Y0122846D01*
X0173120Y0122913D01*
X0173127Y0122980D01*
X0173131Y0123047D01*
X0173075Y0123047D01*
X0173071Y0122980D01*
X0173063Y0122914D01*
X0173052Y0122848D01*
X0173037Y0122784D01*
X0173018Y0122720D01*
X0172995Y0122657D01*
X0172969Y0122596D01*
X0172939Y0122536D01*
X0172905Y0122478D01*
X0172869Y0122423D01*
X0172829Y0122369D01*
X0172786Y0122318D01*
X0172741Y0122269D01*
X0172692Y0122224D01*
X0172641Y0122181D01*
X0172587Y0122141D01*
X0172532Y0122105D01*
X0172474Y0122071D01*
X0172414Y0122041D01*
X0172353Y0122015D01*
X0172290Y0121992D01*
X0172226Y0121973D01*
X0172162Y0121958D01*
X0172096Y0121947D01*
X0172030Y0121939D01*
X0171963Y0121935D01*
X0171963Y0121991D01*
X0172026Y0121995D01*
X0172089Y0122002D01*
X0172151Y0122013D01*
X0172213Y0122028D01*
X0172274Y0122046D01*
X0172333Y0122067D01*
X0172391Y0122092D01*
X0172448Y0122121D01*
X0172503Y0122152D01*
X0172556Y0122187D01*
X0172606Y0122225D01*
X0172655Y0122266D01*
X0172701Y0122309D01*
X0172744Y0122355D01*
X0172785Y0122404D01*
X0172823Y0122454D01*
X0172858Y0122507D01*
X0172889Y0122562D01*
X0172918Y0122619D01*
X0172943Y0122677D01*
X0172964Y0122736D01*
X0172982Y0122797D01*
X0172997Y0122859D01*
X0173008Y0122921D01*
X0173015Y0122984D01*
X0173019Y0123047D01*
X0172963Y0123047D01*
X0172959Y0122985D01*
X0172951Y0122923D01*
X0172940Y0122862D01*
X0172925Y0122801D01*
X0172907Y0122742D01*
X0172885Y0122683D01*
X0172859Y0122627D01*
X0172830Y0122571D01*
X0172798Y0122518D01*
X0172763Y0122467D01*
X0172724Y0122418D01*
X0172683Y0122371D01*
X0172639Y0122327D01*
X0172592Y0122286D01*
X0172543Y0122247D01*
X0172492Y0122212D01*
X0172439Y0122180D01*
X0172383Y0122151D01*
X0172327Y0122125D01*
X0172268Y0122103D01*
X0172209Y0122085D01*
X0172148Y0122070D01*
X0172087Y0122059D01*
X0172025Y0122051D01*
X0171963Y0122047D01*
X0171963Y0122103D01*
X0172024Y0122107D01*
X0172085Y0122115D01*
X0172145Y0122126D01*
X0172204Y0122142D01*
X0172263Y0122160D01*
X0172320Y0122183D01*
X0172375Y0122209D01*
X0172429Y0122239D01*
X0172480Y0122271D01*
X0172530Y0122307D01*
X0172577Y0122346D01*
X0172622Y0122388D01*
X0172664Y0122433D01*
X0172703Y0122480D01*
X0172739Y0122530D01*
X0172771Y0122581D01*
X0172801Y0122635D01*
X0172827Y0122690D01*
X0172850Y0122747D01*
X0172868Y0122806D01*
X0172884Y0122865D01*
X0172895Y0122925D01*
X0172903Y0122986D01*
X0172907Y0123047D01*
X0172851Y0123047D01*
X0172847Y0122990D01*
X0172840Y0122932D01*
X0172829Y0122876D01*
X0172814Y0122820D01*
X0172796Y0122765D01*
X0172775Y0122712D01*
X0172751Y0122660D01*
X0172723Y0122609D01*
X0172692Y0122561D01*
X0172658Y0122514D01*
X0172622Y0122470D01*
X0172582Y0122428D01*
X0172540Y0122388D01*
X0172496Y0122352D01*
X0172449Y0122318D01*
X0172401Y0122287D01*
X0172350Y0122259D01*
X0172298Y0122235D01*
X0172245Y0122214D01*
X0172190Y0122196D01*
X0172134Y0122181D01*
X0172078Y0122170D01*
X0172020Y0122163D01*
X0171963Y0122159D01*
X0171963Y0122216D01*
X0172019Y0122219D01*
X0172075Y0122227D01*
X0172130Y0122238D01*
X0172184Y0122252D01*
X0172238Y0122271D01*
X0172290Y0122292D01*
X0172340Y0122317D01*
X0172389Y0122345D01*
X0172435Y0122377D01*
X0172480Y0122411D01*
X0172522Y0122448D01*
X0172562Y0122488D01*
X0172599Y0122530D01*
X0172633Y0122575D01*
X0172665Y0122621D01*
X0172693Y0122670D01*
X0172718Y0122720D01*
X0172739Y0122772D01*
X0172758Y0122826D01*
X0172772Y0122880D01*
X0172783Y0122935D01*
X0172791Y0122991D01*
X0172794Y0123047D01*
X0172738Y0123047D01*
X0172735Y0122992D01*
X0172727Y0122938D01*
X0172716Y0122884D01*
X0172701Y0122832D01*
X0172682Y0122780D01*
X0172660Y0122730D01*
X0172635Y0122681D01*
X0172607Y0122634D01*
X0172575Y0122590D01*
X0172540Y0122547D01*
X0172503Y0122507D01*
X0172463Y0122470D01*
X0172420Y0122435D01*
X0172376Y0122403D01*
X0172329Y0122375D01*
X0172280Y0122350D01*
X0172230Y0122328D01*
X0172178Y0122309D01*
X0172126Y0122294D01*
X0172072Y0122283D01*
X0172018Y0122275D01*
X0171963Y0122272D01*
X0171963Y0122328D01*
X0172016Y0122332D01*
X0172069Y0122339D01*
X0172121Y0122351D01*
X0172172Y0122366D01*
X0172222Y0122385D01*
X0172270Y0122407D01*
X0172317Y0122433D01*
X0172361Y0122461D01*
X0172404Y0122493D01*
X0172444Y0122528D01*
X0172482Y0122566D01*
X0172517Y0122606D01*
X0172549Y0122649D01*
X0172577Y0122693D01*
X0172603Y0122740D01*
X0172625Y0122788D01*
X0172644Y0122838D01*
X0172659Y0122889D01*
X0172671Y0122941D01*
X0172678Y0122994D01*
X0172682Y0123047D01*
M02*
