%
M48
M72
T01C0.02000
T02C0.02362
T03C0.02500
T04C0.03150
T05C0.03543
T06C0.03937
T07C0.04000
T08C0.06693
T09C0.10630
T10C0.12500
%
T01
X42209Y66896
X43272Y73865
X79138Y93235
X104256Y104377
X102091Y113865
X102996Y121227
X107012Y134298
X119020Y131936
X134965Y139810
X153075Y155951
X174728Y150440
X181421Y163038
X185791Y161070
X201815Y153589
X203272Y145794
X208193Y143353
X216815Y149849
X222248Y147762
X229453Y153983
X231894Y146621
X238075Y154377
X244020Y153077
X248350Y155951
X245988Y164219
X250358Y169298
X253547Y165755
X256303Y172093
X258311Y176070
X262248Y181266
X267287Y181463
X272366Y186266
X270791Y190991
X281028Y198865
X285358Y203983
X289413Y210125
X300319Y207133
X302917Y211818
X308193Y206345
X299413Y200794
X298744Y194928
X296382Y187447
X291657Y181542
X297957Y179967
X304177Y175755
X300713Y172881
X310161Y171306
X309768Y165794
X307406Y152408
X299531Y153196
X295988Y157133
X273154Y160676
X268823Y162408
X263902Y162881
X265083Y168865
X265004Y174337
X275909Y176424
X279059Y180755
X255437Y196503
X248744Y192172
X244413Y187054
X239689Y181936
X235358Y183117
X227484Y184692
X225516Y178786
X216067Y176030
X213705Y180755
X197169Y195321
X199020Y201896
X203705Y203825
X207209Y207881
X213705Y211857
X218429Y220518
X225122Y222487
X229846Y227605
X229846Y214219
X232484Y210676
X231146Y205833
X232602Y198865
X241539Y209495
X245594Y211857
X255831Y220715
X247169Y231148
X240870Y242172
X231028Y246503
X226303Y242566
X225122Y251621
X207012Y265007
X199531Y259495
X192051Y267369
X201106Y274062
X219610Y275243
X236972Y292329
X251894Y262644
X259374Y261463
X253469Y255164
X281421Y268550
X295201Y259101
X303075Y264219
X310161Y266581
X324728Y255164
X332209Y253589
X340083Y250440
X346382Y250046
X351894Y248865
X364492Y236660
X371185Y237841
X377878Y238235
X383390Y238235
X365280Y263825
X374965Y270912
X397169Y270912
X352681Y228392
X336933Y220125
X332209Y216975
X330634Y203196
X340476Y201227
X341657Y192172
X351894Y193747
X351894Y186660
X349531Y177605
X346382Y171306
X353469Y163432
X367642Y166188
X374728Y158314
X367642Y152408
X380240Y161857
X373547Y177211
X367642Y177605
X373547Y181936
X374728Y189810
X373941Y194534
X368823Y196896
X374335Y201227
X367642Y206345
X353469Y203196
X329059Y184298
X321972Y181148
X325949Y173707
X327484Y168550
X325516Y155164
X347957Y149259
X383390Y181148
X386933Y178392
X393626Y179180
X390476Y209888
X322366Y196896
X311736Y187447
X310949Y181542
X311343Y215007
X308980Y219731
X316461Y236660
X319610Y245321
X311736Y248865
X309374Y242566
X298744Y241384
X290476Y237054
X287327Y251227
X282209Y221306
X268035Y209495
X213311Y157133
X203862Y162251
X192051Y180755
X171579Y201621
X176224Y213274
X153902Y240597
X127484Y236660
X118035Y236266
X111343Y233904
X104728Y222211
X114098Y217369
X119689Y212133
X99492Y208314
X86539Y208707
X83390Y192172
X97169Y187054
X98744Y168944
X77091Y170912
X68823Y179967
X72366Y149652
X76303Y139810
X66461Y130755
X69217Y124849
X75516Y120518
X98350Y145912
X121579Y174455
X120791Y181542
X56618Y208629
X54059Y216975
X24728Y253589
X26303Y263825
X57012Y263432
X60161Y268156
X81028Y292959
X70791Y311857
X88114Y312251
X53862Y318156
X111343Y279180
X114098Y269337
X112130Y263432
X117248Y255755
X135752Y274062
X128665Y277211
X161343Y297290
X165673Y288235
X170791Y283117
X189295Y315400
X282209Y286896
X294807Y329573
X331421Y287054
X339689Y275243
X375516Y329573
X273547Y145321
X277091Y125243
X263705Y124062
X279531Y109259
X283783Y104377
X284571Y96896
X284571Y90203
X281028Y84298
X302681Y86660
X315673Y71306
X322760Y61463
X329453Y53589
X334492Y50046
X327484Y26424
X349925Y25636
X344138Y108038
X305831Y120125
X305437Y133117
X253862Y105833
X232602Y106739
X184886Y126818
X156618Y117369
X115673Y97684
X117248Y89022
X112130Y84298
X153075Y79967
X172760Y53983
X188508Y54377
X194413Y46896
X202287Y54770
X173941Y24455
X126697Y46503
X116854Y46503
X96776Y46503
X122760Y22093
X13311Y114219
X35358Y132723
X23154Y142959
X17642Y141778
X33783Y168550
X258980Y50833
T02
X254256Y59495
X276303Y45715
X304650Y45715
X303075Y75636
X310634Y109337
X322760Y120125
X299531Y147290
X291539Y133550
X232602Y174455
X221579Y189416
X209374Y189888
X203075Y189810
X208587Y184298
X213783Y203904
X221894Y212408
X230043Y219101
X255437Y237447
X264492Y258707
X289610Y229377
X301618Y216818
X329453Y249259
X355280Y197211
X223154Y121699
X194807Y135085
X196776Y144928
X180240Y136266
X158193Y104770
X104650Y54770
X114886Y39022
X53075Y59888
X82209Y102802
T03
X79256Y56869
X89256Y56869
X69256Y56869
X24256Y56869
X14256Y56869
T04
X13980Y104455
X13980Y129416
X89020Y129416
X89020Y91936
T05
X251579Y298589
X259453Y298589
X267327Y298589
X275201Y298589
X283075Y298589
X290949Y298589
X298823Y298589
X306697Y298589
X314571Y298589
X322445Y298589
X322445Y306463
X314571Y306463
X306697Y306463
X298823Y306463
X290949Y306463
X283075Y306463
X275201Y306463
X267327Y306463
X259453Y306463
X251579Y306463
T06
X147209Y335085
X137209Y335085
X127209Y335085
X117209Y335085
T07
X354054Y110206
X354054Y92406
X379654Y92406
X379654Y110206
T08
X27642Y28589
X27642Y44180
X143705Y39022
X159295Y39022
X19768Y226699
X19768Y283786
X28823Y317014
X28823Y332605
X374965Y318274
X374965Y302684
T09
X43232Y283786
X43232Y226699
T10
X171500Y347369
X381500Y347369
X381500Y37369
M30
